<?xml version="1.0" encoding="utf-8"?>
<!-- Generator: Adobe Illustrator 16.0.3, SVG Export Plug-In . SVG Version: 6.00 Build 0)  -->
<!DOCTYPE svg PUBLIC "-//W3C//DTD SVG 1.1//EN" "http://www.w3.org/Graphics/SVG/1.1/DTD/svg11.dtd">
<svg version="1.1" id="Layer_1" xmlns="http://www.w3.org/2000/svg" xmlns:xlink="http://www.w3.org/1999/xlink" x="0px" y="0px"
	 width="55px" height="55px" viewBox="0 0 55 55" enable-background="new 0 0 55 55" xml:space="preserve">
<g>
	<path id="path2999" fill="none" stroke="#000000" stroke-width="2.3448" d="M13.694,7.875c8.63,13,8.229,13.232,8.229,13.232
		l2.007,28.086"/>
	<path id="path3001" fill="none" stroke="#000000" stroke-width="2.3448" d="M42.576,7.807c-8.631,12.999-8.23,13.23-8.23,13.23
		L32.34,49.125"/>
	<path fill="none" stroke="#000000" stroke-width="2" stroke-miterlimit="10" d="M7.951,30.537c0-4.55,8.911-8.239,19.907-8.239
		c5.253,0,10.044,0.848,13.607,2.232c3.865,1.503,6.279,3.638,6.279,6.006c0,2.063-1.834,3.949-4.861,5.395
		c-3.65,1.742-9.035,2.844-15.025,2.844C16.862,38.775,7.951,35.086,7.951,30.537z"/>
	
		<ellipse fill="#FFFFFF" stroke="#FFFFFF" stroke-width="2" stroke-miterlimit="10" cx="48.043" cy="29.563" rx="5.463" ry="5.961"/>
	<path id="path3806" d="M39.676,34.412l8.084-1.742l-5.072,6.787C42.85,37.283,41.627,35.248,39.676,34.412z"/>
</g>
<g>
</g>
<g>
</g>
<g>
</g>
<g>
</g>
<g>
</g>
<g>
</g>
</svg>
