<?xml version="1.0" encoding="utf-8"?>
<!-- Generator: Adobe Illustrator 16.0.3, SVG Export Plug-In . SVG Version: 6.00 Build 0)  -->
<!DOCTYPE svg PUBLIC "-//W3C//DTD SVG 1.1//EN" "http://www.w3.org/Graphics/SVG/1.1/DTD/svg11.dtd">
<svg version="1.1"
	 id="svg3003" xmlns:dc="http://purl.org/dc/elements/1.1/" xmlns:cc="http://creativecommons.org/ns#" xmlns:rdf="http://www.w3.org/1999/02/22-rdf-syntax-ns#" xmlns:svg="http://www.w3.org/2000/svg"
	 xmlns="http://www.w3.org/2000/svg" xmlns:xlink="http://www.w3.org/1999/xlink" x="0px" y="0px" width="55px" height="55px"
	 viewBox="0 0 55 55" enable-background="new 0 0 55 55" xml:space="preserve">
<path d="M27.502,6.262c2.006,0,3.629,1.528,3.629,3.412c0,1.884-1.623,3.412-3.629,3.412c-2.012,0-3.636-1.527-3.636-3.412
	C23.867,7.789,25.49,6.262,27.502,6.262z"/>
<path d="M0.2,0.2"/>
<path stroke="#000000" d="M29.012,42.207"/>
<polygon points="30.305,46.957 28.184,44.836 33.622,39.398 27.408,33.182 34.277,19.879 16.7,19.879 16.7,16.879 39.208,16.879 
	31.079,32.613 37.863,39.398 "/>
<rect x="19.205" y="18.379" width="3.015" height="31.52"/>
<path d="M29.243,46.898h-1.001v-1L29.243,46.898z"/>
<polygon points="32.863,48.398 26.742,48.398 26.742,42.277 "/>
</svg>
