<?xml version="1.0" encoding="UTF-8" standalone="no"?>
<!-- Generator: Adobe Illustrator 16.0.3, SVG Export Plug-In . SVG Version: 6.00 Build 0)  -->

<svg
   xmlns:dc="http://purl.org/dc/elements/1.1/"
   xmlns:cc="http://creativecommons.org/ns#"
   xmlns:rdf="http://www.w3.org/1999/02/22-rdf-syntax-ns#"
   xmlns:svg="http://www.w3.org/2000/svg"
   xmlns="http://www.w3.org/2000/svg"
   xmlns:sodipodi="http://sodipodi.sourceforge.net/DTD/sodipodi-0.dtd"
   xmlns:inkscape="http://www.inkscape.org/namespaces/inkscape"
   version="1.1"
   id="svg5983"
   x="0px"
   y="0px"
   width="55px"
   height="55px"
   viewBox="0 0 55 55"
   enable-background="new 0 0 55 55"
   xml:space="preserve"
   inkscape:version="0.91 r13725"
   sodipodi:docname="WeatherSymbol_WMO_PresentWeatherAutomaticStation_wawa_50.svg"><metadata
     id="metadata3484"><rdf:RDF><cc:Work
         rdf:about=""><dc:format>image/svg+xml</dc:format><dc:type
           rdf:resource="http://purl.org/dc/dcmitype/StillImage" /></cc:Work></rdf:RDF></metadata><defs
     id="defs3482" /><sodipodi:namedview
     pagecolor="#ffffff"
     bordercolor="#666666"
     borderopacity="1"
     objecttolerance="10"
     gridtolerance="10"
     guidetolerance="10"
     inkscape:pageopacity="0"
     inkscape:pageshadow="2"
     inkscape:window-width="640"
     inkscape:window-height="480"
     id="namedview3480"
     showgrid="false"
     inkscape:zoom="4.2909091"
     inkscape:cx="27.5"
     inkscape:cy="27.5"
     inkscape:window-x="20"
     inkscape:window-y="42"
     inkscape:window-maximized="0"
     inkscape:current-layer="svg5983" /><path
     style="color:#000000;font-style:normal;font-variant:normal;font-weight:normal;font-stretch:normal;font-size:medium;line-height:normal;font-family:sans-serif;text-indent:0;text-align:start;text-decoration:none;text-decoration-line:none;text-decoration-style:solid;text-decoration-color:#000000;letter-spacing:normal;word-spacing:normal;text-transform:none;direction:ltr;block-progression:tb;writing-mode:lr-tb;baseline-shift:baseline;text-anchor:start;white-space:normal;clip-rule:nonzero;display:inline;overflow:visible;visibility:visible;opacity:1;isolation:auto;mix-blend-mode:normal;color-interpolation:sRGB;color-interpolation-filters:linearRGB;solid-color:#000000;solid-opacity:1;fill-opacity:1;fill-rule:nonzero;stroke:none;stroke-width:1;stroke-linecap:butt;stroke-linejoin:miter;stroke-miterlimit:4;stroke-dasharray:none;stroke-dashoffset:0;stroke-opacity:1;color-rendering:auto;image-rendering:auto;shape-rendering:auto;text-rendering:auto;enable-background:accumulate"
     d="m 32.525391,24.402344 -0.01953,0.002 c -0.365125,0.02381 -0.715785,0.335 -0.71875,0.744141 -0.01836,3.033082 -2.556321,6.315144 -7.810547,9.658203 -0.345101,0.219724 -0.450033,0.690974 -0.230468,1.035156 0.139372,0.217769 0.385154,0.347656 0.632812,0.347656 0.131069,0 0.27856,-0.03697 0.410156,-0.125 5.52668,-3.518607 8.474486,-7.160531 8.498047,-10.90625 0.003,-0.408055 -0.337573,-0.752913 -0.74414,-0.755859 l -0.01758,0 z"
     id="path3474"
     inkscape:connector-curvature="0" /><path
     style="color:#000000;font-style:normal;font-variant:normal;font-weight:normal;font-stretch:normal;font-size:medium;line-height:normal;font-family:sans-serif;text-indent:0;text-align:start;text-decoration:none;text-decoration-line:none;text-decoration-style:solid;text-decoration-color:#000000;letter-spacing:normal;word-spacing:normal;text-transform:none;direction:ltr;block-progression:tb;writing-mode:lr-tb;baseline-shift:baseline;text-anchor:start;white-space:normal;clip-rule:nonzero;display:inline;overflow:visible;visibility:visible;opacity:1;isolation:auto;mix-blend-mode:normal;color-interpolation:sRGB;color-interpolation-filters:linearRGB;solid-color:#000000;solid-opacity:1;fill-opacity:1;fill-rule:nonzero;stroke:none;stroke-width:1;stroke-linecap:butt;stroke-linejoin:miter;stroke-miterlimit:4;stroke-dasharray:none;stroke-dashoffset:0;stroke-opacity:1;color-rendering:auto;image-rendering:auto;shape-rendering:auto;text-rendering:auto;enable-background:accumulate"
     d="m 27.683594,29.355469 c -0.395321,-0.05564 -0.787885,0.213315 -0.853516,0.625 -0.404378,2.518261 -1.308787,3.267566 -2.759766,4.560547 l -0.002,0 -0.287109,0.257812 c -0.30567,0.273026 -0.331074,0.755838 -0.05859,1.060547 0.147059,0.164705 0.356281,0.25 0.560547,0.25 0.176667,0 0.359975,-0.06422 0.501953,-0.191406 l 0,0.002 0.285156,-0.253906 c 1.472009,-1.311008 2.776809,-2.52646 3.246094,-5.447266 l 0,-0.002 c 0.06412,-0.402177 -0.221406,-0.796987 -0.625,-0.861328 l -0.0039,0 -0.0039,0 z"
     id="path3476"
     inkscape:connector-curvature="0" /><path
     style="color:#000000;font-style:normal;font-variant:normal;font-weight:normal;font-stretch:normal;font-size:medium;line-height:normal;font-family:sans-serif;text-indent:0;text-align:start;text-decoration:none;text-decoration-line:none;text-decoration-style:solid;text-decoration-color:#000000;letter-spacing:normal;word-spacing:normal;text-transform:none;direction:ltr;block-progression:tb;writing-mode:lr-tb;baseline-shift:baseline;text-anchor:start;white-space:normal;clip-rule:nonzero;display:inline;overflow:visible;visibility:visible;opacity:1;isolation:auto;mix-blend-mode:normal;color-interpolation:sRGB;color-interpolation-filters:linearRGB;solid-color:#000000;solid-opacity:1;fill-opacity:1;fill-rule:nonzero;stroke:none;stroke-width:1;stroke-linecap:butt;stroke-linejoin:miter;stroke-miterlimit:4;stroke-dasharray:none;stroke-dashoffset:0;stroke-opacity:1;color-rendering:auto;image-rendering:auto;shape-rendering:auto;text-rendering:auto;enable-background:accumulate"
     d="m 27.449219,18.869141 c -1.500236,-0.02409 -2.912361,0.546742 -3.97461,1.603515 -1.122554,1.11599 -1.730468,2.638273 -1.710937,4.263672 0.03804,3.26153 2.618137,5.975265 5.785156,6.03125 l 0.501953,0.0078 0.0078,-0.5 0.01367,-0.882813 -0.5,-0.0098 c -2.396138,-0.04293 -4.396756,-2.127968 -4.425782,-4.664062 -0.01454,-1.26625 0.447741,-2.41602 1.302735,-3.265625 0.802236,-0.796864 1.831991,-1.209599 2.976562,-1.201172 6.54e-4,1.2e-5 0.0013,-1.2e-5 0.002,0 2.395269,0.04404 4.395856,2.128559 4.425782,4.664063 l 0,0.002 c 8.16e-4,0.04899 0.001,0.102017 0,0.162109 l -0.0078,0.501953 1.382813,0.02148 0.0078,-0.5 c 9.89e-4,-0.06332 0.0011,-0.132294 0,-0.205078 l 0,-0.002 c -0.03906,-3.260757 -2.619902,-5.970272 -5.785156,-6.027343 l -0.002,0 z"
     id="path3478"
     inkscape:connector-curvature="0" /></svg>