<?xml version="1.0" encoding="utf-8"?>
<!-- Generator: Adobe Illustrator 16.0.3, SVG Export Plug-In . SVG Version: 6.00 Build 0)  -->
<!DOCTYPE svg PUBLIC "-//W3C//DTD SVG 1.1//EN" "http://www.w3.org/Graphics/SVG/1.1/DTD/svg11.dtd">
<svg version="1.1"
	 id="svg3000" xmlns:dc="http://purl.org/dc/elements/1.1/" xmlns:cc="http://creativecommons.org/ns#" xmlns:rdf="http://www.w3.org/1999/02/22-rdf-syntax-ns#" xmlns:svg="http://www.w3.org/2000/svg"
	 xmlns="http://www.w3.org/2000/svg" xmlns:xlink="http://www.w3.org/1999/xlink" x="0px" y="0px" width="55px" height="55px"
	 viewBox="0 0 55 55" enable-background="new 0 0 55 55" xml:space="preserve">
<circle cx="37.5" cy="33.104" r="4.5"/>
<path d="M37.5,44.604c-6.341,0-11.5-5.159-11.5-11.5c0-0.828,0.671-1.5,1.5-1.5c0.828,0,1.5,0.672,1.5,1.5
	c0,4.687,3.813,8.5,8.5,8.5s8.5-3.813,8.5-8.5v-2c0-0.828,0.672-1.5,1.5-1.5s1.5,0.672,1.5,1.5v2
	C49,39.444,43.841,44.604,37.5,44.604z"/>
<circle cx="17.5" cy="33.104" r="4.5"/>
<path d="M7.5,36.604c-0.829,0-1.5-0.672-1.5-1.5v-2c0-6.341,5.159-11.5,11.5-11.5S29,26.763,29,33.104c0,0.828-0.672,1.5-1.5,1.5
	c-0.829,0-1.5-0.672-1.5-1.5c0-4.687-3.813-8.5-8.5-8.5S9,28.417,9,33.104v2C9,35.932,8.329,36.604,7.5,36.604z"/>
<circle cx="28.346" cy="16.396" r="4.5"/>
</svg>
