<?xml version="1.0" encoding="utf-8"?>
<!-- Generator: Adobe Illustrator 16.0.3, SVG Export Plug-In . SVG Version: 6.00 Build 0)  -->
<!DOCTYPE svg PUBLIC "-//W3C//DTD SVG 1.1//EN" "http://www.w3.org/Graphics/SVG/1.1/DTD/svg11.dtd">
<svg version="1.1"
	 id="svg3190" xmlns:dc="http://purl.org/dc/elements/1.1/" xmlns:cc="http://creativecommons.org/ns#" xmlns:rdf="http://www.w3.org/1999/02/22-rdf-syntax-ns#" xmlns:svg="http://www.w3.org/2000/svg"
	 xmlns="http://www.w3.org/2000/svg" xmlns:xlink="http://www.w3.org/1999/xlink" x="0px" y="0px" width="55px" height="55px"
	 viewBox="0 0 55 55" enable-background="new 0 0 55 55" xml:space="preserve">
<ellipse cx="20.13" cy="9.465" rx="4.033" ry="3.917"/>
<polygon points="35.595,47.676 22.707,34.788 33.281,19.616 16.155,19.616 16.155,16.616 39.029,16.616 26.604,34.442 
	37.716,45.555 "/>
<rect x="18.655" y="18.116" width="3" height="31.5"/>
<path d="M35.655,46.615h1v-1L35.655,46.615z"/>
<polygon points="38.155,48.115 32.034,48.115 38.155,41.994 "/>
<rect x="26.15" y="4.468" transform="matrix(0.8324 0.5541 -0.5541 0.8324 10.0314 -13.2985)" width="1.71" height="10.94"/>
<path d="M31.558,9.588h7.347"/>
<path d="M38.904,11.088h-7.347c-0.828,0-1.5-0.671-1.5-1.5s0.672-1.5,1.5-1.5h7.347c0.828,0,1.5,0.671,1.5,1.5
	S39.732,11.088,38.904,11.088z"/>
<path d="M33.395,6.499l3.673,6.178"/>
<path d="M37.068,14.177c-0.512,0-1.01-0.262-1.29-0.733l-3.673-6.178c-0.424-0.712-0.189-1.633,0.522-2.056
	c0.712-0.422,1.633-0.188,2.056,0.523l3.673,6.178c0.424,0.712,0.189,1.633-0.522,2.056C37.594,14.109,37.329,14.177,37.068,14.177z
	"/>
<path d="M37.067,6.499l-3.673,6.178"/>
<path d="M33.394,14.177c-0.261,0-0.525-0.068-0.766-0.21c-0.712-0.423-0.946-1.344-0.522-2.056l3.673-6.178
	c0.423-0.711,1.344-0.945,2.056-0.523c0.712,0.423,0.946,1.344,0.522,2.056l-3.673,6.178C34.403,13.916,33.905,14.177,33.394,14.177
	z"/>
</svg>
