<?xml version="1.0" encoding="utf-8"?>
<!-- Generator: Adobe Illustrator 16.0.3, SVG Export Plug-In . SVG Version: 6.00 Build 0)  -->
<!DOCTYPE svg PUBLIC "-//W3C//DTD SVG 1.1//EN" "http://www.w3.org/Graphics/SVG/1.1/DTD/svg11.dtd">
<svg version="1.1"
	 id="svg3001" xmlns:dc="http://purl.org/dc/elements/1.1/" xmlns:cc="http://creativecommons.org/ns#" xmlns:rdf="http://www.w3.org/1999/02/22-rdf-syntax-ns#" xmlns:svg="http://www.w3.org/2000/svg"
	 xmlns="http://www.w3.org/2000/svg" xmlns:xlink="http://www.w3.org/1999/xlink" x="0px" y="0px" width="55px" height="55px"
	 viewBox="0 0 55 55" enable-background="new 0 0 55 55" xml:space="preserve">
<path d="M29.569,32.866c-0.151-3.112,0.885-6.053,2.92-8.281c1.876-2.055,4.404-3.25,7.12-3.363
	c5.827-0.24,10.819,4.576,11.122,10.746c0.007,0.16,0.012,0.319,0.014,0.478l-1.924,0.025c-0.002-0.137-0.005-0.274-0.012-0.411
	c-0.251-5.116-4.335-9.131-9.12-8.916c-2.199,0.092-4.252,1.064-5.78,2.738c-1.687,1.847-2.545,4.294-2.418,6.891L29.569,32.866z"/>
<path d="M4.259,32.85c-0.08-3.114,1.024-6.026,3.11-8.2c1.925-2.006,4.482-3.134,7.202-3.177c5.806-0.082,10.71,4.855,10.87,11.027
	l0.003,0.21l-1.923,0.014l-0.003-0.178c-0.132-5.119-4.12-9.191-8.917-9.15c-2.202,0.035-4.277,0.953-5.844,2.585
	c-1.728,1.801-2.642,4.222-2.575,6.82L4.259,32.85z"/>
</svg>
