<?xml version="1.0" encoding="utf-8"?>
<!-- Generator: Adobe Illustrator 16.0.3, SVG Export Plug-In . SVG Version: 6.00 Build 0)  -->
<!DOCTYPE svg PUBLIC "-//W3C//DTD SVG 1.1//EN" "http://www.w3.org/Graphics/SVG/1.1/DTD/svg11.dtd">
<svg version="1.1"
	 id="svg3006" xmlns:dc="http://purl.org/dc/elements/1.1/" xmlns:cc="http://creativecommons.org/ns#" xmlns:rdf="http://www.w3.org/1999/02/22-rdf-syntax-ns#" xmlns:svg="http://www.w3.org/2000/svg"
	 xmlns="http://www.w3.org/2000/svg" xmlns:xlink="http://www.w3.org/1999/xlink" x="0px" y="0px" width="55px" height="55px"
	 viewBox="0 0 55 55" enable-background="new 0 0 55 55" xml:space="preserve">
<path d="M16.413,15.455h9.256"/>
<path d="M25.669,16.955h-9.256c-0.829,0-1.5-0.671-1.5-1.5s0.671-1.5,1.5-1.5h9.256c0.829,0,1.5,0.671,1.5,1.5
	S26.498,16.955,25.669,16.955z"/>
<path d="M18.727,11.099l4.629,8.712"/>
<path d="M23.357,21.311c-0.537,0-1.057-0.29-1.326-0.797l-4.629-8.712c-0.389-0.731-0.111-1.64,0.621-2.028
	c0.733-0.388,1.64-0.11,2.028,0.621l4.629,8.712c0.389,0.731,0.111,1.64-0.621,2.028C23.835,21.254,23.594,21.311,23.357,21.311z"/>
<path d="M23.355,11.099l-4.629,8.712"/>
<path d="M18.725,21.311c-0.237,0-0.478-0.057-0.702-0.176c-0.732-0.389-1.01-1.297-0.621-2.028l4.629-8.712
	c0.389-0.731,1.298-1.009,2.028-0.621c0.732,0.389,1.01,1.297,0.621,2.028l-4.629,8.712C19.782,21.021,19.262,21.311,18.725,21.311z
	"/>
<path d="M27.064,47.736L16.297,22.401h21.535L27.064,47.736z M20.832,25.401l6.232,14.665l6.232-14.665H20.832z"/>
<rect x="21.064" y="28.401" width="12" height="3"/>
<path d="M29.331,15.343h9.256"/>
<path d="M38.587,16.843h-9.256c-0.828,0-1.5-0.671-1.5-1.5s0.672-1.5,1.5-1.5h9.256c0.828,0,1.5,0.671,1.5,1.5
	S39.415,16.843,38.587,16.843z"/>
<path d="M31.645,11.221l4.629,8.244"/>
<path d="M36.274,20.965c-0.524,0-1.034-0.276-1.309-0.766l-4.629-8.244c-0.406-0.722-0.149-1.637,0.573-2.042
	c0.722-0.405,1.638-0.149,2.042,0.574l4.629,8.244c0.406,0.722,0.149,1.637-0.573,2.042C36.775,20.903,36.523,20.965,36.274,20.965z
	"/>
<path d="M36.273,11.221l-4.629,8.244"/>
<path d="M31.644,20.965c-0.249,0-0.501-0.062-0.733-0.192c-0.723-0.406-0.979-1.32-0.573-2.042l4.629-8.244
	c0.405-0.723,1.319-0.98,2.042-0.574c0.723,0.406,0.979,1.32,0.573,2.042l-4.629,8.244C32.678,20.689,32.168,20.965,31.644,20.965z"
	/>
</svg>
