<?xml version="1.0" encoding="utf-8"?>
<!-- Generator: Adobe Illustrator 16.0.3, SVG Export Plug-In . SVG Version: 6.00 Build 0)  -->
<!DOCTYPE svg PUBLIC "-//W3C//DTD SVG 1.1//EN" "http://www.w3.org/Graphics/SVG/1.1/DTD/svg11.dtd">
<svg version="1.1"
	 id="svg3908" xmlns:dc="http://purl.org/dc/elements/1.1/" xmlns:cc="http://creativecommons.org/ns#" xmlns:rdf="http://www.w3.org/1999/02/22-rdf-syntax-ns#" xmlns:svg="http://www.w3.org/2000/svg"
	 xmlns="http://www.w3.org/2000/svg" xmlns:xlink="http://www.w3.org/1999/xlink" x="0px" y="0px" width="55px" height="55px"
	 viewBox="0 0 55 55" enable-background="new 0 0 55 55" xml:space="preserve">
<path d="M37.514,39.113c-3.07,0-5.956-1.195-8.128-3.365c-2.173-2.172-3.37-5.06-3.371-8.131c0-0.829,0.671-1.5,1.5-1.5h0
	c0.828,0,1.5,0.671,1.5,1.5c0.001,2.271,0.886,4.405,2.491,6.01c1.605,1.604,3.739,2.487,6.008,2.487c0.001,0,0.002,0,0.003,0
	c4.686-0.002,8.497-3.813,8.498-8.498v-2c0-0.829,0.672-1.5,1.5-1.5s1.5,0.671,1.5,1.5v2c-0.001,6.337-5.158,11.495-11.496,11.497
	C37.517,39.113,37.516,39.113,37.514,39.113z"/>
<circle cx="17.223" cy="28.896" r="3.85"/>
<path d="M14.423,29.945c-0.58,0-1.05-0.47-1.05-1.05c0-2.781,1.471-5.507,3.934-7.29c0.469-0.341,1.125-0.235,1.466,0.235
	c0.34,0.47,0.235,1.126-0.235,1.466c-1.891,1.369-3.066,3.51-3.066,5.589C15.473,29.476,15.003,29.945,14.423,29.945z"/>
<path d="M7.485,30.884c-0.829,0-1.5-0.672-1.5-1.5v-2c0.001-6.338,5.159-11.496,11.497-11.497c0.001,0,0.003,0,0.004,0
	c3.07,0,5.957,1.195,8.128,3.366c2.173,2.171,3.37,5.059,3.371,8.131c0,0.829-0.671,1.5-1.5,1.5h0c-0.828,0-1.5-0.671-1.5-1.5
	c0-2.271-0.885-4.405-2.491-6.01c-1.605-1.604-3.739-2.487-6.008-2.487c-0.001,0-0.002,0-0.003,0
	c-4.685,0.001-8.496,3.813-8.498,8.498v2C8.985,30.212,8.314,30.884,7.485,30.884z"/>
</svg>
