<?xml version="1.0" encoding="utf-8"?>
<!-- Generator: Adobe Illustrator 16.0.3, SVG Export Plug-In . SVG Version: 6.00 Build 0)  -->
<!DOCTYPE svg PUBLIC "-//W3C//DTD SVG 1.1//EN" "http://www.w3.org/Graphics/SVG/1.1/DTD/svg11.dtd">
<svg version="1.1"
	 id="svg3001" xmlns:dc="http://purl.org/dc/elements/1.1/" xmlns:cc="http://creativecommons.org/ns#" xmlns:rdf="http://www.w3.org/1999/02/22-rdf-syntax-ns#" xmlns:svg="http://www.w3.org/2000/svg"
	 xmlns="http://www.w3.org/2000/svg" xmlns:xlink="http://www.w3.org/1999/xlink" x="0px" y="0px" width="55px" height="55px"
	 viewBox="0 0 55 55" enable-background="new 0 0 55 55" xml:space="preserve">
<path d="M12.853,34.352c-0.106-3.809,1.29-7.423,3.93-10.178c2.701-2.818,6.369-4.402,10.329-4.459
	c0.073-0.001,0.146-0.002,0.218-0.002c7.973,0,14.599,6.322,14.818,14.191l0.005,0.278h-1.924l-0.003-0.229
	c-0.19-6.828-5.957-12.316-12.896-12.316c-0.064,0-0.127,0-0.19,0.001c-3.441,0.05-6.625,1.423-8.968,3.867
	c-2.282,2.38-3.488,5.503-3.396,8.794L12.853,34.352z"/>
</svg>
