<?xml version="1.0" encoding="utf-8"?>
<!-- Generator: Adobe Illustrator 16.0.3, SVG Export Plug-In . SVG Version: 6.00 Build 0)  -->
<!DOCTYPE svg PUBLIC "-//W3C//DTD SVG 1.1//EN" "http://www.w3.org/Graphics/SVG/1.1/DTD/svg11.dtd">
<svg version="1.1"
	 id="svg4041" xmlns:dc="http://purl.org/dc/elements/1.1/" xmlns:cc="http://creativecommons.org/ns#" xmlns:rdf="http://www.w3.org/1999/02/22-rdf-syntax-ns#" xmlns:svg="http://www.w3.org/2000/svg"
	 xmlns="http://www.w3.org/2000/svg" xmlns:xlink="http://www.w3.org/1999/xlink" x="0px" y="0px" width="55px" height="55px"
	 viewBox="0 0 55 55" enable-background="new 0 0 55 55" xml:space="preserve">
<ellipse cx="27.733" cy="14.341" rx="1.867" ry="1.912"/>
<path d="M36.999,19.802H18.466l9.267-16.437L36.999,19.802z M23.602,16.802h8.262l-4.131-7.328L23.602,16.802z"/>
<ellipse cx="14.333" cy="29.005" rx="1.867" ry="1.912"/>
<path d="M23.599,34.466H5.066l9.267-16.437L23.599,34.466z M10.202,31.466h8.262l-4.131-7.328L10.202,31.466z"/>
<ellipse cx="40.668" cy="29.005" rx="1.866" ry="1.912"/>
<path d="M49.934,34.466H31.401l9.267-16.437L49.934,34.466z M36.536,31.466h8.263l-4.131-7.328L36.536,31.466z"/>
<ellipse cx="27.616" cy="44.619" rx="1.867" ry="1.912"/>
<path d="M36.883,50.08H18.351l9.266-16.438L36.883,50.08z M23.485,47.08h8.263l-4.132-7.328L23.485,47.08z"/>
</svg>
