<?xml version="1.0" encoding="utf-8"?>
<!-- Generator: Adobe Illustrator 16.0.3, SVG Export Plug-In . SVG Version: 6.00 Build 0)  -->
<!DOCTYPE svg PUBLIC "-//W3C//DTD SVG 1.1//EN" "http://www.w3.org/Graphics/SVG/1.1/DTD/svg11.dtd">
<svg version="1.1"
	 id="svg5983" xmlns:dc="http://purl.org/dc/elements/1.1/" xmlns:cc="http://creativecommons.org/ns#" xmlns:rdf="http://www.w3.org/1999/02/22-rdf-syntax-ns#" xmlns:svg="http://www.w3.org/2000/svg"
	 xmlns="http://www.w3.org/2000/svg" xmlns:xlink="http://www.w3.org/1999/xlink" x="0px" y="0px" width="55px" height="55px"
	 viewBox="0 0 55 55" enable-background="new 0 0 55 55" xml:space="preserve">
<path d="M24.378,35.689c-0.083,0-0.163-0.041-0.211-0.116c-0.074-0.116-0.04-0.271,0.077-0.345
	c5.317-3.383,8.023-6.772,8.043-10.076c0.001-0.138,0.114-0.24,0.252-0.249c0.138,0.001,0.249,0.113,0.248,0.251
	c-0.021,3.484-2.806,7.015-8.275,10.495C24.471,35.677,24.424,35.689,24.378,35.689z"/>
<path d="M24.284,35.61c-0.069,0-0.138-0.028-0.188-0.084c-0.093-0.104-0.084-0.263,0.019-0.355l0.287-0.256
	c1.451-1.293,2.5-2.228,2.922-4.856c0.022-0.138,0.154-0.228,0.289-0.209c0.138,0.022,0.231,0.151,0.209,0.289
	c-0.451,2.807-1.613,3.842-3.085,5.153l-0.285,0.254C24.404,35.589,24.344,35.61,24.284,35.61z"/>
<path d="M27.558,30.267c-2.885-0.051-5.26-2.535-5.295-5.536c-0.018-1.498,0.538-2.884,1.564-3.904
	c0.97-0.965,2.245-1.48,3.615-1.458c2.884,0.052,5.26,2.535,5.295,5.536c0.001,0.063,0,0.126-0.001,0.19l-0.383-0.006
	c0.001-0.06,0.002-0.119,0.001-0.179c-0.033-2.796-2.24-5.11-4.919-5.158c-1.272-0.011-2.442,0.456-3.338,1.346
	c-0.952,0.946-1.467,2.234-1.451,3.627c0.032,2.796,2.239,5.11,4.918,5.158L27.558,30.267z"/>
</svg>
