<?xml version="1.0" encoding="utf-8"?>
<!-- Generator: Adobe Illustrator 16.0.3, SVG Export Plug-In . SVG Version: 6.00 Build 0)  -->
<!DOCTYPE svg PUBLIC "-//W3C//DTD SVG 1.1//EN" "http://www.w3.org/Graphics/SVG/1.1/DTD/svg11.dtd">
<svg version="1.1"
	 id="svg3847" xmlns:dc="http://purl.org/dc/elements/1.1/" xmlns:cc="http://creativecommons.org/ns#" xmlns:rdf="http://www.w3.org/1999/02/22-rdf-syntax-ns#" xmlns:svg="http://www.w3.org/2000/svg"
	 xmlns="http://www.w3.org/2000/svg" xmlns:xlink="http://www.w3.org/1999/xlink" x="0px" y="0px" width="55px" height="55px"
	 viewBox="0 0 55 55" enable-background="new 0 0 55 55" xml:space="preserve">
<circle cx="38.5" cy="29.35" r="5.5"/>
<path d="M34.5,30.85c-0.828,0-1.5-0.672-1.5-1.5c0-3.973,2.101-7.867,5.62-10.415c0.671-0.487,1.609-0.335,2.095,0.335
	c0.486,0.671,0.336,1.609-0.335,2.095C37.678,23.321,36,26.38,36,29.35C36,30.178,35.328,30.85,34.5,30.85z"/>
<circle cx="16.5" cy="29.35" r="5.5"/>
<path d="M12.5,30.85c-0.829,0-1.5-0.672-1.5-1.5c0-3.973,2.101-7.866,5.62-10.415c0.671-0.487,1.608-0.335,2.095,0.335
	c0.486,0.671,0.336,1.609-0.335,2.095C15.678,23.321,14,26.381,14,29.35C14,30.178,13.329,30.85,12.5,30.85z"/>
<circle cx="27.5" cy="18.35" r="5.5"/>
<path d="M23.5,19.85c-0.829,0-1.5-0.671-1.5-1.5c0-3.973,2.101-7.867,5.62-10.415c0.67-0.485,1.609-0.336,2.095,0.335
	c0.486,0.671,0.336,1.609-0.335,2.095C26.678,12.321,25,15.381,25,18.35C25,19.179,24.329,19.85,23.5,19.85z"/>
<circle cx="27.5" cy="40.35" r="5.5"/>
<path d="M23.5,41.85c-0.829,0-1.5-0.672-1.5-1.5c0-3.973,2.101-7.866,5.62-10.414c0.672-0.486,1.609-0.336,2.095,0.335
	c0.486,0.671,0.336,1.609-0.335,2.095C26.678,34.321,25,37.381,25,40.35C25,41.178,24.329,41.85,23.5,41.85z"/>
</svg>
