<?xml version="1.0" encoding="utf-8"?>
<!-- Generator: Adobe Illustrator 16.0.3, SVG Export Plug-In . SVG Version: 6.00 Build 0)  -->
<!DOCTYPE svg PUBLIC "-//W3C//DTD SVG 1.1//EN" "http://www.w3.org/Graphics/SVG/1.1/DTD/svg11.dtd">
<svg version="1.1"
	 id="svg3001" xmlns:dc="http://purl.org/dc/elements/1.1/" xmlns:cc="http://creativecommons.org/ns#" xmlns:rdf="http://www.w3.org/1999/02/22-rdf-syntax-ns#" xmlns:svg="http://www.w3.org/2000/svg"
	 xmlns="http://www.w3.org/2000/svg" xmlns:xlink="http://www.w3.org/1999/xlink" x="0px" y="0px" width="55px" height="55px"
	 viewBox="0 0 55 55" enable-background="new 0 0 55 55" xml:space="preserve">
<path d="M29.569,32.737c-0.151-3.112,0.885-6.054,2.92-8.282c1.876-2.055,4.404-3.25,7.12-3.363
	c5.827-0.251,10.819,4.576,11.122,10.746c0.007,0.162,0.012,0.319,0.014,0.479l-1.924,0.025c-0.002-0.138-0.005-0.275-0.012-0.413
	c-0.251-5.114-4.335-9.122-9.12-8.915c-2.199,0.092-4.252,1.064-5.78,2.738c-1.687,1.847-2.545,4.294-2.418,6.891L29.569,32.737z"/>
<path d="M4.259,32.721c-0.08-3.114,1.024-6.027,3.11-8.201c1.925-2.006,4.482-3.134,7.202-3.177
	c5.806-0.113,10.71,4.854,10.87,11.028l0.003,0.208l-1.923,0.016l-0.003-0.177c-0.131-5.074-4.061-9.153-8.788-9.153
	c-0.043,0-0.086,0-0.129,0.001c-2.202,0.035-4.277,0.953-5.844,2.585c-1.728,1.801-2.642,4.223-2.575,6.82L4.259,32.721z"/>
<path d="M17.077,18.039c-0.08-3.114,1.024-6.027,3.11-8.201c1.925-2.006,4.482-3.134,7.202-3.177
	c5.849-0.105,10.71,4.854,10.868,11.027l0.005,0.202l-1.924,0.029l-0.003-0.177c-0.131-5.081-4.061-9.159-8.787-9.159
	c-0.043,0-0.086,0-0.129,0.001c-2.202,0.035-4.277,0.953-5.844,2.585c-1.728,1.801-2.642,4.223-2.575,6.819L17.077,18.039z"/>
<path d="M16.145,47.403c-0.08-3.114,1.025-6.027,3.111-8.201c1.925-2.006,4.482-3.134,7.201-3.177c0.053,0,0.106-0.001,0.159-0.001
	c5.764,0,10.553,4.912,10.71,11.028l0.004,0.217h-1.924l-0.002-0.163c-0.132-5.126-4.146-9.235-8.917-9.157
	c-2.202,0.034-4.277,0.952-5.843,2.585c-1.728,1.801-2.643,4.223-2.576,6.82L16.145,47.403z"/>
</svg>
