<?xml version="1.0" encoding="utf-8"?>
<!-- Generator: Adobe Illustrator 16.0.3, SVG Export Plug-In . SVG Version: 6.00 Build 0)  -->
<!DOCTYPE svg PUBLIC "-//W3C//DTD SVG 1.1//EN" "http://www.w3.org/Graphics/SVG/1.1/DTD/svg11.dtd">
<svg version="1.1"
	 id="svg2" xmlns:dc="http://purl.org/dc/elements/1.1/" xmlns:cc="http://creativecommons.org/ns#" xmlns:rdf="http://www.w3.org/1999/02/22-rdf-syntax-ns#" xmlns:svg="http://www.w3.org/2000/svg"
	 xmlns="http://www.w3.org/2000/svg" xmlns:xlink="http://www.w3.org/1999/xlink" x="0px" y="0px" width="55px" height="55px"
	 viewBox="0 0 55 55" enable-background="new 0 0 55 55" xml:space="preserve">
<circle cx="27.5" cy="17.4" r="5.5"/>
<path d="M26.501,28.101c-0.465,0-0.923-0.216-1.216-0.621c-0.486-0.671-0.336-1.609,0.335-2.095C28.322,23.429,30,20.369,30,17.4
	c0-0.829,0.672-1.5,1.5-1.5s1.5,0.671,1.5,1.5c0,3.974-2.101,7.867-5.62,10.415C27.114,28.008,26.806,28.101,26.501,28.101z"/>
<circle cx="37.026" cy="33.9" r="5.5"/>
<path d="M36.027,44.6c-0.465,0-0.923-0.215-1.216-0.62c-0.486-0.671-0.336-1.609,0.335-2.095c2.701-1.956,4.38-5.016,4.38-7.984
	c0-0.828,0.672-1.5,1.5-1.5s1.5,0.672,1.5,1.5c0,3.973-2.101,7.865-5.62,10.414C36.641,44.507,36.332,44.6,36.027,44.6z"/>
<circle cx="17.974" cy="33.9" r="5.5"/>
<path d="M16.975,44.6c-0.465,0-0.923-0.215-1.216-0.62c-0.486-0.671-0.336-1.609,0.335-2.095c2.702-1.956,4.38-5.016,4.38-7.984
	c0-0.828,0.671-1.5,1.5-1.5s1.5,0.672,1.5,1.5c0,3.973-2.101,7.866-5.62,10.414C17.587,44.507,17.28,44.6,16.975,44.6z"/>
</svg>
