<?xml version="1.0" encoding="utf-8"?>
<!-- Generator: Adobe Illustrator 16.0.3, SVG Export Plug-In . SVG Version: 6.00 Build 0)  -->
<!DOCTYPE svg PUBLIC "-//W3C//DTD SVG 1.1//EN" "http://www.w3.org/Graphics/SVG/1.1/DTD/svg11.dtd">
<svg version="1.1"
	 id="svg3190" xmlns:dc="http://purl.org/dc/elements/1.1/" xmlns:cc="http://creativecommons.org/ns#" xmlns:rdf="http://www.w3.org/1999/02/22-rdf-syntax-ns#" xmlns:svg="http://www.w3.org/2000/svg"
	 xmlns="http://www.w3.org/2000/svg" xmlns:xlink="http://www.w3.org/1999/xlink" x="0px" y="0px" width="55px" height="55px"
	 viewBox="0 0 55 55" enable-background="new 0 0 55 55" xml:space="preserve">
<polygon points="36.689,47.119 23.801,34.231 34.376,19.059 17.25,19.059 17.25,16.059 40.124,16.059 27.699,33.886 38.811,44.998 
	"/>
<rect x="19.75" y="17.559" width="3" height="31.5"/>
<path d="M36.75,46.059h1v-1L36.75,46.059z"/>
<polygon points="39.25,47.559 33.129,47.559 39.25,41.438 "/>
<path d="M25.428,9.031h7.348"/>
<path d="M32.775,10.531h-7.348c-0.829,0-1.5-0.671-1.5-1.5s0.671-1.5,1.5-1.5h7.348c0.828,0,1.5,0.671,1.5,1.5
	S33.604,10.531,32.775,10.531z"/>
<path d="M27.265,5.941l3.673,6.179"/>
<path d="M30.938,13.62c-0.512,0-1.01-0.262-1.29-0.733l-3.673-6.179c-0.423-0.712-0.189-1.633,0.523-2.056
	c0.713-0.422,1.633-0.188,2.056,0.523l3.673,6.179c0.424,0.712,0.189,1.633-0.522,2.056C31.464,13.552,31.199,13.62,30.938,13.62z"
	/>
<path d="M30.938,5.941l-3.673,6.179"/>
<path d="M27.263,13.62c-0.261,0-0.524-0.068-0.765-0.21c-0.712-0.423-0.946-1.344-0.523-2.056l3.673-6.179
	c0.423-0.712,1.345-0.946,2.056-0.523c0.712,0.423,0.946,1.344,0.522,2.056l-3.673,6.179C28.273,13.358,27.775,13.62,27.263,13.62z"
	/>
</svg>
