<?xml version="1.0" encoding="UTF-8" standalone="no"?>
<!-- Generator: Adobe Illustrator 16.0.3, SVG Export Plug-In . SVG Version: 6.00 Build 0)  -->

<svg
   xmlns:dc="http://purl.org/dc/elements/1.1/"
   xmlns:cc="http://creativecommons.org/ns#"
   xmlns:rdf="http://www.w3.org/1999/02/22-rdf-syntax-ns#"
   xmlns:svg="http://www.w3.org/2000/svg"
   xmlns="http://www.w3.org/2000/svg"
   xmlns:sodipodi="http://sodipodi.sourceforge.net/DTD/sodipodi-0.dtd"
   xmlns:inkscape="http://www.inkscape.org/namespaces/inkscape"
   version="1.1"
   id="svg2997"
   x="0px"
   y="0px"
   width="55px"
   height="55px"
   viewBox="0 0 55 55"
   enable-background="new 0 0 55 55"
   xml:space="preserve"
   inkscape:version="0.91 r13725"
   sodipodi:docname="WeatherSymbol_WMO_PresentWeatherAutomaticStation_wawa_05.svg"><metadata
     id="metadata4371"><rdf:RDF><cc:Work
         rdf:about=""><dc:format>image/svg+xml</dc:format><dc:type
           rdf:resource="http://purl.org/dc/dcmitype/StillImage" /></cc:Work></rdf:RDF></metadata><defs
     id="defs4369" /><sodipodi:namedview
     pagecolor="#ffffff"
     bordercolor="#666666"
     borderopacity="1"
     objecttolerance="10"
     gridtolerance="10"
     guidetolerance="10"
     inkscape:pageopacity="0"
     inkscape:pageshadow="2"
     inkscape:window-width="640"
     inkscape:window-height="480"
     id="namedview4367"
     showgrid="false"
     inkscape:zoom="28.885754"
     inkscape:cx="27.374473"
     inkscape:cy="28.009611"
     inkscape:window-x="60"
     inkscape:window-y="126"
     inkscape:window-maximized="0"
     inkscape:current-layer="svg2997" /><g
     id="path3001"><path
       d="M 27.382812 2.28125 C 24.899812 2.28125 22.504547 3.7543125 20.810547 6.3203125 C 19.211547 8.7413125 18.291156 12.073844 18.285156 15.464844 C 18.279156 18.854844 19.188344 22.195953 20.777344 24.626953 C 21.603169 25.890842 22.599729 26.886383 23.691406 27.582031 C 22.706497 28.25867 21.802168 29.174895 21.042969 30.324219 C 19.444969 32.745219 18.523578 36.07775 18.517578 39.46875 C 18.511578 42.85875 19.420766 46.196859 21.009766 48.630859 C 22.700766 51.218859 25.098844 52.70875 27.589844 52.71875 L 27.617188 52.71875 C 30.101187 52.71875 32.495453 51.245686 34.189453 48.679688 C 35.787453 46.258688 36.708844 42.926156 36.714844 39.535156 C 36.719844 36.145156 35.811656 32.805047 34.222656 30.373047 C 33.397858 29.109983 32.400836 28.115489 31.306641 27.419922 C 32.292674 26.74339 33.197705 25.825976 33.957031 24.675781 C 35.554031 22.256781 36.473469 18.92325 36.480469 15.53125 C 36.486469 12.14025 35.578281 8.8021406 33.988281 6.3691406 C 32.297281 3.7811406 29.899812 2.29125 27.382812 2.28125 z M 27.398438 4.7148438 C 29.032438 4.7208437 30.735125 5.8362187 31.953125 7.6992188 C 33.271125 9.7152187 34.056781 12.642344 34.050781 15.527344 C 34.045781 18.414344 33.250734 21.332937 31.927734 23.335938 C 30.883734 24.917937 29.487938 25.953797 28.085938 26.216797 L 27.494141 26.216797 C 27.348141 26.216797 27.232953 26.237437 27.126953 26.273438 C 25.566953 26.164438 23.9705 25.069875 22.8125 23.296875 C 21.4945 21.281875 20.711797 18.35475 20.716797 15.46875 C 20.721797 12.58275 21.513891 9.6641562 22.837891 7.6601562 C 24.073891 5.7881563 25.730438 4.7148438 27.398438 4.7148438 z "
       id="path4357" /></g><g
     id="g4359" /><g
     id="g4363" /></svg>