<?xml version="1.0" encoding="utf-8"?>
<!-- Generator: Adobe Illustrator 16.0.3, SVG Export Plug-In . SVG Version: 6.00 Build 0)  -->
<!DOCTYPE svg PUBLIC "-//W3C//DTD SVG 1.1//EN" "http://www.w3.org/Graphics/SVG/1.1/DTD/svg11.dtd">
<svg version="1.1"
	 id="svg3001" xmlns:dc="http://purl.org/dc/elements/1.1/" xmlns:cc="http://creativecommons.org/ns#" xmlns:rdf="http://www.w3.org/1999/02/22-rdf-syntax-ns#" xmlns:svg="http://www.w3.org/2000/svg"
	 xmlns="http://www.w3.org/2000/svg" xmlns:xlink="http://www.w3.org/1999/xlink" x="0px" y="0px" width="55px" height="55px"
	 viewBox="0 0 55 55" enable-background="new 0 0 55 55" xml:space="preserve">
<circle cx="18" cy="29.35" r="5.5"/>
<path d="M14,30.85c-0.829,0-1.5-0.672-1.5-1.5c0-3.973,2.101-7.866,5.62-10.415c0.672-0.487,1.608-0.335,2.095,0.335
	c0.486,0.671,0.336,1.609-0.335,2.095c-2.702,1.957-4.38,5.016-4.38,7.985C15.5,30.178,14.829,30.85,14,30.85z"/>
<circle cx="37" cy="29.35" r="5.5"/>
<path d="M33,30.85c-0.828,0-1.5-0.672-1.5-1.5c0-3.973,2.101-7.867,5.62-10.415c0.67-0.487,1.608-0.335,2.095,0.335
	c0.486,0.671,0.336,1.609-0.335,2.095c-2.702,1.956-4.38,5.016-4.38,7.985C34.5,30.178,33.828,30.85,33,30.85z"/>
</svg>
