<?xml version="1.0" encoding="utf-8"?>
<!-- Generator: Adobe Illustrator 16.0.3, SVG Export Plug-In . SVG Version: 6.00 Build 0)  -->
<!DOCTYPE svg PUBLIC "-//W3C//DTD SVG 1.1//EN" "http://www.w3.org/Graphics/SVG/1.1/DTD/svg11.dtd">
<svg version="1.1"
	 id="svg3908" xmlns:dc="http://purl.org/dc/elements/1.1/" xmlns:cc="http://creativecommons.org/ns#" xmlns:rdf="http://www.w3.org/1999/02/22-rdf-syntax-ns#" xmlns:svg="http://www.w3.org/2000/svg"
	 xmlns="http://www.w3.org/2000/svg" xmlns:xlink="http://www.w3.org/1999/xlink" x="0px" y="0px" width="55px" height="55px"
	 viewBox="0 0 55 55" enable-background="new 0 0 55 55" xml:space="preserve">
<path d="M37.5,45.691c-6.341,0-11.5-5.159-11.5-11.5c0-0.828,0.671-1.5,1.5-1.5c0.828,0,1.5,0.672,1.5,1.5
	c0,4.687,3.813,8.5,8.5,8.5s8.5-3.813,8.5-8.5v-2c0-0.828,0.672-1.5,1.5-1.5s1.5,0.672,1.5,1.5v2
	C49,40.532,43.841,45.691,37.5,45.691z"/>
<circle cx="17.5" cy="34.191" r="3.85"/>
<path d="M16.401,42.131c-0.465,0-0.923-0.215-1.216-0.62c-0.486-0.671-0.336-1.608,0.335-2.095c1.776-1.287,2.88-3.289,2.88-5.225
	c0-0.828,0.671-1.5,1.5-1.5s1.5,0.672,1.5,1.5c0,2.924-1.54,5.785-4.12,7.654C17.014,42.038,16.706,42.131,16.401,42.131z"/>
<circle cx="37.5" cy="34.191" r="3.85"/>
<path d="M36.402,42.131c-0.464,0-0.922-0.215-1.216-0.62c-0.486-0.671-0.336-1.608,0.335-2.095c1.776-1.287,2.88-3.289,2.88-5.225
	c0-0.828,0.672-1.5,1.5-1.5s1.5,0.672,1.5,1.5c0,2.924-1.54,5.785-4.12,7.654C37.016,42.038,36.708,42.131,36.402,42.131z"/>
<path d="M7.5,37.691c-0.829,0-1.5-0.672-1.5-1.5v-2c0-6.341,5.159-11.5,11.5-11.5S29,27.85,29,34.191c0,0.828-0.672,1.5-1.5,1.5
	c-0.829,0-1.5-0.672-1.5-1.5c0-4.688-3.813-8.5-8.5-8.5S9,29.504,9,34.191v2C9,37.02,8.329,37.691,7.5,37.691z"/>
<circle cx="28.432" cy="14.659" r="3.85"/>
<path d="M27.333,22.599c-0.465,0-0.923-0.215-1.216-0.62c-0.486-0.671-0.336-1.608,0.335-2.095c1.778-1.287,2.882-3.289,2.882-5.225
	c0-0.829,0.672-1.5,1.5-1.5s1.5,0.671,1.5,1.5c0,2.924-1.54,5.786-4.12,7.655C27.948,22.506,27.639,22.599,27.333,22.599z"/>
</svg>
