<?xml version="1.0" encoding="utf-8"?>
<!-- Generator: Adobe Illustrator 16.0.3, SVG Export Plug-In . SVG Version: 6.00 Build 0)  -->
<!DOCTYPE svg PUBLIC "-//W3C//DTD SVG 1.1//EN" "http://www.w3.org/Graphics/SVG/1.1/DTD/svg11.dtd">
<svg version="1.1"
	 id="svg2997" xmlns:dc="http://purl.org/dc/elements/1.1/" xmlns:cc="http://creativecommons.org/ns#" xmlns:rdf="http://www.w3.org/1999/02/22-rdf-syntax-ns#" xmlns:svg="http://www.w3.org/2000/svg"
	 xmlns="http://www.w3.org/2000/svg" xmlns:xlink="http://www.w3.org/1999/xlink" x="0px" y="0px" width="55px" height="55px"
	 viewBox="0 0 55 55" enable-background="new 0 0 55 55" xml:space="preserve">
<g id="path3001">
	<path d="M27.384,28.714C27.384,28.714,27.384,28.714,27.384,28.714h-0.027c-2.49-0.01-4.889-1.5-6.58-4.088
		c-1.589-2.431-2.498-5.771-2.492-9.161c0.006-3.391,0.926-6.724,2.525-9.145c1.694-2.566,4.09-4.038,6.573-4.038
		c2.517,0.01,4.915,1.499,6.606,4.087c1.59,2.433,2.498,5.772,2.492,9.163c-0.007,3.392-0.927,6.725-2.524,9.144
		C32.263,27.242,29.867,28.714,27.384,28.714z M27.399,4.714c-1.668,0-3.325,1.074-4.561,2.946
		c-1.324,2.004-2.117,4.923-2.122,7.809c-0.005,2.886,0.778,5.812,2.096,7.827c1.158,1.773,2.755,2.869,4.315,2.978
		c0.106-0.036,0.222-0.058,0.368-0.058h0.59c1.402-0.263,2.799-1.298,3.843-2.88c1.323-2.003,2.117-4.922,2.122-7.809
		c0.006-2.885-0.778-5.812-2.096-7.828C30.736,5.836,29.033,4.72,27.399,4.714z"/>
</g>
<g>
	<path d="M27.596,51.502c2.063,0.009,4.117-1.276,5.58-3.492c1.463-2.215,2.318-5.334,2.323-8.477
		c0.005-3.142-0.839-6.268-2.294-8.494c-1.455-2.228-3.504-3.529-5.568-3.537c-2.063-0.009-4.117,1.276-5.58,3.492
		c-1.463,2.216-2.318,5.335-2.323,8.477s0.839,6.268,2.294,8.495C23.483,50.193,25.532,51.494,27.596,51.502 M27.596,51.502
		C27.596,51.502,27.894,51.353,27.596,51.502"/>
</g>
<g>
	<path d="M27.617,52.718C27.617,52.718,27.617,52.718,27.617,52.718H27.59c-2.491-0.01-4.889-1.499-6.58-4.087
		c-1.589-2.434-2.498-5.772-2.492-9.162c0.006-3.391,0.926-6.724,2.524-9.145c1.695-2.566,4.091-4.038,6.574-4.038
		c2.517,0.01,4.916,1.5,6.606,4.088c1.589,2.432,2.497,5.771,2.492,9.161c-0.006,3.391-0.926,6.724-2.524,9.145
		C32.496,51.246,30.101,52.718,27.617,52.718z M27.633,28.718c-1.668,0-3.325,1.074-4.562,2.946
		c-1.324,2.005-2.117,4.924-2.122,7.809s0.778,5.812,2.096,7.828c1.158,1.772,2.755,2.868,4.315,2.977
		c0.106-0.035,0.222-0.058,0.368-0.058h0.589c1.403-0.264,2.8-1.299,3.844-2.88c1.324-2.005,2.118-4.924,2.122-7.809
		c0.005-2.886-0.779-5.813-2.096-7.827C30.97,29.84,29.268,28.724,27.633,28.718z"/>
</g>
</svg>
