<?xml version="1.0" encoding="utf-8"?>
<!-- Generator: Adobe Illustrator 16.0.3, SVG Export Plug-In . SVG Version: 6.00 Build 0)  -->
<!DOCTYPE svg PUBLIC "-//W3C//DTD SVG 1.1//EN" "http://www.w3.org/Graphics/SVG/1.1/DTD/svg11.dtd">
<svg version="1.1"
	 id="svg3000" xmlns:dc="http://purl.org/dc/elements/1.1/" xmlns:cc="http://creativecommons.org/ns#" xmlns:rdf="http://www.w3.org/1999/02/22-rdf-syntax-ns#" xmlns:svg="http://www.w3.org/2000/svg"
	 xmlns="http://www.w3.org/2000/svg" xmlns:xlink="http://www.w3.org/1999/xlink" x="0px" y="0px" width="55px" height="55px"
	 viewBox="0 0 55 55" enable-background="new 0 0 55 55" xml:space="preserve">
<path d="M41.961,34.252c-0.384,0-0.768-0.146-1.061-0.439l-10-10c-0.586-0.585-0.586-1.535,0-2.121s1.535-0.586,2.121,0l10,10
	c0.586,0.586,0.586,1.535,0,2.121C42.729,34.105,42.345,34.252,41.961,34.252z"/>
<path d="M31.961,34.252c-0.384,0-0.768-0.146-1.061-0.439c-0.586-0.586-0.586-1.535,0-2.121l10-10c0.586-0.586,1.535-0.586,2.121,0
	s0.586,1.536,0,2.121l-10,10C32.729,34.105,32.345,34.252,31.961,34.252z"/>
<path d="M23.039,34.252c-0.384,0-0.768-0.146-1.061-0.439l-10-10c-0.586-0.585-0.586-1.535,0-2.121s1.535-0.586,2.121,0l10,10
	c0.586,0.586,0.586,1.535,0,2.121C23.807,34.105,23.423,34.252,23.039,34.252z"/>
<path d="M13.039,34.252c-0.384,0-0.768-0.146-1.061-0.439c-0.586-0.586-0.586-1.535,0-2.121l10-10c0.586-0.586,1.535-0.586,2.121,0
	s0.586,1.536,0,2.121l-10,10C13.807,34.105,13.423,34.252,13.039,34.252z"/>
<path d="M33.005,20.25c-0.384,0-0.768-0.146-1.061-0.439l-10-10c-0.586-0.585-0.586-1.536,0-2.121c0.586-0.586,1.535-0.586,2.121,0
	l10,10c0.586,0.585,0.586,1.536,0,2.121C33.772,20.104,33.389,20.25,33.005,20.25z"/>
<path d="M23.005,20.25c-0.384,0-0.768-0.146-1.061-0.439c-0.586-0.585-0.586-1.536,0-2.121l10-10c0.586-0.586,1.535-0.586,2.121,0
	c0.586,0.585,0.586,1.536,0,2.121l-10,10C23.772,20.104,23.389,20.25,23.005,20.25z"/>
<path d="M33.005,47.75c-0.384,0-0.768-0.146-1.061-0.439l-10-10c-0.586-0.586-0.586-1.535,0-2.121s1.535-0.586,2.121,0l10,10
	c0.586,0.586,0.586,1.535,0,2.121C33.772,47.604,33.389,47.75,33.005,47.75z"/>
<path d="M23.005,47.75c-0.384,0-0.768-0.146-1.061-0.439c-0.586-0.586-0.586-1.535,0-2.121l10-10c0.586-0.586,1.535-0.586,2.121,0
	s0.586,1.535,0,2.121l-10,10C23.772,47.604,23.389,47.75,23.005,47.75z"/>
</svg>
