<?xml version="1.0" encoding="utf-8"?>
<!-- Generator: Adobe Illustrator 16.0.3, SVG Export Plug-In . SVG Version: 6.00 Build 0)  -->
<!DOCTYPE svg PUBLIC "-//W3C//DTD SVG 1.1//EN" "http://www.w3.org/Graphics/SVG/1.1/DTD/svg11.dtd">
<svg version="1.1"
	 id="svg3002" xmlns:dc="http://purl.org/dc/elements/1.1/" xmlns:cc="http://creativecommons.org/ns#" xmlns:rdf="http://www.w3.org/1999/02/22-rdf-syntax-ns#" xmlns:svg="http://www.w3.org/2000/svg"
	 xmlns="http://www.w3.org/2000/svg" xmlns:xlink="http://www.w3.org/1999/xlink" x="0px" y="0px" width="55px" height="55px"
	 viewBox="0 0 55 55" enable-background="new 0 0 55 55" xml:space="preserve">
<path d="M16.998,28.494c-5.79,0-10.5-4.71-10.5-10.5s4.71-10.5,10.5-10.5s10.5,4.71,10.5,10.5h-3c0-4.136-3.364-7.5-7.5-7.5
	s-7.5,3.364-7.5,7.5s3.364,7.5,7.5,7.5V28.494z"/>
<path d="M15.817,46.494c-5.79,0-10.5-4.71-10.5-10.5h3c0,4.136,3.364,7.5,7.5,7.5s7.5-3.364,7.5-7.5s-3.364-7.5-7.5-7.5v-3
	c5.79,0,10.5,4.71,10.5,10.5S21.607,46.494,15.817,46.494z"/>
<rect x="32.64" y="7.5" width="3" height="40"/>
<polygon points="45.288,30.806 45.288,28.459 17.208,28.459 17.208,25.53 45.288,25.53 45.288,23.183 50.737,26.994 "/>
</svg>
