<?xml version="1.0" encoding="utf-8"?>
<!-- Generator: Adobe Illustrator 16.0.3, SVG Export Plug-In . SVG Version: 6.00 Build 0)  -->
<!DOCTYPE svg PUBLIC "-//W3C//DTD SVG 1.1//EN" "http://www.w3.org/Graphics/SVG/1.1/DTD/svg11.dtd">
<svg version="1.1"
	 id="svg3003" xmlns:dc="http://purl.org/dc/elements/1.1/" xmlns:cc="http://creativecommons.org/ns#" xmlns:rdf="http://www.w3.org/1999/02/22-rdf-syntax-ns#" xmlns:svg="http://www.w3.org/2000/svg"
	 xmlns="http://www.w3.org/2000/svg" xmlns:xlink="http://www.w3.org/1999/xlink" x="0px" y="0px" width="55px" height="55px"
	 viewBox="0 0 55 55" enable-background="new 0 0 55 55" xml:space="preserve">
<path d="M20.167,6.262c2.013,0,3.645,1.528,3.645,3.412s-1.632,3.412-3.645,3.412c-2.012,0-3.636-1.527-3.636-3.412
	S18.155,6.262,20.167,6.262z"/>
<path enable-background="new    " d="M0.2,0.2"/>
<path stroke="#000000" d="M29.011,42.207"/>
<path d="M32.044,10.119h6.869"/>
<path d="M38.913,11.619h-6.869c-0.828,0-1.5-0.671-1.5-1.5s0.672-1.5,1.5-1.5h6.869c0.828,0,1.5,0.671,1.5,1.5
	S39.741,11.619,38.913,11.619z"/>
<path d="M33.761,6.945l3.438,6.348"/>
<path d="M37.198,14.793c-0.533,0-1.051-0.285-1.32-0.787l-3.436-6.348c-0.396-0.729-0.123-1.639,0.604-2.033
	c0.727-0.393,1.639-0.125,2.033,0.605l3.436,6.348c0.396,0.729,0.123,1.639-0.604,2.033C37.683,14.735,37.438,14.793,37.198,14.793z
	"/>
<path d="M37.196,6.945l-3.436,6.348"/>
<path d="M33.761,14.793c-0.242,0-0.486-0.059-0.713-0.181c-0.729-0.395-1-1.305-0.605-2.033l3.436-6.348
	c0.395-0.73,1.307-0.999,2.033-0.605c0.729,0.395,1,1.305,0.605,2.033l-3.436,6.348C34.808,14.509,34.292,14.793,33.761,14.793z"/>
<polygon points="29.728,5.09 31.095,5.954 25.507,14.798 24.132,13.935 "/>
<polygon points="30.304,46.957 28.183,44.836 33.622,39.398 27.408,33.182 34.278,19.879 16.7,19.879 16.7,16.879 39.208,16.879 
	31.079,32.613 37.864,39.398 "/>
<rect x="19.205" y="18.379" width="3.015" height="31.519"/>
<path d="M29.243,46.898h-1.001v-1L29.243,46.898z"/>
<polygon points="32.864,48.398 26.742,48.398 26.742,42.277 "/>
</svg>
