<?xml version="1.0" encoding="UTF-8" standalone="no"?>
<svg
   xmlns:dc="http://purl.org/dc/elements/1.1/"
   xmlns:cc="http://creativecommons.org/ns#"
   xmlns:rdf="http://www.w3.org/1999/02/22-rdf-syntax-ns#"
   xmlns:svg="http://www.w3.org/2000/svg"
   xmlns="http://www.w3.org/2000/svg"
   xmlns:sodipodi="http://sodipodi.sourceforge.net/DTD/sodipodi-0.dtd"
   xmlns:inkscape="http://www.inkscape.org/namespaces/inkscape"
   version="1.1"
   width="55"
   height="55"
   viewBox="-27.5 -27.5 55 55"
   id="svg2"
   inkscape:version="0.91 r13725"
   sodipodi:docname="WeatherSymbol_WMO_PresentWeather_ww_55.svg">
  <defs
     id="defs4439" />
  <sodipodi:namedview
     pagecolor="#ffffff"
     bordercolor="#666666"
     borderopacity="1"
     objecttolerance="10"
     gridtolerance="10"
     guidetolerance="10"
     inkscape:pageopacity="0"
     inkscape:pageshadow="2"
     inkscape:window-width="673"
     inkscape:window-height="480"
     id="namedview4437"
     showgrid="false"
     inkscape:zoom="4.2909091"
     inkscape:cx="62.341102"
     inkscape:cy="27.5"
     inkscape:window-x="724"
     inkscape:window-y="23"
     inkscape:window-maximized="0"
     inkscape:current-layer="ww_55" />
  <title
     id="title4423">Present weather reported from a manned weather station: Drizzle, not freezing, continuous, heavy (dense) at time of observation</title>
  <desc
     id="desc4425">WMO international weather symbol: Precipitation at the station at the time of observation: Drizzle: Present weather reported from a manned weather station: Drizzle, not freezing, continuous, heavy (dense) at time of observation</desc>
  <metadata
     id="metadata4427">
    <rdf:RDF>
      <cc:Work
         rdf:about="https://raw.github.com/OGCMetOceanDWG/WorldWeatherSymbols/master/ww_PresentWeather/WeatherSymbol_WMO_PresentWeather_ww_55.svg">
        <dc:format>image/svg+xml</dc:format>
        <dc:type
           rdf:resource="http://purl.org/dc/dcmitype/StillImage" />
        <dc:title>Present weather reported from a manned weather station: Drizzle, not freezing, continuous, heavy (dense) at time of observation: Version0.5: statusProvisional</dc:title>
        <dc:date>2013-01-25</dc:date>
        <dc:creator>
          <cc:Agent>
            <dc:title>WMO CBS IPET-DR&amp;C</dc:title>
          </cc:Agent>
        </dc:creator>
        <dc:publisher>
          <cc:Agent>
            <dc:title>WMO</dc:title>
          </cc:Agent>
        </dc:publisher>
        <dc:rights>
          <cc:Agent>
            <dc:title>Creative Commons Attribution 3.0 Unported Licence</dc:title>
          </cc:Agent>
        </dc:rights>
        <dc:identifier>http://codes.wmo.int/306/4677/55</dc:identifier>
        <dc:source>WMO-No.485 Manual on the Global Data-processing and Forecasting System, Volume I, Part II, Section 4, Appendix II-4</dc:source>
        <dc:language>English</dc:language>
        <dc:subject>
          <rdf:Bag>
            <rdf:li>meteorology</rdf:li>
            <rdf:li>weather</rdf:li>
            <rdf:li>symbol</rdf:li>
          </rdf:Bag>
        </dc:subject>
        <dc:coverage>Global</dc:coverage>
        <dc:description>WMO international weather symbol: Present weather reported from a manned weather station: Drizzle, not freezing, continuous, heavy (dense) at time of observation: Version0.5: statusPROVISIONAL</dc:description>
        <dc:contributor>
          <cc:Agent>
            <dc:title>Chris Little</dc:title>
          </cc:Agent>
        </dc:contributor>
        <cc:license
           rdf:resource="http://creativecommons.org/licenses/by/3.0/" />
      </cc:Work>
    </rdf:RDF>
  </metadata>
  <g
     id="ww_55">
    <g
       transform="translate(11,0)"
       id="g5">
      <g
         id="ww_50">
        <path
           style="fill:#000000"
           d="M 5.5,0 A 5.5,5.5 0 0 1 0,5.5 5.5,5.5 0 0 1 -5.5,0 5.5,5.5 0 0 1 0,-5.5 5.5,5.5 0 0 1 5.5,0 Z"
           id="circle8" />
        <path
           style="color:#000000;font-style:normal;font-variant:normal;font-weight:normal;font-stretch:normal;font-size:medium;line-height:normal;font-family:sans-serif;text-indent:0;text-align:start;text-decoration:none;text-decoration-line:none;text-decoration-style:solid;text-decoration-color:#000000;letter-spacing:normal;word-spacing:normal;text-transform:none;direction:ltr;block-progression:tb;writing-mode:lr-tb;baseline-shift:baseline;text-anchor:start;white-space:normal;clip-rule:nonzero;display:inline;overflow:visible;visibility:visible;opacity:1;isolation:auto;mix-blend-mode:normal;color-interpolation:sRGB;color-interpolation-filters:linearRGB;solid-color:#000000;solid-opacity:1;fill:#000000;fill-opacity:1;fill-rule:nonzero;stroke:none;stroke-width:3;stroke-linecap:round;stroke-linejoin:miter;stroke-miterlimit:4;stroke-dasharray:none;stroke-dashoffset:0;stroke-opacity:1;color-rendering:auto;image-rendering:auto;shape-rendering:auto;text-rendering:auto;enable-background:accumulate"
           d="M 3.9765625,-1.5214844 A 1.50015,1.50015 0 0 0 2.5,0 c 0,3.1324324 -1.82322642,6.1337103 -4.3789062,7.984375 a 1.50015,1.50015 0 1 0 1.75781245,2.429687 C 3.1232264,8.0647272 5.5,4.2675676 5.5,0 A 1.50015,1.50015 0 0 0 3.9765625,-1.5214844 Z"
           id="path10"
           inkscape:connector-curvature="0" />
      </g>
    </g>
    <g
       id="use12"
       transform="translate(-11,0)">
      <path
         id="path4452"
         d="M 5.5,0 A 5.5,5.5 0 0 1 0,5.5 5.5,5.5 0 0 1 -5.5,0 5.5,5.5 0 0 1 0,-5.5 5.5,5.5 0 0 1 5.5,0 Z"
         style="fill:#000000"
         inkscape:connector-curvature="0" />
      <path
         style="color:#000000;font-style:normal;font-variant:normal;font-weight:normal;font-stretch:normal;font-size:medium;line-height:normal;font-family:sans-serif;text-indent:0;text-align:start;text-decoration:none;text-decoration-line:none;text-decoration-style:solid;text-decoration-color:#000000;letter-spacing:normal;word-spacing:normal;text-transform:none;direction:ltr;block-progression:tb;writing-mode:lr-tb;baseline-shift:baseline;text-anchor:start;white-space:normal;clip-rule:nonzero;display:inline;overflow:visible;visibility:visible;opacity:1;isolation:auto;mix-blend-mode:normal;color-interpolation:sRGB;color-interpolation-filters:linearRGB;solid-color:#000000;solid-opacity:1;fill:#000000;fill-opacity:1;fill-rule:nonzero;stroke:none;stroke-width:3;stroke-linecap:round;stroke-linejoin:miter;stroke-miterlimit:4;stroke-dasharray:none;stroke-dashoffset:0;stroke-opacity:1;color-rendering:auto;image-rendering:auto;shape-rendering:auto;text-rendering:auto;enable-background:accumulate"
         d="M 3.9765625,-1.5214844 A 1.50015,1.50015 0 0 0 2.5,0 c 0,3.1324324 -1.82322642,6.1337103 -4.3789062,7.984375 a 1.50015,1.50015 0 1 0 1.75781245,2.429687 C 3.1232264,8.0647272 5.5,4.2675676 5.5,0 A 1.50015,1.50015 0 0 0 3.9765625,-1.5214844 Z"
         id="path4454"
         inkscape:connector-curvature="0" />
    </g>
    <g
       id="use14"
       transform="translate(0,-11)">
      <path
         id="path4464"
         d="M 5.5,0 A 5.5,5.5 0 0 1 0,5.5 5.5,5.5 0 0 1 -5.5,0 5.5,5.5 0 0 1 0,-5.5 5.5,5.5 0 0 1 5.5,0 Z"
         style="fill:#000000"
         inkscape:connector-curvature="0" />
      <path
         style="color:#000000;font-style:normal;font-variant:normal;font-weight:normal;font-stretch:normal;font-size:medium;line-height:normal;font-family:sans-serif;text-indent:0;text-align:start;text-decoration:none;text-decoration-line:none;text-decoration-style:solid;text-decoration-color:#000000;letter-spacing:normal;word-spacing:normal;text-transform:none;direction:ltr;block-progression:tb;writing-mode:lr-tb;baseline-shift:baseline;text-anchor:start;white-space:normal;clip-rule:nonzero;display:inline;overflow:visible;visibility:visible;opacity:1;isolation:auto;mix-blend-mode:normal;color-interpolation:sRGB;color-interpolation-filters:linearRGB;solid-color:#000000;solid-opacity:1;fill:#000000;fill-opacity:1;fill-rule:nonzero;stroke:none;stroke-width:3;stroke-linecap:round;stroke-linejoin:miter;stroke-miterlimit:4;stroke-dasharray:none;stroke-dashoffset:0;stroke-opacity:1;color-rendering:auto;image-rendering:auto;shape-rendering:auto;text-rendering:auto;enable-background:accumulate"
         d="M 3.9765625,-1.5214844 A 1.50015,1.50015 0 0 0 2.5,0 c 0,3.1324324 -1.82322642,6.1337103 -4.3789062,7.984375 a 1.50015,1.50015 0 1 0 1.75781245,2.429687 C 3.1232264,8.0647272 5.5,4.2675676 5.5,0 A 1.50015,1.50015 0 0 0 3.9765625,-1.5214844 Z"
         id="path4466"
         inkscape:connector-curvature="0" />
    </g>
    <g
       id="use16"
       transform="translate(0,11)">
      <path
         id="path4458"
         d="M 5.5,0 A 5.5,5.5 0 0 1 0,5.5 5.5,5.5 0 0 1 -5.5,0 5.5,5.5 0 0 1 0,-5.5 5.5,5.5 0 0 1 5.5,0 Z"
         style="fill:#000000"
         inkscape:connector-curvature="0" />
      <path
         style="color:#000000;font-style:normal;font-variant:normal;font-weight:normal;font-stretch:normal;font-size:medium;line-height:normal;font-family:sans-serif;text-indent:0;text-align:start;text-decoration:none;text-decoration-line:none;text-decoration-style:solid;text-decoration-color:#000000;letter-spacing:normal;word-spacing:normal;text-transform:none;direction:ltr;block-progression:tb;writing-mode:lr-tb;baseline-shift:baseline;text-anchor:start;white-space:normal;clip-rule:nonzero;display:inline;overflow:visible;visibility:visible;opacity:1;isolation:auto;mix-blend-mode:normal;color-interpolation:sRGB;color-interpolation-filters:linearRGB;solid-color:#000000;solid-opacity:1;fill:#000000;fill-opacity:1;fill-rule:nonzero;stroke:none;stroke-width:3;stroke-linecap:round;stroke-linejoin:miter;stroke-miterlimit:4;stroke-dasharray:none;stroke-dashoffset:0;stroke-opacity:1;color-rendering:auto;image-rendering:auto;shape-rendering:auto;text-rendering:auto;enable-background:accumulate"
         d="M 3.9765625,-1.5214844 A 1.50015,1.50015 0 0 0 2.5,0 c 0,3.1324324 -1.82322642,6.1337103 -4.3789062,7.984375 a 1.50015,1.50015 0 1 0 1.75781245,2.429687 C 3.1232264,8.0647272 5.5,4.2675676 5.5,0 A 1.50015,1.50015 0 0 0 3.9765625,-1.5214844 Z"
         id="path4460"
         inkscape:connector-curvature="0" />
    </g>
  </g>
</svg>
