<?xml version="1.0" encoding="utf-8"?>
<!-- Generator: Adobe Illustrator 16.0.3, SVG Export Plug-In . SVG Version: 6.00 Build 0)  -->
<!DOCTYPE svg PUBLIC "-//W3C//DTD SVG 1.1//EN" "http://www.w3.org/Graphics/SVG/1.1/DTD/svg11.dtd">
<svg version="1.1"
	 id="svg2" xmlns:dc="http://purl.org/dc/elements/1.1/" xmlns:cc="http://creativecommons.org/ns#" xmlns:rdf="http://www.w3.org/1999/02/22-rdf-syntax-ns#" xmlns:svg="http://www.w3.org/2000/svg"
	 xmlns="http://www.w3.org/2000/svg" xmlns:xlink="http://www.w3.org/1999/xlink" x="0px" y="0px" width="55px" height="55px"
	 viewBox="0 0 55 55" enable-background="new 0 0 55 55" xml:space="preserve">
<g id="ww_84">
	<g id="circle6">
		<circle cx="27.5" cy="9.75" r="5.5"/>
	</g>
	<g id="g8" transform="translate(0,-8)">
		<g id="ww70arm">
			<path d="M22,30.25h11"/>
			<path d="M33,31.75H22c-0.829,0-1.5-0.671-1.5-1.5s0.671-1.5,1.5-1.5h11c0.828,0,1.5,0.671,1.5,1.5S33.828,31.75,33,31.75z"/>
		</g>
		<g id="use11" transform="matrix(0.5,0.8660254,-0.8660254,0.5,0,0)" xlink:href="#ww70arm">
			<g id="ww70arm_1_">
				<path d="M24.75,25.487l5.5,9.526"/>
				<path d="M30.251,36.514c-0.518,0-1.022-0.27-1.3-0.75l-5.5-9.526c-0.415-0.717-0.168-1.635,0.549-2.049
					c0.719-0.415,1.635-0.168,2.049,0.549l5.5,9.526c0.414,0.717,0.169,1.635-0.549,2.049
					C30.764,36.448,30.506,36.514,30.251,36.514z"/>
			</g>
		</g>
		<g id="use13" transform="matrix(-0.5,0.8660254,-0.8660254,-0.5,0,0)" xlink:href="#ww70arm">
			<g id="ww70arm_2_">
				<path d="M30.25,25.487l-5.5,9.526"/>
				<path d="M24.749,36.514c-0.254,0-0.512-0.065-0.749-0.201c-0.717-0.415-0.963-1.332-0.549-2.049l5.5-9.526
					c0.414-0.718,1.332-0.963,2.049-0.549c0.718,0.414,0.963,1.332,0.549,2.049l-5.5,9.526
					C25.771,36.244,25.267,36.514,24.749,36.514z"/>
			</g>
		</g>
	</g>
	<g id="path15">
		<path d="M27.5,54.585L16.732,29.25h21.535L27.5,54.585z M21.268,32.25L27.5,46.915l6.232-14.665H21.268z"/>
	</g>
	<g id="path17">
		<rect x="21.5" y="35.25" width="12" height="3"/>
	</g>
</g>
</svg>
