<?xml version="1.0" encoding="utf-8"?>
<!-- Generator: Adobe Illustrator 16.0.3, SVG Export Plug-In . SVG Version: 6.00 Build 0)  -->
<!DOCTYPE svg PUBLIC "-//W3C//DTD SVG 1.1//EN" "http://www.w3.org/Graphics/SVG/1.1/DTD/svg11.dtd">
<svg version="1.1"
	 id="svg3010" xmlns:dc="http://purl.org/dc/elements/1.1/" xmlns:cc="http://creativecommons.org/ns#" xmlns:rdf="http://www.w3.org/1999/02/22-rdf-syntax-ns#" xmlns:svg="http://www.w3.org/2000/svg"
	 xmlns="http://www.w3.org/2000/svg" xmlns:xlink="http://www.w3.org/1999/xlink" x="0px" y="0px" width="55px" height="55px"
	 viewBox="0 0 55 55" enable-background="new 0 0 55 55" xml:space="preserve">
<g id="ww_93">
	<g id="path3021">
		<polygon points="27.658,45.061 12.257,29.66 25.295,11.5 4.219,11.5 4.219,8.5 31.143,8.5 16.18,29.34 29.779,42.939 		"/>
	</g>
	<g id="path3023">
		<rect x="6.719" y="10" width="3" height="37"/>
	</g>
	<g id="path3025">
		<polygon points="36.719,52 28.219,52 28.219,49 33.719,49 33.719,6 28.219,6 28.219,3 36.719,3 		"/>
	</g>
	<g id="path3027">
		<path d="M27.719,44h1v-1L27.719,44z"/>
		<polygon points="30.219,45.5 24.098,45.5 30.219,39.379 		"/>
	</g>
	<g id="path3007">
		<path d="M52.946,30.588h-12.33l6.165-10.681L52.946,30.588z M44.946,28.088h3.67l-1.835-3.18L44.946,28.088z"/>
	</g>
</g>
</svg>
