<?xml version="1.0" encoding="utf-8"?>
<!-- Generator: Adobe Illustrator 16.0.3, SVG Export Plug-In . SVG Version: 6.00 Build 0)  -->
<!DOCTYPE svg PUBLIC "-//W3C//DTD SVG 1.1//EN" "http://www.w3.org/Graphics/SVG/1.1/DTD/svg11.dtd">
<svg version="1.1"
	 id="svg2" xmlns:dc="http://purl.org/dc/elements/1.1/" xmlns:cc="http://creativecommons.org/ns#" xmlns:rdf="http://www.w3.org/1999/02/22-rdf-syntax-ns#" xmlns:svg="http://www.w3.org/2000/svg"
	 xmlns="http://www.w3.org/2000/svg" xmlns:xlink="http://www.w3.org/1999/xlink" x="0px" y="0px" width="55px" height="55px"
	 viewBox="0 0 55 55" enable-background="new 0 0 55 55" xml:space="preserve">
<g id="ww_34">
	<g id="g5">
		<g id="arc">
			<path d="M26.5,29C20.71,29,16,24.29,16,18.5S20.71,8,26.5,8C32.29,8,37,12.71,37,18.5h-3c0-4.136-3.364-7.5-7.5-7.5
				S19,14.364,19,18.5s3.364,7.5,7.5,7.5V29z"/>
		</g>
		<g id="arc2">
			<path d="M26.5,47C20.71,47,16,42.29,16,36.5h3c0,4.136,3.364,7.5,7.5,7.5s7.5-3.364,7.5-7.5S30.636,29,26.5,29v-3
				C32.29,26,37,30.71,37,36.5S32.29,47,26.5,47z"/>
		</g>
	</g>
	<g id="path9">
		<polygon points="37.8,33.9 37.2,33.1 40.267,30.8 9.5,30.8 9.5,29.8 41.5,29.8 41.5,29.875 44.667,27.5 41.5,25.125 41.5,25.2 
			9.5,25.2 9.5,24.2 40.267,24.2 37.2,21.9 37.8,21.1 46.333,27.5 		"/>
	</g>
</g>
</svg>
