<?xml version="1.0" encoding="utf-8"?>
<!-- Generator: Adobe Illustrator 16.0.3, SVG Export Plug-In . SVG Version: 6.00 Build 0)  -->
<!DOCTYPE svg PUBLIC "-//W3C//DTD SVG 1.1//EN" "http://www.w3.org/Graphics/SVG/1.1/DTD/svg11.dtd">
<svg version="1.1"
	 id="svg2" xmlns:dc="http://purl.org/dc/elements/1.1/" xmlns:cc="http://creativecommons.org/ns#" xmlns:rdf="http://www.w3.org/1999/02/22-rdf-syntax-ns#" xmlns:svg="http://www.w3.org/2000/svg"
	 xmlns="http://www.w3.org/2000/svg" xmlns:xlink="http://www.w3.org/1999/xlink" x="0px" y="0px" width="55px" height="55px"
	 viewBox="0 0 55 55" enable-background="new 0 0 55 55" xml:space="preserve">
<g id="ww_40">
	<g id="path6">
		<path d="M44.009,47.11l-2.018-2.221c9.588-8.716,10.299-23.607,1.584-33.196c-0.499-0.549-1.033-1.082-1.584-1.583l2.018-2.22
			c0.621,0.565,1.223,1.166,1.786,1.785C55.623,20.489,54.821,37.281,44.009,47.11z M10.99,47.109
			c-0.625-0.568-1.225-1.169-1.785-1.785C-0.623,34.511,0.178,17.718,10.991,7.89l2.018,2.22
			C3.42,18.825,2.709,33.717,11.425,43.307c0.497,0.546,1.03,1.079,1.585,1.584L10.99,47.109z M45,38.5H10v-3h35V38.5z M45,29H10v-3
			h35V29z M45,19.5H10v-3h35V19.5z"/>
	</g>
</g>
</svg>
