<?xml version="1.0" encoding="utf-8"?>
<!-- Generator: Adobe Illustrator 16.0.3, SVG Export Plug-In . SVG Version: 6.00 Build 0)  -->
<!DOCTYPE svg PUBLIC "-//W3C//DTD SVG 1.1//EN" "http://www.w3.org/Graphics/SVG/1.1/DTD/svg11.dtd">
<svg version="1.1"
	 id="svg2" xmlns:dc="http://purl.org/dc/elements/1.1/" xmlns:cc="http://creativecommons.org/ns#" xmlns:rdf="http://www.w3.org/1999/02/22-rdf-syntax-ns#" xmlns:svg="http://www.w3.org/2000/svg"
	 xmlns="http://www.w3.org/2000/svg" xmlns:xlink="http://www.w3.org/1999/xlink" x="0px" y="0px" width="55px" height="55px"
	 viewBox="0 0 55 55" enable-background="new 0 0 55 55" xml:space="preserve">
<g id="ww_35">
	<g id="g5">
		<g id="arc">
			<path d="M29,29c-5.79,0-10.5-4.71-10.5-10.5S23.21,8,29,8c5.79,0,10.5,4.71,10.5,10.5h-3c0-4.136-3.364-7.5-7.5-7.5
				s-7.5,3.364-7.5,7.5S24.864,26,29,26V29z"/>
		</g>
		<g id="arc2">
			<path d="M29,47c-5.79,0-10.5-4.71-10.5-10.5h3c0,4.136,3.364,7.5,7.5,7.5s7.5-3.364,7.5-7.5S33.136,29,29,29v-3
				c5.79,0,10.5,4.71,10.5,10.5S34.79,47,29,47z"/>
		</g>
	</g>
	<g id="path9">
		<rect x="5.5" y="7.5" width="3" height="40"/>
	</g>
	<g id="path11">
		<polygon points="40.3,33.9 39.7,33.1 42.767,30.8 12,30.8 12,29.8 44,29.8 44,29.875 47.167,27.5 44,25.125 44,25.2 12,25.2 
			12,24.2 42.767,24.2 39.7,21.9 40.3,21.1 48.833,27.5 		"/>
	</g>
</g>
</svg>
