<?xml version="1.0" encoding="utf-8"?>
<!-- Generator: Adobe Illustrator 16.0.3, SVG Export Plug-In . SVG Version: 6.00 Build 0)  -->
<!DOCTYPE svg PUBLIC "-//W3C//DTD SVG 1.1//EN" "http://www.w3.org/Graphics/SVG/1.1/DTD/svg11.dtd">
<svg version="1.1"
	 id="svg2" xmlns:dc="http://purl.org/dc/elements/1.1/" xmlns:cc="http://creativecommons.org/ns#" xmlns:rdf="http://www.w3.org/1999/02/22-rdf-syntax-ns#" xmlns:svg="http://www.w3.org/2000/svg"
	 xmlns="http://www.w3.org/2000/svg" xmlns:xlink="http://www.w3.org/1999/xlink" x="0px" y="0px" width="55px" height="55px"
	 viewBox="0 0 55 55" enable-background="new 0 0 55 55" xml:space="preserve">
<path d="M40.25,27.5h11"/>
<path d="M51.25,29h-11c-0.828,0-1.5-0.672-1.5-1.5c0-0.829,0.672-1.5,1.5-1.5h11c0.828,0,1.5,0.671,1.5,1.5
	C52.75,28.328,52.078,29,51.25,29z"/>
<path d="M43,22.737l5.5,9.527"/>
<path d="M48.501,33.764c-0.518,0-1.022-0.269-1.3-0.75l-5.5-9.527c-0.414-0.717-0.169-1.635,0.549-2.049
	c0.717-0.414,1.635-0.169,2.049,0.549l5.5,9.527c0.414,0.718,0.169,1.635-0.549,2.049C49.014,33.699,48.756,33.764,48.501,33.764z"
	/>
<path d="M48.5,22.737L43,32.264"/>
<path d="M42.999,33.764c-0.255,0-0.513-0.064-0.749-0.201c-0.718-0.414-0.963-1.331-0.549-2.049l5.5-9.527
	c0.414-0.718,1.333-0.962,2.049-0.549c0.718,0.414,0.963,1.332,0.549,2.049l-5.5,9.527C44.021,33.495,43.517,33.764,42.999,33.764z"
	/>
<polygon points="27.189,45.061 11.789,29.66 24.827,11.5 3.75,11.5 3.75,8.5 30.674,8.5 15.711,29.34 29.311,42.939 "/>
<rect x="6.25" y="10" width="3" height="37"/>
<polygon points="36.25,52 27.75,52 27.75,49 33.25,49 33.25,6 27.75,6 27.75,3 36.25,3 "/>
<path d="M27.25,44h1v-1L27.25,44z"/>
<polygon points="29.75,45.5 23.629,45.5 29.75,39.379 "/>
</svg>
