<?xml version="1.0" encoding="utf-8"?>
<!-- Generator: Adobe Illustrator 16.0.3, SVG Export Plug-In . SVG Version: 6.00 Build 0)  -->
<!DOCTYPE svg PUBLIC "-//W3C//DTD SVG 1.1//EN" "http://www.w3.org/Graphics/SVG/1.1/DTD/svg11.dtd">
<svg version="1.1"
	 id="svg2" xmlns:dc="http://purl.org/dc/elements/1.1/" xmlns:cc="http://creativecommons.org/ns#" xmlns:rdf="http://www.w3.org/1999/02/22-rdf-syntax-ns#" xmlns:svg="http://www.w3.org/2000/svg"
	 xmlns="http://www.w3.org/2000/svg" xmlns:xlink="http://www.w3.org/1999/xlink" x="0px" y="0px" width="55px" height="55px"
	 viewBox="0 0 55 55" enable-background="new 0 0 55 55" xml:space="preserve">
<g id="ww_05">
	<g id="path6">
		<path d="M39.5,41c-5.218,0-9.754-2.976-12-7.318C25.253,38.024,20.718,41,15.5,41C8.056,41,2,34.944,2,27.5
			C2,20.056,8.056,14,15.5,14c5.218,0,9.753,2.976,12,7.319C29.746,16.976,34.282,14,39.5,14C46.944,14,53,20.056,53,27.5
			C53,34.944,46.944,41,39.5,41z M39.5,17C33.71,17,29,21.71,29,27.5C29,33.29,33.71,38,39.5,38S50,33.29,50,27.5
			C50,21.71,45.29,17,39.5,17z M15.5,17C9.71,17,5,21.71,5,27.5C5,33.29,9.71,38,15.5,38S26,33.29,26,27.5
			C26,21.71,21.29,17,15.5,17z"/>
	</g>
</g>
</svg>
