<?xml version="1.0" encoding="utf-8"?>
<!-- Generator: Adobe Illustrator 16.0.3, SVG Export Plug-In . SVG Version: 6.00 Build 0)  -->
<!DOCTYPE svg PUBLIC "-//W3C//DTD SVG 1.1//EN" "http://www.w3.org/Graphics/SVG/1.1/DTD/svg11.dtd">
<svg version="1.1"
	 id="svg3010" xmlns:dc="http://purl.org/dc/elements/1.1/" xmlns:cc="http://creativecommons.org/ns#" xmlns:rdf="http://www.w3.org/1999/02/22-rdf-syntax-ns#" xmlns:svg="http://www.w3.org/2000/svg"
	 xmlns="http://www.w3.org/2000/svg" xmlns:xlink="http://www.w3.org/1999/xlink" x="0px" y="0px" width="55px" height="55px"
	 viewBox="0 0 55 55" enable-background="new 0 0 55 55" xml:space="preserve">
<g id="ww_93">
	<g id="g3014" transform="translate(17.825444,-10.576923)">
		<g id="ww70arm">
			<path d="M21.802,27.5h11"/>
			<path d="M32.802,29h-11c-0.828,0-1.5-0.671-1.5-1.5s0.672-1.5,1.5-1.5h11c0.828,0,1.5,0.671,1.5,1.5S33.63,29,32.802,29z"/>
		</g>
		<g id="use3017" transform="matrix(0.5,0.8660254,-0.8660254,0.5,0,0)" xlink:href="#ww70arm">
			<g id="ww70arm_1_">
				<path d="M24.552,22.737l5.5,9.526"/>
				<path d="M30.052,33.763c-0.518,0-1.022-0.269-1.3-0.75l-5.5-9.526c-0.414-0.717-0.169-1.635,0.549-2.049
					c0.717-0.415,1.635-0.169,2.049,0.549l5.5,9.526c0.414,0.717,0.169,1.635-0.549,2.049
					C30.565,33.699,30.307,33.763,30.052,33.763z"/>
			</g>
		</g>
		<g id="use3019" transform="matrix(-0.5,0.8660254,-0.8660254,-0.5,0,0)" xlink:href="#ww70arm">
			<g id="ww70arm_2_">
				<path d="M30.052,22.737l-5.5,9.526"/>
				<path d="M24.551,33.763c-0.255,0-0.513-0.065-0.749-0.202c-0.718-0.414-0.963-1.332-0.549-2.049l5.5-9.526
					c0.413-0.718,1.333-0.964,2.049-0.549c0.718,0.414,0.963,1.332,0.549,2.049l-5.5,9.526
					C25.573,33.494,25.068,33.763,24.551,33.763z"/>
			</g>
		</g>
	</g>
	<g id="path3021">
		<polygon points="26.241,45.061 10.84,29.66 23.878,11.5 2.802,11.5 2.802,8.5 29.726,8.5 14.763,29.34 28.362,42.939 		"/>
	</g>
	<g id="path3023">
		<rect x="5.302" y="10" width="3" height="37"/>
	</g>
	<g id="path3025">
		<polygon points="35.302,52 26.802,52 26.802,49 32.302,49 32.302,6 26.802,6 26.802,3 35.302,3 		"/>
	</g>
	<g id="path3027">
		<path d="M26.302,44h1v-1L26.302,44z"/>
		<polygon points="28.802,45.5 22.681,45.5 28.802,39.379 		"/>
	</g>
	<g id="path3007">
		<path d="M51.204,43.117h-12.33l6.165-10.68L51.204,43.117z M43.204,40.617h3.67l-1.835-3.18L43.204,40.617z"/>
	</g>
	<g id="path3042">
		<rect x="44.933" y="21.444" transform="matrix(0.4327 0.9015 -0.9015 0.4327 51.6571 -25.3019)" width="2" height="13.902"/>
	</g>
</g>
</svg>
