<?xml version="1.0" encoding="utf-8"?>
<!-- Generator: Adobe Illustrator 16.0.3, SVG Export Plug-In . SVG Version: 6.00 Build 0)  -->
<!DOCTYPE svg PUBLIC "-//W3C//DTD SVG 1.1//EN" "http://www.w3.org/Graphics/SVG/1.1/DTD/svg11.dtd">
<svg version="1.1"
	 id="svg2" xmlns:dc="http://purl.org/dc/elements/1.1/" xmlns:cc="http://creativecommons.org/ns#" xmlns:rdf="http://www.w3.org/1999/02/22-rdf-syntax-ns#" xmlns:svg="http://www.w3.org/2000/svg"
	 xmlns="http://www.w3.org/2000/svg" xmlns:xlink="http://www.w3.org/1999/xlink" x="0px" y="0px" width="55px" height="55px"
	 viewBox="0 0 55 55" enable-background="new 0 0 55 55" xml:space="preserve">
<g id="ww_56">
	<g id="g5" transform="matrix(0.7,0,0,0.7,-10,0)">
		<g id="circle7">
			<circle cx="39.286" cy="39.285" r="5.5"/>
		</g>
		<g id="path9">
			<path d="M38.288,50.628c-0.664,0-1.319-0.307-1.738-0.886c-0.694-0.958-0.48-2.299,0.479-2.992
				c2.537-1.837,4.113-4.697,4.113-7.464c0-1.184,0.959-2.143,2.143-2.143c1.184,0,2.143,0.959,2.143,2.143
				c0,4.178-2.201,8.267-5.887,10.935C39.162,50.495,38.723,50.628,38.288,50.628z"/>
		</g>
	</g>
	<g id="arc">
		<path d="M37.5,39C31.159,39,26,33.841,26,27.5c0-0.829,0.671-1.5,1.5-1.5c0.828,0,1.5,0.671,1.5,1.5c0,4.687,3.813,8.5,8.5,8.5
			s8.5-3.813,8.5-8.5v-2c0-0.829,0.672-1.5,1.5-1.5s1.5,0.671,1.5,1.5v2C49,33.841,43.841,39,37.5,39z"/>
	</g>
	<g id="use12" transform="scale(-1,-1)" xlink:href="#arc">
		<g id="arc_1_">
			<path d="M7.5,31C6.671,31,6,30.328,6,29.5v-2C6,21.159,11.159,16,17.5,16S29,21.159,29,27.5c0,0.828-0.672,1.5-1.5,1.5
				c-0.829,0-1.5-0.672-1.5-1.5c0-4.687-3.813-8.5-8.5-8.5S9,22.813,9,27.5v2C9,30.328,8.329,31,7.5,31z"/>
		</g>
	</g>
</g>
</svg>
