<?xml version="1.0" encoding="utf-8"?>
<!-- Generator: Adobe Illustrator 16.0.3, SVG Export Plug-In . SVG Version: 6.00 Build 0)  -->
<!DOCTYPE svg PUBLIC "-//W3C//DTD SVG 1.1//EN" "http://www.w3.org/Graphics/SVG/1.1/DTD/svg11.dtd">
<svg version="1.1"
	 id="svg2" xmlns:dc="http://purl.org/dc/elements/1.1/" xmlns:cc="http://creativecommons.org/ns#" xmlns:rdf="http://www.w3.org/1999/02/22-rdf-syntax-ns#" xmlns:svg="http://www.w3.org/2000/svg"
	 xmlns="http://www.w3.org/2000/svg" xmlns:xlink="http://www.w3.org/1999/xlink" x="0px" y="0px" width="55px" height="55px"
	 viewBox="0 0 55 55" enable-background="new 0 0 55 55" xml:space="preserve">
<g id="ww_85">
	<g id="g6" transform="translate(0,-15.5)">
		<g id="ww70arm">
			<path d="M22,30.382h11"/>
			<path d="M33,31.882H22c-0.829,0-1.5-0.671-1.5-1.5s0.671-1.5,1.5-1.5h11c0.828,0,1.5,0.671,1.5,1.5S33.828,31.882,33,31.882z"/>
		</g>
		<g id="use9" transform="matrix(0.5,0.8660254,-0.8660254,0.5,0,0)" xlink:href="#ww70arm">
			<g id="ww70arm_1_">
				<path d="M24.75,25.618l5.5,9.526"/>
				<path d="M30.251,36.645c-0.518,0-1.022-0.269-1.3-0.75l-5.5-9.526c-0.415-0.717-0.168-1.635,0.549-2.049
					c0.719-0.416,1.635-0.168,2.049,0.549l5.5,9.526c0.414,0.717,0.169,1.635-0.549,2.049C30.764,36.58,30.506,36.645,30.251,36.645
					z"/>
			</g>
		</g>
		<g id="use11" transform="matrix(-0.5,0.8660254,-0.8660254,-0.5,0,0)" xlink:href="#ww70arm">
			<g id="ww70arm_2_">
				<path d="M30.25,25.618l-5.5,9.526"/>
				<path d="M24.749,36.645c-0.254,0-0.512-0.065-0.749-0.202c-0.717-0.414-0.963-1.332-0.549-2.049l5.5-9.526
					c0.414-0.718,1.332-0.964,2.049-0.549c0.718,0.414,0.963,1.332,0.549,2.049l-5.5,9.526
					C25.771,36.375,25.267,36.645,24.749,36.645z"/>
			</g>
		</g>
	</g>
	<g id="path13">
		<path d="M27.5,48.717L16.732,23.382h21.535L27.5,48.717z M21.268,26.382L27.5,41.047l6.232-14.665H21.268z"/>
	</g>
</g>
</svg>
