<?xml version="1.0" encoding="utf-8"?>
<!-- Generator: Adobe Illustrator 16.0.3, SVG Export Plug-In . SVG Version: 6.00 Build 0)  -->
<!DOCTYPE svg PUBLIC "-//W3C//DTD SVG 1.1//EN" "http://www.w3.org/Graphics/SVG/1.1/DTD/svg11.dtd">
<svg version="1.1"
	 id="svg3190" xmlns:dc="http://purl.org/dc/elements/1.1/" xmlns:cc="http://creativecommons.org/ns#" xmlns:rdf="http://www.w3.org/1999/02/22-rdf-syntax-ns#" xmlns:svg="http://www.w3.org/2000/svg"
	 xmlns="http://www.w3.org/2000/svg" xmlns:xlink="http://www.w3.org/1999/xlink" x="0px" y="0px" width="55px" height="55px"
	 viewBox="0 0 55 55" enable-background="new 0 0 55 55" xml:space="preserve">
<g id="ww_95">
	<g id="path3196">
		<polygon points="36.689,41.311 23.801,28.423 34.376,13.25 17.25,13.25 17.25,10.25 40.124,10.25 27.699,28.077 38.811,39.189 		
			"/>
	</g>
	<g id="path3198">
		<rect x="19.75" y="11.75" width="3" height="31.5"/>
	</g>
	<g id="path3200">
		<path d="M36.75,40.25h1v-1L36.75,40.25z"/>
		<polygon points="39.25,41.75 33.129,41.75 39.25,35.629 		"/>
	</g>
</g>
<g id="g3014" transform="matrix(0.66788182,0,0,0.64854999,2.1490114,-18.527543)">
	<g id="ww70arm">
		<path d="M32.457,70.97h11.001"/>
		<path d="M43.458,73.283H32.457c-1.241,0-2.246-1.036-2.246-2.313c0-1.278,1.005-2.313,2.246-2.313h11.001
			c1.24,0,2.246,1.035,2.246,2.313C45.704,72.247,44.698,73.283,43.458,73.283z"/>
	</g>
	<g id="use3017" transform="matrix(0.5,0.8660254,-0.8660254,0.5,0,0)" xlink:href="#ww70arm">
		<g id="ww70arm_1_">
			<path d="M35.208,66.207l5.5,9.526"/>
			<path d="M40.709,78.045c-0.766,0-1.512-0.404-1.932-1.131l-5.5-9.525c-0.635-1.098-0.284-2.517,0.782-3.17
				c1.067-0.652,2.445-0.291,3.078,0.806l5.5,9.525c0.635,1.098,0.284,2.518-0.782,3.17C41.496,77.942,41.1,78.045,40.709,78.045z"
				/>
		</g>
	</g>
	<g id="use3019" transform="matrix(-0.5,0.8660254,-0.8660254,-0.5,0,0)" xlink:href="#ww70arm">
		<g id="ww70arm_2_">
			<path d="M40.708,66.207l-5.5,9.526"/>
			<path d="M35.206,78.045c-0.39,0-0.786-0.104-1.146-0.325c-1.066-0.652-1.417-2.072-0.782-3.17l5.5-9.525
				c0.633-1.099,2.012-1.458,3.078-0.806c1.066,0.653,1.417,2.072,0.782,3.17l-5.5,9.525C36.718,77.642,35.972,78.045,35.206,78.045
				z"/>
		</g>
	</g>
</g>
</svg>
