<?xml version="1.0" encoding="utf-8"?>
<!-- Generator: Adobe Illustrator 16.0.3, SVG Export Plug-In . SVG Version: 6.00 Build 0)  -->
<!DOCTYPE svg PUBLIC "-//W3C//DTD SVG 1.1//EN" "http://www.w3.org/Graphics/SVG/1.1/DTD/svg11.dtd">
<svg version="1.1"
	 id="svg2" xmlns:dc="http://purl.org/dc/elements/1.1/" xmlns:cc="http://creativecommons.org/ns#" xmlns:rdf="http://www.w3.org/1999/02/22-rdf-syntax-ns#" xmlns:svg="http://www.w3.org/2000/svg"
	 xmlns="http://www.w3.org/2000/svg" xmlns:xlink="http://www.w3.org/1999/xlink" x="0px" y="0px" width="55px" height="55px"
	 viewBox="0 0 55 55" enable-background="new 0 0 55 55" xml:space="preserve">
<path d="M22,18h11"/>
<path d="M33,19.5H22c-0.829,0-1.5-0.671-1.5-1.5s0.671-1.5,1.5-1.5h11c0.828,0,1.5,0.671,1.5,1.5S33.828,19.5,33,19.5z"/>
<path d="M24.75,13.237l5.5,9.526"/>
<path d="M30.251,24.264c-0.518,0-1.022-0.269-1.3-0.75l-5.5-9.526c-0.415-0.717-0.168-1.635,0.549-2.049
	c0.719-0.414,1.635-0.168,2.049,0.549l5.5,9.526c0.414,0.717,0.169,1.635-0.549,2.049C30.764,24.199,30.506,24.264,30.251,24.264z"
	/>
<path d="M30.25,13.237l-5.5,9.526"/>
<path d="M24.749,24.264c-0.254,0-0.512-0.065-0.749-0.202c-0.717-0.414-0.963-1.332-0.549-2.049l5.5-9.526
	c0.414-0.718,1.332-0.963,2.049-0.549c0.718,0.414,0.963,1.332,0.549,2.049l-5.5,9.526C25.771,23.994,25.267,24.264,24.749,24.264z"
	/>
<path d="M22,37h11"/>
<path d="M33,38.5H22c-0.829,0-1.5-0.672-1.5-1.5s0.671-1.5,1.5-1.5h11c0.828,0,1.5,0.672,1.5,1.5S33.828,38.5,33,38.5z"/>
<path d="M24.75,32.236l5.5,9.527"/>
<path d="M30.251,43.264c-0.518,0-1.022-0.269-1.3-0.75l-5.5-9.527c-0.415-0.718-0.168-1.635,0.549-2.049
	c0.719-0.415,1.636-0.169,2.049,0.549l5.5,9.527c0.414,0.718,0.169,1.635-0.549,2.049C30.764,43.199,30.506,43.264,30.251,43.264z"
	/>
<path d="M30.25,32.236l-5.5,9.527"/>
<path d="M24.749,43.264c-0.254,0-0.512-0.064-0.749-0.201c-0.717-0.414-0.963-1.331-0.549-2.049l5.5-9.527
	c0.414-0.719,1.332-0.963,2.049-0.549c0.718,0.414,0.963,1.331,0.549,2.049l-5.5,9.527C25.771,42.995,25.267,43.264,24.749,43.264z"
	/>
</svg>
