<?xml version="1.0" encoding="utf-8"?>
<!-- Generator: Adobe Illustrator 16.0.3, SVG Export Plug-In . SVG Version: 6.00 Build 0)  -->
<!DOCTYPE svg PUBLIC "-//W3C//DTD SVG 1.1//EN" "http://www.w3.org/Graphics/SVG/1.1/DTD/svg11.dtd">
<svg version="1.1"
	 id="svg3190" xmlns:dc="http://purl.org/dc/elements/1.1/" xmlns:cc="http://creativecommons.org/ns#" xmlns:rdf="http://www.w3.org/1999/02/22-rdf-syntax-ns#" xmlns:svg="http://www.w3.org/2000/svg"
	 xmlns="http://www.w3.org/2000/svg" xmlns:xlink="http://www.w3.org/1999/xlink" x="0px" y="0px" width="55px" height="55px"
	 viewBox="0 0 55 55" enable-background="new 0 0 55 55" xml:space="preserve">
<polygon points="36.689,47.119 23.801,34.231 34.376,19.059 17.25,19.059 17.25,16.059 40.124,16.059 27.699,33.886 38.811,44.998 
	"/>
<rect x="19.75" y="17.559" width="3" height="31.5"/>
<path d="M36.75,46.059h1v-1L36.75,46.059z"/>
<polygon points="39.25,47.559 33.129,47.559 39.25,41.438 "/>
<path d="M26.226,9.031h7.347"/>
<path d="M33.572,10.531h-7.347c-0.829,0-1.5-0.671-1.5-1.5s0.671-1.5,1.5-1.5h7.347c0.828,0,1.5,0.671,1.5,1.5
	S34.4,10.531,33.572,10.531z"/>
<path d="M28.063,5.941l3.674,6.179"/>
<path d="M31.737,13.62c-0.512,0-1.01-0.262-1.29-0.733l-3.674-6.179c-0.424-0.712-0.189-1.632,0.522-2.056
	c0.712-0.422,1.633-0.189,2.056,0.522l3.674,6.179c0.424,0.712,0.189,1.632-0.522,2.056C32.263,13.552,31.998,13.62,31.737,13.62z"
	/>
<path d="M31.736,5.941l-3.674,6.179"/>
<path d="M28.062,13.62c-0.261,0-0.525-0.068-0.766-0.211c-0.712-0.423-0.946-1.344-0.522-2.056l3.674-6.179
	c0.423-0.713,1.345-0.947,2.056-0.522c0.712,0.423,0.946,1.344,0.522,2.056l-3.674,6.179C29.071,13.358,28.572,13.62,28.062,13.62z"
	/>
</svg>
