<?xml version="1.0" encoding="utf-8"?>
<!-- Generator: Adobe Illustrator 16.0.3, SVG Export Plug-In . SVG Version: 6.00 Build 0)  -->
<!DOCTYPE svg PUBLIC "-//W3C//DTD SVG 1.1//EN" "http://www.w3.org/Graphics/SVG/1.1/DTD/svg11.dtd">
<svg version="1.1"
	 id="svg2" xmlns:dc="http://purl.org/dc/elements/1.1/" xmlns:cc="http://creativecommons.org/ns#" xmlns:rdf="http://www.w3.org/1999/02/22-rdf-syntax-ns#" xmlns:svg="http://www.w3.org/2000/svg"
	 xmlns="http://www.w3.org/2000/svg" xmlns:xlink="http://www.w3.org/1999/xlink" x="0px" y="0px" width="55px" height="55px"
	 viewBox="0 0 55 55" enable-background="new 0 0 55 55" xml:space="preserve">
<g id="ww_20">
	<g id="circle6">
		<circle cx="24.25" cy="27.5" r="5.5"/>
	</g>
	<g id="path8">
		<path d="M23.251,38.2c-0.465,0-0.923-0.215-1.216-0.62c-0.486-0.671-0.336-1.608,0.335-2.095c2.702-1.957,4.38-5.017,4.38-7.985
			c0-0.829,0.671-1.5,1.5-1.5c0.828,0,1.5,0.671,1.5,1.5c0,3.973-2.101,7.866-5.62,10.415C23.864,38.107,23.556,38.2,23.251,38.2z"
			/>
	</g>
	<g id="path10">
		<polygon points="37.75,50 29.25,50 29.25,47 34.75,47 34.75,8 29.25,8 29.25,5 37.75,5 		"/>
	</g>
</g>
</svg>
