<?xml version="1.0" encoding="utf-8"?>
<!-- Generator: Adobe Illustrator 16.0.3, SVG Export Plug-In . SVG Version: 6.00 Build 0)  -->
<!DOCTYPE svg PUBLIC "-//W3C//DTD SVG 1.1//EN" "http://www.w3.org/Graphics/SVG/1.1/DTD/svg11.dtd">
<svg version="1.1"
	 id="svg3131" xmlns:dc="http://purl.org/dc/elements/1.1/" xmlns:cc="http://creativecommons.org/ns#" xmlns:rdf="http://www.w3.org/1999/02/22-rdf-syntax-ns#" xmlns:svg="http://www.w3.org/2000/svg"
	 xmlns="http://www.w3.org/2000/svg" xmlns:xlink="http://www.w3.org/1999/xlink" x="0px" y="0px" width="55px" height="55px"
	 viewBox="0 0 55 55" enable-background="new 0 0 55 55" xml:space="preserve">
<g id="ww_07" transform="matrix(0.89373537,0,0,0.80096534,-16.492565,-5.0105932)">
	<g id="path3135">
		<path d="M32.439,55.581c-6.164,0-11.178-5.101-11.178-11.372h3.357c0,4.205,3.509,7.626,7.821,7.626
			c4.313,0,7.822-3.421,7.822-7.626c0-4.206-3.509-7.628-7.822-7.628c-6.164,0-11.178-5.102-11.178-11.372
			c0-6.271,5.014-11.373,11.178-11.373c6.164,0,11.179,5.102,11.179,11.373h-3.357c0-4.206-3.509-7.628-7.822-7.628
			c-4.313,0-7.821,3.422-7.821,7.628c0,4.206,3.509,7.627,7.821,7.627c6.164,0,11.179,5.102,11.179,11.373
			C43.618,50.48,38.603,55.581,32.439,55.581z"/>
	</g>
	<g id="path3137">
		<rect x="30.961" y="15.486" width="2.955" height="38.447"/>
	</g>
	<g id="path5800">
		<path d="M39.319,68.148l-1.275-0.802c6.474-12.82,12.717-26.299,18.753-39.335c1.879-4.057,3.722-8.034,5.518-11.877l1.298,0.755
			c-1.796,3.842-3.638,7.817-5.516,11.872C52.054,41.809,45.805,55.301,39.319,68.148z"/>
	</g>
	<g id="g6607" transform="matrix(0.56185649,0,0,1.1267411,12.388197,-3.3141143)">
		<g id="ww_08" transform="matrix(0,-0.7969285,1.3219095,0,36.523498,14.95909)">
			<g id="path3001">
				<path d="M-65.186,31.962l3.571-3.84c4.758,5.198,9.459,9.271,13.886,12.374c10.804-7.197,20.207-8.63,26.074-6.089
					c3.98,1.723,6.263,5.259,6.263,9.702c0,4.096-2.069,7.368-5.677,8.977c-5.775,2.576-15.572,0.831-26.575-6.13
					c-4.125,3.048-8.541,7.07-13.111,12.277l-3.644-3.757c4.126-4.702,8.209-8.573,12.155-11.69
					C-56.492,40.617-60.856,36.693-65.186,31.962z M-20.422,44.109c0-2.189-1.043-3.752-3.099-4.642
					c-3.562-1.542-10.491-0.927-19.193,4.21c8.846,5.023,16.1,5.988,19.731,4.368C-21.236,47.266-20.422,46.016-20.422,44.109z"/>
			</g>
		</g>
	</g>
</g>
</svg>
