<?xml version="1.0" encoding="utf-8"?>
<!-- Generator: Adobe Illustrator 16.0.3, SVG Export Plug-In . SVG Version: 6.00 Build 0)  -->
<!DOCTYPE svg PUBLIC "-//W3C//DTD SVG 1.1//EN" "http://www.w3.org/Graphics/SVG/1.1/DTD/svg11.dtd">
<svg version="1.1"
	 id="svg2" xmlns:dc="http://purl.org/dc/elements/1.1/" xmlns:cc="http://creativecommons.org/ns#" xmlns:rdf="http://www.w3.org/1999/02/22-rdf-syntax-ns#" xmlns:svg="http://www.w3.org/2000/svg"
	 xmlns="http://www.w3.org/2000/svg" xmlns:xlink="http://www.w3.org/1999/xlink" x="0px" y="0px" width="55px" height="55px"
	 viewBox="0 0 55 55" enable-background="new 0 0 55 55" xml:space="preserve">
<g id="ww_08">
	<g id="path6">
		<path d="M30.142,49.711c-2.255,0-4.638-0.339-6.748-1.057C18.787,47.087,16.25,44.014,16.25,40c0-2.362,0.617-4.472,1.809-6.25
			c-1.192-1.778-1.809-3.888-1.809-6.25c0-2.362,0.617-4.472,1.809-6.25c-1.192-1.778-1.809-3.888-1.809-6.25
			c0-4.526,3.405-7.87,9.342-9.174c4.554-0.999,11.609-0.758,13.02,2.296l-2.725,1.257l0.018,0.032
			c-0.667-0.913-6.176-1.882-11.254-0.226C22.188,9.989,19.25,11.65,19.25,15c0,1.473,0.306,2.786,0.915,3.933
			c0.242-0.201,0.494-0.395,0.757-0.581c2.432-1.721,5.735-2.708,9.062-2.708c5.161,0,8.766,2.305,8.766,5.605
			s-3.604,5.605-8.766,5.605c-3.327,0-6.63-0.987-9.062-2.708c-0.263-0.186-0.516-0.379-0.757-0.581
			c-0.609,1.146-0.915,2.46-0.915,3.933s0.306,2.786,0.915,3.933c0.242-0.201,0.494-0.395,0.757-0.581
			c2.432-1.72,5.735-2.707,9.062-2.707c5.161,0,8.766,2.305,8.766,5.605s-3.604,5.605-8.766,5.605c-3.327,0-6.63-0.987-9.062-2.707
			c-0.263-0.187-0.516-0.38-0.757-0.581c-0.609,1.146-0.915,2.46-0.915,3.933c0,2.705,1.719,4.661,5.11,5.814
			c4.917,1.672,10.783,0.716,11.702-0.479l2.377,1.83C37.178,48.805,33.829,49.711,30.142,49.711z M22.07,33.75
			c0.186,0.155,0.381,0.305,0.585,0.449c1.938,1.37,4.609,2.156,7.33,2.156c3.233,0,5.766-1.145,5.766-2.605
			s-2.532-2.605-5.766-2.605c-2.721,0-5.392,0.786-7.33,2.156C22.451,33.445,22.256,33.595,22.07,33.75z M22.07,21.25
			c0.186,0.155,0.381,0.305,0.585,0.449c1.938,1.371,4.609,2.157,7.33,2.157c3.233,0,5.766-1.145,5.766-2.605
			s-2.532-2.605-5.766-2.605c-2.721,0-5.392,0.786-7.33,2.157C22.451,20.945,22.256,21.095,22.07,21.25z"/>
	</g>
</g>
</svg>
