<?xml version="1.0" encoding="utf-8"?>
<!-- Generator: Adobe Illustrator 16.0.3, SVG Export Plug-In . SVG Version: 6.00 Build 0)  -->
<!DOCTYPE svg PUBLIC "-//W3C//DTD SVG 1.1//EN" "http://www.w3.org/Graphics/SVG/1.1/DTD/svg11.dtd">
<svg version="1.1"
	 id="svg2" xmlns:dc="http://purl.org/dc/elements/1.1/" xmlns:cc="http://creativecommons.org/ns#" xmlns:rdf="http://www.w3.org/1999/02/22-rdf-syntax-ns#" xmlns:svg="http://www.w3.org/2000/svg"
	 xmlns="http://www.w3.org/2000/svg" xmlns:xlink="http://www.w3.org/1999/xlink" x="0px" y="0px" width="55px" height="55px"
	 viewBox="0 0 55 55" enable-background="new 0 0 55 55" xml:space="preserve">
<g id="ww_55">
	<g id="g5" transform="translate(11,0)">
		<g id="ww_50">
			<g id="circle8">
				<circle cx="27.5" cy="25.65" r="5.5"/>
			</g>
			<g id="path10">
				<path d="M26.501,36.35c-0.465,0-0.923-0.215-1.216-0.62c-0.486-0.671-0.336-1.609,0.335-2.095C28.322,31.679,30,28.619,30,25.65
					c0-0.829,0.672-1.5,1.5-1.5s1.5,0.671,1.5,1.5c0,3.974-2.102,7.867-5.62,10.415C27.114,36.257,26.806,36.35,26.501,36.35z"/>
			</g>
		</g>
	</g>
	<g id="use12" xlink:href="#ww_50">
		<g id="ww_50_1_">
			<g id="circle8_1_">
				<circle cx="16.5" cy="25.65" r="5.5"/>
			</g>
			<g id="path10_1_">
				<path d="M15.501,36.35c-0.465,0-0.923-0.215-1.216-0.62c-0.486-0.671-0.336-1.609,0.335-2.095C17.322,31.679,19,28.619,19,25.65
					c0-0.829,0.671-1.5,1.5-1.5s1.5,0.671,1.5,1.5c0,3.973-2.101,7.867-5.62,10.415C16.114,36.257,15.806,36.35,15.501,36.35z"/>
			</g>
		</g>
	</g>
	<g id="use14" xlink:href="#ww_50">
		<g id="ww_50_2_">
			<g id="circle8_2_">
				<circle cx="27.5" cy="14.65" r="5.5"/>
			</g>
			<g id="path10_2_">
				<path d="M26.501,25.35c-0.465,0-0.923-0.215-1.216-0.62c-0.486-0.671-0.336-1.609,0.335-2.095C28.322,20.679,30,17.619,30,14.65
					c0-0.829,0.672-1.5,1.5-1.5s1.5,0.671,1.5,1.5c0,3.974-2.101,7.867-5.62,10.415C27.114,25.257,26.806,25.35,26.501,25.35z"/>
			</g>
		</g>
	</g>
	<g id="use16" xlink:href="#ww_50">
		<g id="ww_50_3_">
			<g id="circle8_3_">
				<circle cx="27.5" cy="36.65" r="5.5"/>
			</g>
			<g id="path10_3_">
				<path d="M26.501,47.35c-0.465,0-0.923-0.215-1.216-0.62c-0.486-0.671-0.336-1.609,0.335-2.095C28.322,42.679,30,39.62,30,36.65
					c0-0.828,0.672-1.5,1.5-1.5s1.5,0.672,1.5,1.5c0,3.974-2.102,7.866-5.621,10.414C27.114,47.257,26.806,47.35,26.501,47.35z"/>
			</g>
		</g>
	</g>
</g>
</svg>
