<?xml version="1.0" encoding="utf-8"?>
<!-- Generator: Adobe Illustrator 16.0.3, SVG Export Plug-In . SVG Version: 6.00 Build 0)  -->
<!DOCTYPE svg PUBLIC "-//W3C//DTD SVG 1.1//EN" "http://www.w3.org/Graphics/SVG/1.1/DTD/svg11.dtd">
<svg version="1.1"
	 id="svg2" xmlns:dc="http://purl.org/dc/elements/1.1/" xmlns:cc="http://creativecommons.org/ns#" xmlns:rdf="http://www.w3.org/1999/02/22-rdf-syntax-ns#" xmlns:svg="http://www.w3.org/2000/svg"
	 xmlns="http://www.w3.org/2000/svg" xmlns:xlink="http://www.w3.org/1999/xlink" x="0px" y="0px" width="55px" height="55px"
	 viewBox="0 0 55 55" enable-background="new 0 0 55 55" xml:space="preserve">
<g id="ww_98">
	<g id="path6">
		<path d="M27.75,16.5c-2.068,0-3.75-1.682-3.75-3.75h1.5c0,1.241,1.009,2.25,2.25,2.25c1.24,0,2.25-1.009,2.25-2.25
			s-1.01-2.25-2.25-2.25C25.682,10.5,24,8.818,24,6.75S25.682,3,27.75,3c2.067,0,3.75,1.682,3.75,3.75H30
			c0-1.241-1.01-2.25-2.25-2.25c-1.241,0-2.25,1.009-2.25,2.25S26.509,9,27.75,9c2.067,0,3.75,1.682,3.75,3.75
			S29.817,16.5,27.75,16.5z"/>
	</g>
	<g id="path8">
		<rect x="20.75" y="9" width="14" height="1.5"/>
	</g>
	<g id="path10">
		<path d="M34.75,9.75v-0.5l0.5,0.5l-0.5,0.5V9.75z"/>
		<polygon points="34,12.061 34,7.439 36.311,9.75 		"/>
	</g>
	<g id="path12">
		<polygon points="36.689,49.311 23.801,36.423 34.376,21.25 17.25,21.25 17.25,18.25 40.124,18.25 27.699,36.077 38.811,47.189 		
			"/>
	</g>
	<g id="path14">
		<rect x="19.75" y="19.75" width="3" height="31.5"/>
	</g>
	<g id="path16">
		<path d="M36.75,48.25h1v-1L36.75,48.25z"/>
		<polygon points="39.25,49.75 33.129,49.75 39.25,43.629 		"/>
	</g>
</g>
</svg>
