<?xml version="1.0" encoding="utf-8"?>
<!-- Generator: Adobe Illustrator 16.0.3, SVG Export Plug-In . SVG Version: 6.00 Build 0)  -->
<!DOCTYPE svg PUBLIC "-//W3C//DTD SVG 1.1//EN" "http://www.w3.org/Graphics/SVG/1.1/DTD/svg11.dtd">
<svg version="1.1"
	 id="svg2" xmlns:dc="http://purl.org/dc/elements/1.1/" xmlns:cc="http://creativecommons.org/ns#" xmlns:rdf="http://www.w3.org/1999/02/22-rdf-syntax-ns#" xmlns:svg="http://www.w3.org/2000/svg"
	 xmlns="http://www.w3.org/2000/svg" xmlns:xlink="http://www.w3.org/1999/xlink" x="0px" y="0px" width="55px" height="55px"
	 viewBox="0 0 55 55" enable-background="new 0 0 55 55" xml:space="preserve">
<g id="ww_32">
	<g id="g5">
		<g id="arc">
			<path d="M30.5,29C24.71,29,20,24.29,20,18.5S24.71,8,30.5,8C36.29,8,41,12.71,41,18.5h-3c0-4.136-3.364-7.5-7.5-7.5
				S23,14.364,23,18.5s3.364,7.5,7.5,7.5V29z"/>
		</g>
		<g id="arc2">
			<path d="M30.5,47C24.71,47,20,42.29,20,36.5h3c0,4.136,3.364,7.5,7.5,7.5s7.5-3.364,7.5-7.5S34.636,29,30.5,29v-3
				C36.29,26,41,30.71,41,36.5S36.29,47,30.5,47z"/>
		</g>
	</g>
	<g id="path9">
		<rect x="7" y="7.5" width="3" height="40"/>
	</g>
	<g id="path11">
		<polygon points="43.5,31.303 43.5,29 14,29 14,26 43.5,26 43.5,23.697 49.204,27.5 		"/>
	</g>
</g>
</svg>
