<?xml version="1.0" encoding="utf-8"?>
<!-- Generator: Adobe Illustrator 16.0.3, SVG Export Plug-In . SVG Version: 6.00 Build 0)  -->
<!DOCTYPE svg PUBLIC "-//W3C//DTD SVG 1.1//EN" "http://www.w3.org/Graphics/SVG/1.1/DTD/svg11.dtd">
<svg version="1.1"
	 id="svg2" xmlns:dc="http://purl.org/dc/elements/1.1/" xmlns:cc="http://creativecommons.org/ns#" xmlns:rdf="http://www.w3.org/1999/02/22-rdf-syntax-ns#" xmlns:svg="http://www.w3.org/2000/svg"
	 xmlns="http://www.w3.org/2000/svg" xmlns:xlink="http://www.w3.org/1999/xlink" x="0px" y="0px" width="55px" height="55px"
	 viewBox="0 0 55 55" enable-background="new 0 0 55 55" xml:space="preserve">
<path d="M16.206,23.066c2.126,0,3.85,1.724,3.85,3.85c0,2.122-1.724,3.836-3.85,3.836s-3.85-1.715-3.85-3.836
	C12.356,24.79,14.08,23.066,16.206,23.066z"/>
<path d="M15.107,34.83c-0.466,0-0.925-0.216-1.218-0.623c-0.484-0.672-0.332-1.609,0.34-2.094c1.774-1.279,2.877-3.271,2.877-5.197
	c0-0.829,0.671-1.5,1.5-1.5s1.5,0.671,1.5,1.5c0,2.917-1.542,5.77-4.123,7.63C15.717,34.738,15.411,34.83,15.107,34.83z"/>
<path d="M36.172,23.066c2.115,0,3.83,1.724,3.83,3.85c0,2.122-1.715,3.836-3.83,3.836c-2.122,0-3.837-1.715-3.837-3.836
	C32.335,24.79,34.05,23.066,36.172,23.066z"/>
<path d="M35.077,34.83c-0.464,0-0.923-0.215-1.216-0.62c-0.486-0.671-0.336-1.608,0.335-2.095c1.766-1.279,2.862-3.271,2.862-5.199
	c0-0.829,0.672-1.5,1.5-1.5s1.5,0.671,1.5,1.5c0,2.916-1.533,5.767-4.103,7.628C35.69,34.737,35.383,34.83,35.077,34.83z"/>
<path d="M36.172,38.373c-6.322,0-11.466-5.14-11.466-11.457c0-0.829,0.671-1.5,1.5-1.5s1.5,0.671,1.5,1.5
	c0,4.663,3.798,8.457,8.466,8.457c4.66,0,8.451-3.794,8.451-8.457v-2c0-0.829,0.672-1.5,1.5-1.5s1.5,0.671,1.5,1.5v2
	C47.623,33.233,42.486,38.373,36.172,38.373z"/>
<path d="M6.206,30.412c-0.829,0-1.5-0.672-1.5-1.5v-1.996c0-6.341,5.159-11.5,11.5-11.5s11.5,5.159,11.5,11.5
	c0,0.829-0.671,1.5-1.5,1.5s-1.5-0.671-1.5-1.5c0-4.687-3.813-8.5-8.5-8.5s-8.5,3.813-8.5,8.5v1.996
	C7.706,29.74,7.035,30.412,6.206,30.412z"/>
</svg>
