<?xml version="1.0" encoding="utf-8"?>
<!-- Generator: Adobe Illustrator 16.0.3, SVG Export Plug-In . SVG Version: 6.00 Build 0)  -->
<!DOCTYPE svg PUBLIC "-//W3C//DTD SVG 1.1//EN" "http://www.w3.org/Graphics/SVG/1.1/DTD/svg11.dtd">
<svg version="1.1"
	 id="svg2" xmlns:dc="http://purl.org/dc/elements/1.1/" xmlns:cc="http://creativecommons.org/ns#" xmlns:rdf="http://www.w3.org/1999/02/22-rdf-syntax-ns#" xmlns:svg="http://www.w3.org/2000/svg"
	 xmlns="http://www.w3.org/2000/svg" xmlns:xlink="http://www.w3.org/1999/xlink" x="0px" y="0px" width="55px" height="55px"
	 viewBox="0 0 55 55" enable-background="new 0 0 55 55" xml:space="preserve">
<g id="ww_15">
	<g id="circle6">
		<circle cx="27.5" cy="27.5" r="5.5"/>
	</g>
	<g id="path8">
		<path d="M44.99,47.109c-0.623-0.567-1.224-1.168-1.785-1.784c-9.828-10.814-9.026-27.607,1.786-37.435l2.018,2.22
			c-9.588,8.716-10.299,23.608-1.584,33.197c0.497,0.546,1.03,1.079,1.585,1.584L44.99,47.109z M10.01,47.109l-2.02-2.219
			c0.555-0.505,1.088-1.038,1.585-1.584c8.715-9.59,8.005-24.481-1.584-33.197l2.018-2.22c10.813,9.828,11.614,26.621,1.786,37.434
			C11.235,45.94,10.634,46.541,10.01,47.109z"/>
	</g>
</g>
</svg>
