<?xml version="1.0" encoding="utf-8"?>
<!-- Generator: Adobe Illustrator 16.0.3, SVG Export Plug-In . SVG Version: 6.00 Build 0)  -->
<!DOCTYPE svg PUBLIC "-//W3C//DTD SVG 1.1//EN" "http://www.w3.org/Graphics/SVG/1.1/DTD/svg11.dtd">
<svg version="1.1"
	 id="svg2997" xmlns:dc="http://purl.org/dc/elements/1.1/" xmlns:cc="http://creativecommons.org/ns#" xmlns:rdf="http://www.w3.org/1999/02/22-rdf-syntax-ns#" xmlns:svg="http://www.w3.org/2000/svg"
	 xmlns="http://www.w3.org/2000/svg" xmlns:xlink="http://www.w3.org/1999/xlink" x="0px" y="0px" width="55px" height="55px"
	 viewBox="0 0 55 55" enable-background="new 0 0 55 55" xml:space="preserve">
<g id="ww_08" transform="matrix(0,-1,1,0,-0.75,-0.75)">
	<g id="path3001">
		<path d="M-51.918,15.438l1.844-1.688c4.974,5.434,9.969,9.757,14.719,13.04c10.395-7.106,19.482-8.791,25.167-6.649
			c3.772,1.42,5.935,4.526,5.935,8.521c0,3.69-1.891,6.458-5.324,7.792c-5.614,2.182-15.093,0.209-25.684-6.654
			c-4.468,3.22-9.192,7.485-13.973,12.932l-1.879-1.648c4.646-5.294,9.242-9.516,13.637-12.779
			C-42.19,24.989-47.082,20.722-51.918,15.438z M-6.753,28.662c0-2.981-1.493-5.119-4.316-6.182
			c-4.763-1.793-12.736-0.285-22.01,5.816c9.448,5.973,17.717,7.723,22.597,5.828C-8.043,33.175-6.753,31.286-6.753,28.662z"/>
	</g>
</g>
</svg>
