<?xml version="1.0" encoding="utf-8"?>
<!-- Generator: Adobe Illustrator 16.0.3, SVG Export Plug-In . SVG Version: 6.00 Build 0)  -->
<!DOCTYPE svg PUBLIC "-//W3C//DTD SVG 1.1//EN" "http://www.w3.org/Graphics/SVG/1.1/DTD/svg11.dtd">
<svg version="1.1"
	 id="svg2" xmlns:dc="http://purl.org/dc/elements/1.1/" xmlns:cc="http://creativecommons.org/ns#" xmlns:rdf="http://www.w3.org/1999/02/22-rdf-syntax-ns#" xmlns:svg="http://www.w3.org/2000/svg"
	 xmlns="http://www.w3.org/2000/svg" xmlns:xlink="http://www.w3.org/1999/xlink" x="0px" y="0px" width="55px" height="55px"
	 viewBox="0 0 55 55" enable-background="new 0 0 55 55" xml:space="preserve">
<path d="M17.75,15h11"/>
<path d="M28.75,16.5h-11c-0.829,0-1.5-0.671-1.5-1.5s0.671-1.5,1.5-1.5h11c0.828,0,1.5,0.671,1.5,1.5S29.578,16.5,28.75,16.5z"/>
<path d="M20.5,10.237l5.5,9.526"/>
<path d="M26.001,21.264c-0.519,0-1.022-0.269-1.3-0.75l-5.5-9.526c-0.415-0.717-0.168-1.635,0.549-2.049
	c0.719-0.415,1.636-0.168,2.049,0.549l5.5,9.526c0.415,0.717,0.168,1.635-0.549,2.049C26.514,21.199,26.256,21.264,26.001,21.264z"
	/>
<path d="M26,10.237l-5.5,9.526"/>
<path d="M20.499,21.264c-0.254,0-0.512-0.065-0.749-0.202c-0.717-0.414-0.963-1.332-0.549-2.049l5.5-9.526
	c0.415-0.717,1.331-0.964,2.049-0.549c0.717,0.414,0.963,1.332,0.549,2.049l-5.5,9.526C21.521,20.994,21.017,21.264,20.499,21.264z"
	/>
<g id="path14">
	<path d="M23.25,48.835L12.482,23.5h21.536L23.25,48.835z M17.018,26.5l6.232,14.665L29.482,26.5H17.018z"/>
</g>
<g id="path16">
	<polygon points="41.75,52 33.25,52 33.25,49 38.75,49 38.75,6 33.25,6 33.25,3 41.75,3 	"/>
</g>
</svg>
