<?xml version="1.0" encoding="utf-8"?>
<!-- Generator: Adobe Illustrator 16.0.3, SVG Export Plug-In . SVG Version: 6.00 Build 0)  -->
<!DOCTYPE svg PUBLIC "-//W3C//DTD SVG 1.1//EN" "http://www.w3.org/Graphics/SVG/1.1/DTD/svg11.dtd">
<svg version="1.1"
	 id="svg2" xmlns:dc="http://purl.org/dc/elements/1.1/" xmlns:cc="http://creativecommons.org/ns#" xmlns:rdf="http://www.w3.org/1999/02/22-rdf-syntax-ns#" xmlns:svg="http://www.w3.org/2000/svg"
	 xmlns="http://www.w3.org/2000/svg" xmlns:xlink="http://www.w3.org/1999/xlink" x="0px" y="0px" width="55px" height="55px"
	 viewBox="0 0 55 55" enable-background="new 0 0 55 55" xml:space="preserve">
<g id="ww_26">
	<g id="ww_85" transform="translate(-4,3)">
		<g id="g7" transform="translate(0,-15.5)">
			<g id="ww70arm">
				<path d="M21.75,27.5h11"/>
				<path d="M32.75,29h-11c-0.829,0-1.5-0.671-1.5-1.5s0.671-1.5,1.5-1.5h11c0.828,0,1.5,0.671,1.5,1.5S33.578,29,32.75,29z"/>
			</g>
			<g id="use10" transform="matrix(0.5,0.8660254,-0.8660254,0.5,0,0)" xlink:href="#ww70arm">
				<g id="ww70arm_1_">
					<path d="M24.5,22.737l5.5,9.526"/>
					<path d="M30.001,33.764c-0.519,0-1.022-0.269-1.3-0.75l-5.5-9.526c-0.415-0.717-0.168-1.635,0.549-2.049
						c0.719-0.415,1.636-0.168,2.049,0.549l5.5,9.526c0.415,0.717,0.168,1.635-0.549,2.049
						C30.514,33.699,30.256,33.764,30.001,33.764z"/>
				</g>
			</g>
			<g id="use12" transform="matrix(-0.5,0.8660254,-0.8660254,-0.5,0,0)" xlink:href="#ww70arm">
				<g id="ww70arm_2_">
					<path d="M30,22.737l-5.5,9.526"/>
					<path d="M24.499,33.764c-0.254,0-0.512-0.065-0.749-0.202c-0.717-0.414-0.963-1.332-0.549-2.049l5.5-9.526
						c0.415-0.717,1.331-0.964,2.049-0.549c0.717,0.414,0.963,1.332,0.549,2.049l-5.5,9.526
						C25.521,33.494,25.017,33.764,24.499,33.764z"/>
				</g>
			</g>
		</g>
		<g id="path14">
			<path d="M27.25,45.835L16.482,20.5h21.535L27.25,45.835z M21.018,23.5l6.232,14.665L33.482,23.5H21.018z"/>
		</g>
	</g>
	<g id="path16">
		<polygon points="41.75,52 33.25,52 33.25,49 38.75,49 38.75,6 33.25,6 33.25,3 41.75,3 		"/>
	</g>
</g>
</svg>
