<?xml version="1.0" encoding="utf-8"?>
<!-- Generator: Adobe Illustrator 16.0.3, SVG Export Plug-In . SVG Version: 6.00 Build 0)  -->
<!DOCTYPE svg PUBLIC "-//W3C//DTD SVG 1.1//EN" "http://www.w3.org/Graphics/SVG/1.1/DTD/svg11.dtd">
<svg version="1.1"
	 id="svg2" xmlns:dc="http://purl.org/dc/elements/1.1/" xmlns:cc="http://creativecommons.org/ns#" xmlns:rdf="http://www.w3.org/1999/02/22-rdf-syntax-ns#" xmlns:svg="http://www.w3.org/2000/svg"
	 xmlns="http://www.w3.org/2000/svg" xmlns:xlink="http://www.w3.org/1999/xlink" x="0px" y="0px" width="55px" height="55px"
	 viewBox="0 0 55 55" enable-background="new 0 0 55 55" xml:space="preserve">
<g>
	<g id="g5" transform="translate(-9.5,0)">
		<g id="ww_70">
			<g id="ww70arm">
				<path d="M27.5,22v11"/>
				<path d="M27.5,34.5c-0.829,0-1.5-0.672-1.5-1.5V22c0-0.829,0.671-1.5,1.5-1.5S29,21.171,29,22v11
					C29,33.828,28.329,34.5,27.5,34.5z"/>
			</g>
			<g id="use9" transform="matrix(0.5,0.8660254,-0.8660254,0.5,0,0)" xlink:href="#ww70arm">
				<g id="ww70arm_1_">
					<path d="M32.263,24.75l-9.526,5.5"/>
					<path d="M22.738,31.75c-0.519,0-1.022-0.269-1.3-0.75c-0.415-0.718-0.168-1.635,0.549-2.049l9.526-5.5
						c0.719-0.415,1.635-0.169,2.049,0.549c0.415,0.717,0.168,1.635-0.549,2.049l-9.526,5.5C23.25,31.686,22.993,31.75,22.738,31.75
						z"/>
				</g>
			</g>
			<g id="use11" transform="matrix(-0.5,0.8660254,-0.8660254,-0.5,0,0)" xlink:href="#ww70arm">
				<g id="ww70arm_2_">
					<path d="M32.263,30.25l-9.526-5.5"/>
					<path d="M32.262,31.75c-0.254,0-0.512-0.064-0.749-0.201l-9.526-5.5c-0.717-0.414-0.963-1.332-0.549-2.049
						c0.415-0.716,1.332-0.963,2.049-0.549l9.526,5.5c0.717,0.414,0.963,1.331,0.549,2.049C33.284,31.481,32.78,31.75,32.262,31.75z
						"/>
				</g>
			</g>
		</g>
	</g>
	<g id="ww_71">
		<g id="ww_70_1_">
			<g id="ww70arm_3_">
				<path d="M37,22v11"/>
				<path d="M37,34.5c-0.828,0-1.5-0.672-1.5-1.5V22c0-0.829,0.672-1.5,1.5-1.5s1.5,0.671,1.5,1.5v11
					C38.5,33.828,37.828,34.5,37,34.5z"/>
			</g>
			<g id="use9_1_" transform="matrix(0.5,0.8660254,-0.8660254,0.5,0,0)" xlink:href="#ww70arm">
				<g id="ww70arm_4_">
					<path d="M41.764,24.75l-9.527,5.5"/>
					<path d="M32.237,31.75c-0.518,0-1.022-0.269-1.3-0.75c-0.414-0.718-0.169-1.635,0.549-2.049l9.527-5.5
						c0.716-0.415,1.635-0.169,2.049,0.549c0.414,0.717,0.169,1.635-0.549,2.049l-9.527,5.5C32.75,31.686,32.492,31.75,32.237,31.75
						z"/>
				</g>
			</g>
			<g id="use13" transform="matrix(-0.5,0.8660254,-0.8660254,-0.5,0,0)" xlink:href="#ww_70">
				<g id="ww70arm_5_">
					<path d="M41.764,30.25l-9.527-5.5"/>
					<path d="M41.763,31.75c-0.255,0-0.513-0.064-0.749-0.201l-9.527-5.5c-0.718-0.414-0.963-1.332-0.549-2.049
						c0.414-0.718,1.333-0.963,2.049-0.549l9.527,5.5c0.718,0.414,0.963,1.331,0.549,2.049C42.785,31.481,42.28,31.75,41.763,31.75z
						"/>
				</g>
			</g>
		</g>
	</g>
</g>
</svg>
