<?xml version="1.0" encoding="utf-8"?>
<!-- Generator: Adobe Illustrator 16.0.3, SVG Export Plug-In . SVG Version: 6.00 Build 0)  -->
<!DOCTYPE svg PUBLIC "-//W3C//DTD SVG 1.1//EN" "http://www.w3.org/Graphics/SVG/1.1/DTD/svg11.dtd">
<svg version="1.1"
	 id="svg3131" xmlns:dc="http://purl.org/dc/elements/1.1/" xmlns:cc="http://creativecommons.org/ns#" xmlns:rdf="http://www.w3.org/1999/02/22-rdf-syntax-ns#" xmlns:svg="http://www.w3.org/2000/svg"
	 xmlns="http://www.w3.org/2000/svg" xmlns:xlink="http://www.w3.org/1999/xlink" x="0px" y="0px" width="55px" height="55px"
	 viewBox="0 0 55 55" enable-background="new 0 0 55 55" xml:space="preserve">
<g id="path3135">
	<path d="M12.499,39.508c-5.509,0-9.99-4.086-9.99-9.108h3c0,3.368,3.136,6.108,6.99,6.108c3.855,0,6.991-2.74,6.991-6.108
		c0-3.369-3.136-6.109-6.991-6.109c-5.509,0-9.99-4.086-9.99-9.109c0-5.023,4.481-9.109,9.99-9.109c5.509,0,9.991,4.086,9.991,9.109
		h-3c0-3.369-3.136-6.109-6.991-6.109c-3.854,0-6.99,2.741-6.99,6.109s3.136,6.109,6.99,6.109c5.509,0,9.991,4.086,9.991,9.109
		C22.49,35.422,18.008,39.508,12.499,39.508z"/>
</g>
<g id="path3137">
	<rect x="11.021" y="3.567" width="2.955" height="38.447"/>
</g>
<g id="path5800">
	<path d="M18.648,49.573l-1.14-0.643c5.786-10.269,11.366-21.065,16.76-31.506c1.68-3.25,3.326-6.435,4.932-9.513l1.16,0.604
		c-1.605,3.078-3.251,6.261-4.93,9.509C30.03,28.477,24.445,39.283,18.648,49.573z"/>
</g>
<g id="g6607" transform="matrix(0.56185649,0,0,1.1267411,12.388197,-3.3141143)">
	<g id="ww_08" transform="matrix(0,-0.7969285,1.3219095,0,36.523498,14.95909)">
		<g id="path3001">
			<path d="M-43.63,1.651l2.86-3.432c3.811,4.645,7.576,8.286,11.123,11.059c8.654-6.432,16.185-7.713,20.885-5.442
				c3.188,1.54,5.016,4.701,5.016,8.671c0,3.661-1.657,6.585-4.547,8.023c-4.625,2.302-12.473,0.743-21.285-5.479
				c-3.304,2.724-6.841,6.319-10.502,10.972l-2.919-3.358c3.305-4.202,6.575-7.662,9.736-10.448
				C-36.666,9.387-40.162,5.88-43.63,1.651z M-7.776,12.508c0-1.956-0.835-3.353-2.482-4.148c-2.853-1.378-8.403-0.828-15.373,3.763
				c7.085,4.489,12.896,5.351,15.803,3.904C-8.428,15.33-7.776,14.212-7.776,12.508z"/>
		</g>
	</g>
</g>
</svg>
