<?xml version="1.0" encoding="utf-8"?>
<!-- Generator: Adobe Illustrator 16.0.3, SVG Export Plug-In . SVG Version: 6.00 Build 0)  -->
<!DOCTYPE svg PUBLIC "-//W3C//DTD SVG 1.1//EN" "http://www.w3.org/Graphics/SVG/1.1/DTD/svg11.dtd">
<svg version="1.1"
	 id="svg2" xmlns:dc="http://purl.org/dc/elements/1.1/" xmlns:cc="http://creativecommons.org/ns#" xmlns:rdf="http://www.w3.org/1999/02/22-rdf-syntax-ns#" xmlns:svg="http://www.w3.org/2000/svg"
	 xmlns="http://www.w3.org/2000/svg" xmlns:xlink="http://www.w3.org/1999/xlink" x="0px" y="0px" width="55px" height="55px"
	 viewBox="0 0 55 55" enable-background="new 0 0 55 55" xml:space="preserve">
<g id="ww_09">
	<g id="path6">
		<path d="M27.5,47C21.71,47,17,42.29,17,36.5h3c0,4.136,3.364,7.5,7.5,7.5s7.5-3.364,7.5-7.5S31.636,29,27.5,29
			C21.71,29,17,24.29,17,18.5S21.71,8,27.5,8C33.29,8,38,12.71,38,18.5h-3c0-4.136-3.364-7.5-7.5-7.5S20,14.364,20,18.5
			s3.364,7.5,7.5,7.5C33.29,26,38,30.71,38,36.5S33.29,47,27.5,47z"/>
	</g>
	<g id="path8">
		<polygon points="40.5,31.303 40.5,29 11,29 11,26 40.5,26 40.5,23.697 46.204,27.5 		"/>
	</g>
	<g id="path10">
		<path d="M42.438,48.17l-1.877-2.34c1.334-1.07,2.554-2.29,3.624-3.624c3.928-4.896,5.715-11.029,5.03-17.269
			c-0.685-6.24-3.759-11.839-8.654-15.768l1.877-2.34c5.521,4.429,8.987,10.744,9.759,17.78c0.772,7.036-1.242,13.952-5.672,19.473
			C45.318,45.588,43.943,46.963,42.438,48.17z M12.562,48.17C1.164,39.025-0.669,22.314,8.475,10.917
			c1.207-1.505,2.582-2.88,4.087-4.087l1.877,2.34c-1.334,1.07-2.554,2.29-3.624,3.624C2.706,22.901,4.332,37.721,14.438,45.83
			L12.562,48.17z"/>
	</g>
</g>
</svg>
