<?xml version="1.0" encoding="utf-8"?>
<!-- Generator: Adobe Illustrator 16.0.3, SVG Export Plug-In . SVG Version: 6.00 Build 0)  -->
<!DOCTYPE svg PUBLIC "-//W3C//DTD SVG 1.1//EN" "http://www.w3.org/Graphics/SVG/1.1/DTD/svg11.dtd">
<svg version="1.1"
	 id="svg3003" xmlns:dc="http://purl.org/dc/elements/1.1/" xmlns:cc="http://creativecommons.org/ns#" xmlns:rdf="http://www.w3.org/1999/02/22-rdf-syntax-ns#" xmlns:svg="http://www.w3.org/2000/svg"
	 xmlns="http://www.w3.org/2000/svg" xmlns:xlink="http://www.w3.org/1999/xlink" x="0px" y="0px" width="55px" height="55px"
	 viewBox="0 0 55 55" enable-background="new 0 0 55 55" xml:space="preserve">
<g id="ww_97_1_">
	<g id="g4325" transform="translate(0.17460318,-0.17460318)">
		<g id="ww_97" transform="matrix(1,0,0,0.98821227,-0.17460318,3.745036)">
			<g id="path3011">
				<rect x="18.89" y="11.314" transform="matrix(1 0.0067 -0.0067 1 0.162 -0.1352)" width="2.928" height="25.802"/>
			</g>
		</g>
		<g id="g4316" transform="translate(0,3.6666667)">
			<g id="circle3007">
				<ellipse cx="19.783" cy="24.008" rx="3.627" ry="3.412"/>
			</g>
			<g>
				<path fill="none" d=""/>
			</g>
			<g id="path4022">
				<path d="M26.222,26.685l1.609-5.354l3.888,4.06L26.222,26.685z"/>
				<path d="M25.494,27.369l2.105-7.003l5.086,5.311L25.494,27.369z M28.064,22.297L26.95,26l3.802-0.896L28.064,22.297z"/>
			</g>
			<g id="path3009">
				<path stroke="#000000" d="M28.592,24.008"/>
			</g>
			<g id="g3014" transform="matrix(0.6245511,0,0,0.66633805,8.1190471,-19.119047)">
				<g id="ww70arm">
					<path d="M37.637,64.722h11"/>
					<path d="M48.637,66.974h-11c-1.326,0-2.402-1.008-2.402-2.251c0-1.244,1.076-2.251,2.402-2.251h11
						c1.326,0,2.402,1.008,2.402,2.251C51.039,65.965,49.963,66.974,48.637,66.974z"/>
				</g>
				<g id="use3017" transform="matrix(0.5,0.8660254,-0.8660254,0.5,0,0)" xlink:href="#ww70arm">
					<g id="ww70arm_1_">
						<path d="M40.387,59.959l5.501,9.526"/>
						<path d="M45.89,71.737c-0.852,0-1.679-0.426-2.114-1.18l-5.501-9.526c-0.632-1.093-0.197-2.459,0.969-3.051
							c1.162-0.591,2.622-0.187,3.255,0.909l5.501,9.526c0.632,1.093,0.197,2.459-0.969,3.051
							C46.668,71.65,46.276,71.737,45.89,71.737z"/>
					</g>
				</g>
				<g id="use3019" transform="matrix(-0.5,0.8660254,-0.8660254,-0.5,0,0)" xlink:href="#ww70arm">
					<g id="ww70arm_2_">
						<path d="M45.888,59.959l-5.501,9.526"/>
						<path d="M40.386,71.737c-0.386,0-0.779-0.086-1.141-0.271c-1.166-0.592-1.601-1.958-0.969-3.051l5.501-9.526
							c0.632-1.096,2.091-1.499,3.255-0.909c1.166,0.592,1.601,1.958,0.969,3.051L42.5,70.557
							C42.065,71.31,41.238,71.737,40.386,71.737z"/>
					</g>
				</g>
			</g>
			<g id="path3042">
				
					<rect x="26.394" y="18.779" transform="matrix(0.8457 0.5336 -0.5336 0.8457 17.0084 -10.8124)" width="1.618" height="10.459"/>
			</g>
		</g>
	</g>
</g>
</svg>
