<?xml version="1.0" encoding="utf-8"?>
<!-- Generator: Adobe Illustrator 16.0.3, SVG Export Plug-In . SVG Version: 6.00 Build 0)  -->
<!DOCTYPE svg PUBLIC "-//W3C//DTD SVG 1.1//EN" "http://www.w3.org/Graphics/SVG/1.1/DTD/svg11.dtd">
<svg version="1.1"
	 id="svg3131" xmlns:dc="http://purl.org/dc/elements/1.1/" xmlns:cc="http://creativecommons.org/ns#" xmlns:rdf="http://www.w3.org/1999/02/22-rdf-syntax-ns#" xmlns:svg="http://www.w3.org/2000/svg"
	 xmlns="http://www.w3.org/2000/svg" xmlns:xlink="http://www.w3.org/1999/xlink" x="0px" y="0px" width="55px" height="55px"
	 viewBox="0 0 55 55" enable-background="new 0 0 55 55" xml:space="preserve">
<g id="ww_07" transform="matrix(0.89373537,0,0,0.80096534,-16.492565,-5.0105932)">
	<g id="path5800">
		<path d="M31.289,66.496l-2.304-1.448C35.458,52.224,41.704,38.74,47.743,25.7c1.875-4.047,3.711-8.013,5.504-11.848l2.345,1.366
			c-1.791,3.831-3.627,7.794-5.499,11.838C44.042,40.119,37.786,53.627,31.289,66.496z"/>
	</g>
	<g id="path5800-7">
		<path d="M45.179,67.368l-2.304-1.448c6.474-12.823,12.719-26.307,18.76-39.347c1.874-4.047,3.711-8.013,5.504-11.849l2.345,1.366
			c-1.791,3.831-3.627,7.794-5.499,11.838C57.933,40.992,51.676,54.5,45.179,67.368z"/>
	</g>
</g>
</svg>
