<?xml version="1.0" encoding="utf-8"?>
<!-- Generator: Adobe Illustrator 16.0.3, SVG Export Plug-In . SVG Version: 6.00 Build 0)  -->
<!DOCTYPE svg PUBLIC "-//W3C//DTD SVG 1.1//EN" "http://www.w3.org/Graphics/SVG/1.1/DTD/svg11.dtd">
<svg version="1.1"
	 id="svg2" xmlns:dc="http://purl.org/dc/elements/1.1/" xmlns:cc="http://creativecommons.org/ns#" xmlns:rdf="http://www.w3.org/1999/02/22-rdf-syntax-ns#" xmlns:svg="http://www.w3.org/2000/svg"
	 xmlns="http://www.w3.org/2000/svg" xmlns:xlink="http://www.w3.org/1999/xlink" x="0px" y="0px" width="55px" height="55px"
	 viewBox="0 0 55 55" enable-background="new 0 0 55 55" xml:space="preserve">
<g id="ww_07">
	<g id="path6">
		<path d="M27.5,48c-6.065,0-11-4.935-11-11h3c0,4.411,3.589,8,8,8s8-3.589,8-8s-3.589-8-8-8c-6.065,0-11-4.935-11-11
			s4.935-11,11-11s11,4.935,11,11h-3c0-4.411-3.589-8-8-8s-8,3.589-8,8s3.589,8,8,8c6.065,0,11,4.935,11,11S33.565,48,27.5,48z"/>
	</g>
	<g id="path8">
		<rect x="26" y="3.5" width="3" height="48"/>
	</g>
</g>
</svg>
