<?xml version="1.0" encoding="utf-8"?>
<!-- Generator: Adobe Illustrator 16.0.3, SVG Export Plug-In . SVG Version: 6.00 Build 0)  -->
<!DOCTYPE svg PUBLIC "-//W3C//DTD SVG 1.1//EN" "http://www.w3.org/Graphics/SVG/1.1/DTD/svg11.dtd">
<svg version="1.1"
	 id="svg2" xmlns:dc="http://purl.org/dc/elements/1.1/" xmlns:cc="http://creativecommons.org/ns#" xmlns:rdf="http://www.w3.org/1999/02/22-rdf-syntax-ns#" xmlns:svg="http://www.w3.org/2000/svg"
	 xmlns="http://www.w3.org/2000/svg" xmlns:xlink="http://www.w3.org/1999/xlink" x="0px" y="0px" width="55px" height="55px"
	 viewBox="0 0 55 55" enable-background="new 0 0 55 55" xml:space="preserve">
<g id="ww_93">
	<g id="g6" transform="translate(17.5,0)">
		<g id="ww70arm">
			<path d="M22.75,27.5h11"/>
			<path d="M33.75,29h-11c-0.828,0-1.5-0.672-1.5-1.5c0-0.829,0.672-1.5,1.5-1.5h11c0.828,0,1.5,0.671,1.5,1.5
				C35.25,28.328,34.578,29,33.75,29z"/>
		</g>
		<g id="use9" transform="matrix(0.5,0.8660254,-0.8660254,0.5,0,0)" xlink:href="#ww70arm">
			<g id="ww70arm_1_">
				<path d="M25.5,22.737l5.5,9.527"/>
				<path d="M31.001,33.764c-0.518,0-1.022-0.269-1.3-0.75l-5.5-9.527c-0.414-0.717-0.169-1.635,0.549-2.049
					c0.717-0.414,1.635-0.169,2.049,0.549l5.5,9.527c0.414,0.718,0.169,1.635-0.549,2.049
					C31.514,33.699,31.256,33.764,31.001,33.764z"/>
			</g>
		</g>
		<g id="use11" transform="matrix(-0.5,0.8660254,-0.8660254,-0.5,0,0)" xlink:href="#ww70arm">
			<g id="ww70arm_2_">
				<path d="M31,22.737l-5.5,9.527"/>
				<path d="M25.499,33.764c-0.255,0-0.513-0.064-0.749-0.201c-0.718-0.414-0.963-1.331-0.549-2.049l5.5-9.527
					c0.414-0.718,1.333-0.962,2.049-0.549c0.718,0.414,0.963,1.332,0.549,2.049l-5.5,9.527
					C26.521,33.495,26.017,33.764,25.499,33.764z"/>
			</g>
		</g>
	</g>
	<g id="path13">
		<polygon points="27.189,45.061 11.789,29.66 24.827,11.5 3.75,11.5 3.75,8.5 30.674,8.5 15.711,29.34 29.311,42.939 		"/>
	</g>
	<g id="path15">
		<rect x="6.25" y="10" width="3" height="37"/>
	</g>
	<g id="path17">
		<polygon points="36.25,52 27.75,52 27.75,49 33.25,49 33.25,6 27.75,6 27.75,3 36.25,3 		"/>
	</g>
	<g id="path19">
		<path d="M27.25,44h1v-1L27.25,44z"/>
		<polygon points="29.75,45.5 23.629,45.5 29.75,39.379 		"/>
	</g>
</g>
</svg>
