<?xml version="1.0" encoding="utf-8"?>
<!-- Generator: Adobe Illustrator 16.0.3, SVG Export Plug-In . SVG Version: 6.00 Build 0)  -->
<!DOCTYPE svg PUBLIC "-//W3C//DTD SVG 1.1//EN" "http://www.w3.org/Graphics/SVG/1.1/DTD/svg11.dtd">
<svg version="1.1"
	 id="svg2" xmlns:dc="http://purl.org/dc/elements/1.1/" xmlns:cc="http://creativecommons.org/ns#" xmlns:rdf="http://www.w3.org/1999/02/22-rdf-syntax-ns#" xmlns:svg="http://www.w3.org/2000/svg"
	 xmlns="http://www.w3.org/2000/svg" xmlns:xlink="http://www.w3.org/1999/xlink" x="0px" y="0px" width="55px" height="55px"
	 viewBox="0 0 55 55" enable-background="new 0 0 55 55" xml:space="preserve">
<g id="ww_31">
	<g id="g5">
		<g id="arc">
			<path d="M27.75,29c-5.79,0-10.5-4.71-10.5-10.5S21.96,8,27.75,8c5.79,0,10.5,4.71,10.5,10.5h-3c0-4.136-3.364-7.5-7.5-7.5
				s-7.5,3.364-7.5,7.5s3.364,7.5,7.5,7.5V29z"/>
		</g>
		<g id="arc2">
			<path d="M27.75,47c-5.79,0-10.5-4.71-10.5-10.5h3c0,4.136,3.364,7.5,7.5,7.5s7.5-3.364,7.5-7.5s-3.364-7.5-7.5-7.5v-3
				c5.79,0,10.5,4.71,10.5,10.5S33.54,47,27.75,47z"/>
		</g>
	</g>
	<g id="path9">
		<polygon points="40.75,31.303 40.75,29 11.25,29 11.25,26 40.75,26 40.75,23.697 46.454,27.5 		"/>
	</g>
</g>
</svg>
