<?xml version="1.0" encoding="utf-8"?>
<!-- Generator: Adobe Illustrator 16.0.3, SVG Export Plug-In . SVG Version: 6.00 Build 0)  -->
<!DOCTYPE svg PUBLIC "-//W3C//DTD SVG 1.1//EN" "http://www.w3.org/Graphics/SVG/1.1/DTD/svg11.dtd">
<svg version="1.1"
	 id="svg3004" xmlns:dc="http://purl.org/dc/elements/1.1/" xmlns:cc="http://creativecommons.org/ns#" xmlns:rdf="http://www.w3.org/1999/02/22-rdf-syntax-ns#" xmlns:svg="http://www.w3.org/2000/svg"
	 xmlns="http://www.w3.org/2000/svg" xmlns:xlink="http://www.w3.org/1999/xlink" x="0px" y="0px" width="55px" height="55px"
	 viewBox="0 0 55 55" enable-background="new 0 0 55 55" xml:space="preserve">
<path d="M27.5,36v11"/>
<path d="M27.5,48.5c-0.829,0-1.5-0.672-1.5-1.5V36c0-0.828,0.671-1.5,1.5-1.5c0.828,0,1.5,0.672,1.5,1.5v11
	C29,47.828,28.328,48.5,27.5,48.5z"/>
<path d="M32.264,38.75l-9.527,5.5"/>
<path d="M22.738,45.75c-0.519,0-1.022-0.269-1.3-0.75c-0.415-0.718-0.168-1.635,0.549-2.049l9.527-5.5
	c0.716-0.414,1.635-0.169,2.049,0.549s0.169,1.635-0.549,2.049l-9.527,5.5C23.25,45.686,22.993,45.75,22.738,45.75z"/>
<path d="M32.264,44.25l-9.527-5.5"/>
<path d="M32.263,45.75c-0.255,0-0.513-0.064-0.749-0.201l-9.527-5.5c-0.717-0.414-0.963-1.331-0.549-2.049
	c0.414-0.718,1.332-0.964,2.049-0.549l9.527,5.5c0.718,0.414,0.963,1.331,0.549,2.049C33.285,45.481,32.78,45.75,32.263,45.75z"/>
<path d="M27.5,8v11"/>
<path d="M27.5,20.5c-0.829,0-1.5-0.671-1.5-1.5V8c0-0.829,0.671-1.5,1.5-1.5C28.328,6.5,29,7.171,29,8v11
	C29,19.829,28.328,20.5,27.5,20.5z"/>
<path d="M32.264,10.75l-9.527,5.5"/>
<path d="M22.738,17.75c-0.519,0-1.022-0.269-1.3-0.75c-0.415-0.717-0.168-1.635,0.549-2.049l9.527-5.5
	c0.716-0.415,1.635-0.17,2.049,0.549c0.414,0.717,0.169,1.635-0.549,2.049l-9.527,5.5C23.25,17.686,22.993,17.75,22.738,17.75z"/>
<path d="M32.264,16.25l-9.527-5.5"/>
<path d="M32.263,17.75c-0.255,0-0.513-0.065-0.749-0.202l-9.527-5.5c-0.717-0.414-0.963-1.332-0.549-2.049
	c0.414-0.717,1.332-0.964,2.049-0.549l9.527,5.5c0.718,0.414,0.963,1.332,0.549,2.049C33.285,17.481,32.78,17.75,32.263,17.75z"/>
<circle cx="27.5" cy="27.5" r="5.5"/>
</svg>
