<?xml version="1.0" encoding="utf-8"?>
<!-- Generator: Adobe Illustrator 16.0.3, SVG Export Plug-In . SVG Version: 6.00 Build 0)  -->
<!DOCTYPE svg PUBLIC "-//W3C//DTD SVG 1.1//EN" "http://www.w3.org/Graphics/SVG/1.1/DTD/svg11.dtd">
<svg version="1.1"
	 id="svg3003" xmlns:dc="http://purl.org/dc/elements/1.1/" xmlns:cc="http://creativecommons.org/ns#" xmlns:rdf="http://www.w3.org/1999/02/22-rdf-syntax-ns#" xmlns:svg="http://www.w3.org/2000/svg"
	 xmlns="http://www.w3.org/2000/svg" xmlns:xlink="http://www.w3.org/1999/xlink" x="0px" y="0px" width="55px" height="55px"
	 viewBox="0 0 55 55" enable-background="new 0 0 55 55" xml:space="preserve">
<g id="ww_97">
	<g id="path3009">
		<polygon points="31.061,40.311 28.939,38.189 34.379,32.75 28.164,26.535 35.035,13.25 17.5,13.25 17.5,10.25 39.965,10.25 
			31.836,25.965 38.621,32.75 		"/>
	</g>
	<g id="path3011">
		<rect x="20" y="11.75" width="3" height="31.5"/>
	</g>
	<g id="path3013">
		<path d="M30,40.25h-1v-1L30,40.25z"/>
		<polygon points="33.621,41.75 27.5,41.75 27.5,35.629 		"/>
	</g>
</g>
<g id="g3014" transform="matrix(0.6245511,0,0,0.66633805,1.3095233,-18.595237)">
	<g id="ww70arm">
		<path d="M36.435,69.177h11.001"/>
		<path d="M47.436,71.428H36.435c-1.327,0-2.402-1.008-2.402-2.251c0-1.244,1.075-2.251,2.402-2.251h11.001
			c1.326,0,2.402,1.008,2.402,2.251C49.837,70.42,48.762,71.428,47.436,71.428z"/>
	</g>
	<g id="use3017" transform="matrix(0.5,0.8660254,-0.8660254,0.5,0,0)" xlink:href="#ww70arm">
		<g id="ww70arm_1_">
			<path d="M39.185,64.414l5.499,9.526"/>
			<path d="M44.685,76.191c-0.852,0-1.679-0.426-2.114-1.18l-5.499-9.526c-0.631-1.093-0.197-2.459,0.969-3.051
				c1.169-0.594,2.625-0.184,3.255,0.909l5.499,9.526c0.632,1.093,0.197,2.459-0.969,3.051
				C45.464,76.105,45.072,76.191,44.685,76.191z"/>
		</g>
	</g>
	<g id="use3019" transform="matrix(-0.5,0.8660254,-0.8660254,-0.5,0,0)" xlink:href="#ww70arm">
		<g id="ww70arm_2_">
			<path d="M44.684,64.414l-5.499,9.526"/>
			<path d="M39.182,76.191c-0.385,0-0.777-0.086-1.141-0.271c-1.167-0.592-1.6-1.958-0.969-3.051l5.499-9.526
				c0.632-1.094,2.091-1.499,3.255-0.909c1.166,0.592,1.601,1.958,0.969,3.051l-5.499,9.526
				C40.862,75.765,40.036,76.191,39.182,76.191z"/>
		</g>
	</g>
</g>
</svg>
