<?xml version="1.0" encoding="utf-8"?>
<!-- Generator: Adobe Illustrator 16.0.3, SVG Export Plug-In . SVG Version: 6.00 Build 0)  -->
<!DOCTYPE svg PUBLIC "-//W3C//DTD SVG 1.1//EN" "http://www.w3.org/Graphics/SVG/1.1/DTD/svg11.dtd">
<svg version="1.1"
	 id="svg2" xmlns:dc="http://purl.org/dc/elements/1.1/" xmlns:cc="http://creativecommons.org/ns#" xmlns:rdf="http://www.w3.org/1999/02/22-rdf-syntax-ns#" xmlns:svg="http://www.w3.org/2000/svg"
	 xmlns="http://www.w3.org/2000/svg" xmlns:xlink="http://www.w3.org/1999/xlink" x="0px" y="0px" width="55px" height="55px"
	 viewBox="0 0 55 55" enable-background="new 0 0 55 55" xml:space="preserve">
<g id="ww_04">
	<g id="path6">
		<path d="M8.75,52.25h-3v-45c0-3.309,2.691-6,6-6s6,2.691,6,6c0,1.654,1.346,3,3,3s3-1.346,3-3c0-3.309,2.691-6,6-6s6,2.691,6,6
			c0,1.654,1.346,3,3,3s3-1.346,3-3c0-3.309,2.691-6,6-6v3c-1.654,0-3,1.346-3,3c0,3.309-2.691,6-6,6s-6-2.691-6-6
			c0-1.654-1.346-3-3-3s-3,1.346-3,3c0,3.309-2.691,6-6,6s-6-2.691-6-6c0-1.654-1.346-3-3-3s-3,1.346-3,3V52.25z"/>
	</g>
</g>
</svg>
