<?xml version="1.0" encoding="utf-8"?>
<!-- Generator: Adobe Illustrator 16.0.3, SVG Export Plug-In . SVG Version: 6.00 Build 0)  -->
<!DOCTYPE svg PUBLIC "-//W3C//DTD SVG 1.1//EN" "http://www.w3.org/Graphics/SVG/1.1/DTD/svg11.dtd">
<svg version="1.1"
	 id="svg3003" xmlns:dc="http://purl.org/dc/elements/1.1/" xmlns:cc="http://creativecommons.org/ns#" xmlns:rdf="http://www.w3.org/1999/02/22-rdf-syntax-ns#" xmlns:svg="http://www.w3.org/2000/svg"
	 xmlns="http://www.w3.org/2000/svg" xmlns:xlink="http://www.w3.org/1999/xlink" x="0px" y="0px" width="55px" height="55px"
	 viewBox="0 0 55 55" enable-background="new 0 0 55 55" xml:space="preserve">
<ellipse cx="19.958" cy="9.474" rx="3.627" ry="3.412"/>
<path fill="none" d=""/>
<path stroke="#000000" d="M28.767,41.988"/>
<path d="M31.8,9.919h6.87"/>
<path d="M38.67,11.419H31.8c-0.828,0-1.5-0.671-1.5-1.5s0.672-1.5,1.5-1.5h6.87c0.828,0,1.5,0.671,1.5,1.5
	S39.498,11.419,38.67,11.419z"/>
<path d="M33.518,6.745l3.436,6.348"/>
<path d="M36.954,14.593c-0.532,0-1.049-0.285-1.32-0.787l-3.436-6.348c-0.395-0.729-0.123-1.639,0.605-2.033
	c0.726-0.393,1.638-0.125,2.033,0.605l3.436,6.348c0.395,0.729,0.123,1.639-0.605,2.033C37.44,14.535,37.195,14.593,36.954,14.593z"
	/>
<path d="M36.953,6.745l-3.436,6.348"/>
<path d="M33.517,14.593c-0.241,0-0.486-0.059-0.713-0.181c-0.729-0.395-1-1.305-0.605-2.033l3.436-6.348
	c0.395-0.73,1.306-0.999,2.033-0.605c0.729,0.395,1,1.305,0.605,2.033l-3.436,6.348C34.565,14.309,34.049,14.593,33.517,14.593z"/>
<rect x="26.569" y="4.516" transform="matrix(0.8457 0.5336 -0.5336 0.8457 9.4239 -13.1061)" width="1.618" height="10.458"/>
<polygon points="30.061,46.739 27.939,44.618 33.379,39.179 27.164,32.964 34.035,19.679 16.5,19.679 16.5,16.679 38.965,16.679 
	30.836,32.394 37.621,39.179 "/>
<rect x="19" y="18.179" width="3" height="31.5"/>
<path d="M29,46.679h-1v-1L29,46.679z"/>
<polygon points="32.621,48.179 26.5,48.179 26.5,42.058 "/>
</svg>
