<?xml version="1.0" encoding="utf-8"?>
<!-- Generator: Adobe Illustrator 16.0.3, SVG Export Plug-In . SVG Version: 6.00 Build 0)  -->
<!DOCTYPE svg PUBLIC "-//W3C//DTD SVG 1.1//EN" "http://www.w3.org/Graphics/SVG/1.1/DTD/svg11.dtd">
<svg version="1.1"
	 id="svg2" xmlns:dc="http://purl.org/dc/elements/1.1/" xmlns:cc="http://creativecommons.org/ns#" xmlns:rdf="http://www.w3.org/1999/02/22-rdf-syntax-ns#" xmlns:svg="http://www.w3.org/2000/svg"
	 xmlns="http://www.w3.org/2000/svg" xmlns:xlink="http://www.w3.org/1999/xlink" x="0px" y="0px" width="55px" height="55px"
	 viewBox="0 0 55 55" enable-background="new 0 0 55 55" xml:space="preserve">
<path d="M18,22v11"/>
<path d="M18,34.5c-0.829,0-1.5-0.672-1.5-1.5V22c0-0.829,0.671-1.5,1.5-1.5s1.5,0.671,1.5,1.5v11C19.5,33.828,18.829,34.5,18,34.5z"
	/>
<path d="M22.763,24.75l-9.526,5.5"/>
<path d="M13.238,31.75c-0.519,0-1.022-0.269-1.3-0.75c-0.415-0.718-0.168-1.635,0.549-2.049l9.526-5.5
	c0.719-0.415,1.635-0.169,2.049,0.549c0.415,0.717,0.168,1.635-0.549,2.049l-9.526,5.5C13.75,31.686,13.493,31.75,13.238,31.75z"/>
<path d="M22.763,30.25l-9.526-5.5"/>
<path d="M22.762,31.75c-0.254,0-0.512-0.064-0.749-0.201l-9.526-5.5c-0.717-0.414-0.963-1.332-0.549-2.049
	c0.415-0.716,1.332-0.963,2.049-0.549l9.526,5.5c0.717,0.414,0.963,1.331,0.549,2.049C23.784,31.481,23.28,31.75,22.762,31.75z"/>
<path d="M37,22v11"/>
<path d="M37,34.5c-0.828,0-1.5-0.672-1.5-1.5V22c0-0.829,0.672-1.5,1.5-1.5s1.5,0.671,1.5,1.5v11C38.5,33.828,37.828,34.5,37,34.5z"
	/>
<path d="M41.764,24.75l-9.527,5.5"/>
<path d="M32.237,31.75c-0.518,0-1.022-0.269-1.3-0.75c-0.414-0.718-0.169-1.635,0.549-2.049l9.527-5.5
	c0.716-0.415,1.635-0.169,2.049,0.549c0.414,0.717,0.169,1.635-0.549,2.049l-9.527,5.5C32.75,31.686,32.492,31.75,32.237,31.75z"/>
<path d="M41.764,30.25l-9.527-5.5"/>
<path d="M41.763,31.75c-0.255,0-0.513-0.064-0.749-0.201l-9.527-5.5c-0.718-0.414-0.963-1.332-0.549-2.049
	c0.414-0.718,1.333-0.963,2.049-0.549l9.527,5.5c0.718,0.414,0.963,1.331,0.549,2.049C42.785,31.481,42.28,31.75,41.763,31.75z"/>
</svg>
