<?xml version="1.0" encoding="utf-8"?>
<!-- Generator: Adobe Illustrator 16.0.3, SVG Export Plug-In . SVG Version: 6.00 Build 0)  -->
<!DOCTYPE svg PUBLIC "-//W3C//DTD SVG 1.1//EN" "http://www.w3.org/Graphics/SVG/1.1/DTD/svg11.dtd">
<svg version="1.1"
	 id="svg3190" xmlns:dc="http://purl.org/dc/elements/1.1/" xmlns:cc="http://creativecommons.org/ns#" xmlns:rdf="http://www.w3.org/1999/02/22-rdf-syntax-ns#" xmlns:svg="http://www.w3.org/2000/svg"
	 xmlns="http://www.w3.org/2000/svg" xmlns:xlink="http://www.w3.org/1999/xlink" x="0px" y="0px" width="55px" height="55px"
	 viewBox="0 0 55 55" enable-background="new 0 0 55 55" xml:space="preserve">
<g id="ww_95">
	<g id="circle3194">
		<ellipse cx="21.254" cy="9.383" rx="4.034" ry="3.917"/>
	</g>
	<g id="path3196">
		<polygon points="36.719,47.595 23.831,34.707 34.405,19.534 17.279,19.534 17.279,16.534 40.153,16.534 27.728,34.361 
			38.84,45.474 		"/>
	</g>
	<g id="path3198">
		<rect x="19.779" y="18.034" width="3" height="31.5"/>
	</g>
	<g id="path3200">
		<path d="M36.779,46.534h1v-1L36.779,46.534z"/>
		<polygon points="39.279,48.034 33.158,48.034 39.279,41.913 		"/>
	</g>
</g>
<g id="path3042">
	<rect x="26.645" y="22.03" transform="matrix(0.8326 0.5539 -0.5539 0.8326 19.8366 -10.6284)" width="1.71" height="10.94"/>
</g>
<g id="g3014" transform="matrix(0.66788182,0,0,0.64854999,8.575893,-18.527543)">
	<g id="ww70arm">
		<path d="M22.835,70.97h11.001"/>
		<path d="M33.835,73.283H22.835c-1.241,0-2.246-1.036-2.246-2.313c0-1.278,1.005-2.313,2.246-2.313h11.001
			c1.24,0,2.246,1.035,2.246,2.313C36.081,72.247,35.075,73.283,33.835,73.283z"/>
	</g>
	<g id="use3017" transform="matrix(0.5,0.8660254,-0.8660254,0.5,0,0)" xlink:href="#ww70arm">
		<g id="ww70arm_1_">
			<path d="M25.585,66.207l5.5,9.526"/>
			<path d="M31.086,78.045c-0.766,0-1.512-0.404-1.932-1.131l-5.5-9.525c-0.635-1.098-0.284-2.517,0.782-3.17
				c1.067-0.652,2.445-0.291,3.078,0.806l5.5,9.525c0.635,1.098,0.284,2.518-0.782,3.17C31.873,77.942,31.477,78.045,31.086,78.045z
				"/>
		</g>
	</g>
	<g id="use3019" transform="matrix(-0.5,0.8660254,-0.8660254,-0.5,0,0)" xlink:href="#ww70arm">
		<g id="ww70arm_2_">
			<path d="M31.085,66.207l-5.5,9.526"/>
			<path d="M25.583,78.045c-0.39,0-0.786-0.104-1.146-0.325c-1.066-0.652-1.417-2.072-0.782-3.17l5.5-9.525
				c0.633-1.099,2.012-1.458,3.078-0.806c1.066,0.653,1.417,2.072,0.782,3.17l-5.5,9.525C27.095,77.642,26.349,78.045,25.583,78.045
				z"/>
		</g>
	</g>
</g>
</svg>
