<?xml version="1.0" encoding="utf-8"?>
<!-- Generator: Adobe Illustrator 16.0.3, SVG Export Plug-In . SVG Version: 6.00 Build 0)  -->
<!DOCTYPE svg PUBLIC "-//W3C//DTD SVG 1.1//EN" "http://www.w3.org/Graphics/SVG/1.1/DTD/svg11.dtd">
<svg version="1.1"
	 id="svg2" xmlns:dc="http://purl.org/dc/elements/1.1/" xmlns:cc="http://creativecommons.org/ns#" xmlns:rdf="http://www.w3.org/1999/02/22-rdf-syntax-ns#" xmlns:svg="http://www.w3.org/2000/svg"
	 xmlns="http://www.w3.org/2000/svg" xmlns:xlink="http://www.w3.org/1999/xlink" x="0px" y="0px" width="55px" height="55px"
	 viewBox="0 0 55 55" enable-background="new 0 0 55 55" xml:space="preserve">
<path d="M32.5,34c-0.384,0-0.768-0.146-1.061-0.439l-10-10c-0.586-0.585-0.586-1.536,0-2.121c0.586-0.586,1.535-0.586,2.121,0l10,10
	c0.586,0.586,0.586,1.535,0,2.121C33.268,33.854,32.884,34,32.5,34z"/>
<path d="M22.5,34c-0.384,0-0.768-0.146-1.061-0.439c-0.586-0.586-0.586-1.535,0-2.121l10-10c0.586-0.586,1.535-0.586,2.121,0
	c0.586,0.585,0.586,1.536,0,2.121l-10,10C23.268,33.854,22.884,34,22.5,34z"/>
<rect x="12.5" y="26" width="30" height="3"/>
</svg>
