<?xml version="1.0" encoding="utf-8"?>
<!-- Generator: Adobe Illustrator 16.0.3, SVG Export Plug-In . SVG Version: 6.00 Build 0)  -->
<!DOCTYPE svg PUBLIC "-//W3C//DTD SVG 1.1//EN" "http://www.w3.org/Graphics/SVG/1.1/DTD/svg11.dtd">
<svg version="1.1"
	 id="svg2" xmlns:dc="http://purl.org/dc/elements/1.1/" xmlns:cc="http://creativecommons.org/ns#" xmlns:rdf="http://www.w3.org/1999/02/22-rdf-syntax-ns#" xmlns:svg="http://www.w3.org/2000/svg"
	 xmlns="http://www.w3.org/2000/svg" xmlns:xlink="http://www.w3.org/1999/xlink" x="0px" y="0px" width="55px" height="55px"
	 viewBox="0 0 55 55" enable-background="new 0 0 55 55" xml:space="preserve">
<path d="M10,27.5h11"/>
<path d="M21,29H10c-0.829,0-1.5-0.672-1.5-1.5c0-0.829,0.671-1.5,1.5-1.5h11c0.829,0,1.5,0.671,1.5,1.5C22.5,28.328,21.829,29,21,29
	z"/>
<path d="M12.75,22.737l5.5,9.527"/>
<path d="M18.251,33.764c-0.519,0-1.022-0.269-1.3-0.75l-5.5-9.527c-0.415-0.717-0.168-1.635,0.549-2.049
	c0.718-0.415,1.635-0.169,2.049,0.549l5.5,9.527c0.415,0.718,0.168,1.635-0.549,2.049C18.764,33.699,18.506,33.764,18.251,33.764z"
	/>
<path d="M18.25,22.737l-5.5,9.527"/>
<path d="M12.749,33.764c-0.254,0-0.512-0.064-0.749-0.201c-0.717-0.414-0.963-1.331-0.549-2.049l5.5-9.527
	c0.414-0.716,1.332-0.963,2.049-0.549c0.717,0.414,0.963,1.332,0.549,2.049l-5.5,9.527C13.771,33.495,13.267,33.764,12.749,33.764z"
	/>
<path d="M22,15.5h11"/>
<path d="M33,17H22c-0.829,0-1.5-0.671-1.5-1.5S21.171,14,22,14h11c0.828,0,1.5,0.671,1.5,1.5S33.828,17,33,17z"/>
<path d="M24.75,10.737l5.5,9.526"/>
<path d="M30.251,21.764c-0.518,0-1.022-0.269-1.3-0.75l-5.5-9.526C23.037,10.77,23.283,9.852,24,9.438
	c0.719-0.416,1.635-0.168,2.049,0.549l5.5,9.526c0.414,0.717,0.169,1.635-0.549,2.049C30.764,21.699,30.506,21.764,30.251,21.764z"
	/>
<path d="M30.25,10.737l-5.5,9.526"/>
<path d="M24.749,21.764c-0.254,0-0.512-0.065-0.749-0.202c-0.717-0.414-0.963-1.332-0.549-2.049l5.5-9.526
	C29.365,9.269,30.283,9.023,31,9.438c0.718,0.414,0.963,1.332,0.549,2.049l-5.5,9.526C25.771,21.494,25.267,21.764,24.749,21.764z"
	/>
<path d="M22,39.5h11"/>
<path d="M33,41H22c-0.829,0-1.5-0.672-1.5-1.5S21.171,38,22,38h11c0.828,0,1.5,0.672,1.5,1.5S33.828,41,33,41z"/>
<path d="M24.75,34.736l5.5,9.527"/>
<path d="M30.251,45.764c-0.518,0-1.022-0.269-1.3-0.75l-5.5-9.527c-0.415-0.718-0.168-1.635,0.549-2.049
	c0.719-0.415,1.636-0.168,2.049,0.549l5.5,9.527c0.414,0.718,0.169,1.635-0.549,2.049C30.764,45.699,30.506,45.764,30.251,45.764z"
	/>
<path d="M30.25,34.736l-5.5,9.527"/>
<path d="M24.749,45.764c-0.254,0-0.512-0.064-0.749-0.201c-0.717-0.414-0.963-1.331-0.549-2.049l5.5-9.527
	c0.414-0.719,1.332-0.964,2.049-0.549c0.718,0.414,0.963,1.331,0.549,2.049l-5.5,9.527C25.771,45.495,25.267,45.764,24.749,45.764z"
	/>
<path d="M34,27.5h11"/>
<path d="M45,29H34c-0.828,0-1.5-0.672-1.5-1.5c0-0.829,0.672-1.5,1.5-1.5h11c0.828,0,1.5,0.671,1.5,1.5C46.5,28.328,45.828,29,45,29
	z"/>
<path d="M36.75,22.737l5.5,9.527"/>
<path d="M42.251,33.764c-0.518,0-1.022-0.269-1.3-0.75l-5.5-9.527c-0.414-0.717-0.169-1.635,0.549-2.049
	c0.716-0.414,1.635-0.169,2.049,0.549l5.5,9.527c0.414,0.718,0.169,1.635-0.549,2.049C42.764,33.699,42.506,33.764,42.251,33.764z"
	/>
<path d="M42.25,22.737l-5.5,9.527"/>
<path d="M36.749,33.764c-0.255,0-0.513-0.064-0.749-0.201c-0.718-0.414-0.963-1.331-0.549-2.049l5.5-9.527
	c0.414-0.718,1.332-0.962,2.049-0.549c0.718,0.414,0.963,1.332,0.549,2.049l-5.5,9.527C37.771,33.495,37.267,33.764,36.749,33.764z"
	/>
</svg>
