<?xml version="1.0" encoding="utf-8"?>
<!-- Generator: Adobe Illustrator 16.0.3, SVG Export Plug-In . SVG Version: 6.00 Build 0)  -->
<!DOCTYPE svg PUBLIC "-//W3C//DTD SVG 1.1//EN" "http://www.w3.org/Graphics/SVG/1.1/DTD/svg11.dtd">
<svg version="1.1"
	 id="svg2" xmlns:dc="http://purl.org/dc/elements/1.1/" xmlns:cc="http://creativecommons.org/ns#" xmlns:rdf="http://www.w3.org/1999/02/22-rdf-syntax-ns#" xmlns:svg="http://www.w3.org/2000/svg"
	 xmlns="http://www.w3.org/2000/svg" xmlns:xlink="http://www.w3.org/1999/xlink" x="0px" y="0px" width="55px" height="55px"
	 viewBox="0 0 55 55" enable-background="new 0 0 55 55" xml:space="preserve">
<circle cx="27.5" cy="16.15" r="5.5"/>
<path d="M26.501,26.85c-0.465,0-0.923-0.215-1.216-0.62c-0.486-0.671-0.336-1.609,0.335-2.095C28.322,22.179,30,19.119,30,16.15
	c0-0.829,0.672-1.5,1.5-1.5s1.5,0.671,1.5,1.5c0,3.974-2.101,7.867-5.62,10.415C27.114,26.757,26.806,26.85,26.501,26.85z"/>
<circle cx="27.5" cy="35.15" r="5.5"/>
<path d="M26.501,45.85c-0.465,0-0.923-0.215-1.216-0.62c-0.486-0.671-0.336-1.609,0.335-2.095C28.322,41.179,30,38.12,30,35.15
	c0-0.828,0.672-1.5,1.5-1.5s1.5,0.672,1.5,1.5c0,3.974-2.102,7.866-5.621,10.414C27.114,45.757,26.806,45.85,26.501,45.85z"/>
</svg>
