<?xml version="1.0" encoding="utf-8"?>
<!-- Generator: Adobe Illustrator 16.0.3, SVG Export Plug-In . SVG Version: 6.00 Build 0)  -->
<!DOCTYPE svg PUBLIC "-//W3C//DTD SVG 1.1//EN" "http://www.w3.org/Graphics/SVG/1.1/DTD/svg11.dtd">
<svg version="1.1"
	 id="svg3004" xmlns:dc="http://purl.org/dc/elements/1.1/" xmlns:cc="http://creativecommons.org/ns#" xmlns:rdf="http://www.w3.org/1999/02/22-rdf-syntax-ns#" xmlns:svg="http://www.w3.org/2000/svg"
	 xmlns="http://www.w3.org/2000/svg" xmlns:xlink="http://www.w3.org/1999/xlink" x="0px" y="0px" width="55px" height="55px"
	 viewBox="0 0 55 55" enable-background="new 0 0 55 55" xml:space="preserve">
<g>
	<g id="ww_70" transform="translate(0,14)">
		<g id="ww70arm">
			<path d="M27.5,22v11"/>
			<path d="M27.5,34.5c-0.829,0-1.5-0.672-1.5-1.5V22c0-0.828,0.671-1.5,1.5-1.5c0.828,0,1.5,0.672,1.5,1.5v11
				C29,33.828,28.328,34.5,27.5,34.5z"/>
		</g>
		<g id="use3009" transform="matrix(0.5,0.8660254,-0.8660254,0.5,0,0)" xlink:href="#ww70arm">
			<g id="ww70arm_1_">
				<path d="M32.264,24.75l-9.527,5.5"/>
				<path d="M22.738,31.75c-0.519,0-1.022-0.269-1.3-0.75c-0.415-0.718-0.168-1.635,0.549-2.049l9.527-5.5
					c0.716-0.414,1.635-0.169,2.049,0.549s0.169,1.635-0.549,2.049l-9.527,5.5C23.25,31.686,22.993,31.75,22.738,31.75z"/>
			</g>
		</g>
		<g id="use3011" transform="matrix(-0.5,0.8660254,-0.8660254,-0.5,0,0)" xlink:href="#ww70arm">
			<g id="ww70arm_2_">
				<path d="M32.264,30.25l-9.527-5.5"/>
				<path d="M32.263,31.75c-0.255,0-0.513-0.064-0.749-0.201l-9.527-5.5c-0.717-0.414-0.963-1.331-0.549-2.049
					c0.414-0.718,1.332-0.964,2.049-0.549l9.527,5.5c0.718,0.414,0.963,1.331,0.549,2.049C33.285,31.481,32.78,31.75,32.263,31.75z"
					/>
			</g>
		</g>
	</g>
	<g id="ww_69">
		<g id="ww_70_1_" transform="translate(0,14)">
			<g id="ww70arm_3_">
				<path d="M27.5-6V5"/>
				<path d="M27.5,6.5C26.671,6.5,26,5.829,26,5V-6c0-0.829,0.671-1.5,1.5-1.5C28.328-7.5,29-6.829,29-6V5
					C29,5.829,28.328,6.5,27.5,6.5z"/>
			</g>
			<g id="use3009_1_" transform="matrix(0.5,0.8660254,-0.8660254,0.5,0,0)" xlink:href="#ww70arm">
				<g id="ww70arm_4_">
					<path d="M32.264-3.25l-9.527,5.5"/>
					<path d="M22.738,3.75c-0.519,0-1.022-0.269-1.3-0.75c-0.415-0.717-0.168-1.635,0.549-2.049l9.527-5.5
						c0.716-0.415,1.635-0.17,2.049,0.549c0.414,0.717,0.169,1.635-0.549,2.049l-9.527,5.5C23.25,3.686,22.993,3.75,22.738,3.75z"/>
				</g>
			</g>
			<g id="use3013" transform="matrix(-0.5,0.8660254,-0.8660254,-0.5,0,0)" xlink:href="#ww_70">
				<g id="ww70arm_5_">
					<path d="M32.264,2.25l-9.527-5.5"/>
					<path d="M32.263,3.75c-0.255,0-0.513-0.065-0.749-0.202l-9.527-5.5C21.27-2.365,21.023-3.283,21.438-4
						c0.414-0.717,1.332-0.964,2.049-0.549l9.527,5.5C33.731,1.365,33.977,2.283,33.563,3C33.285,3.481,32.78,3.75,32.263,3.75z"/>
				</g>
			</g>
		</g>
		<g id="circle3015">
			<circle cx="27.5" cy="27.5" r="5.5"/>
		</g>
	</g>
</g>
</svg>
