<?xml version="1.0" encoding="utf-8"?>
<!-- Generator: Adobe Illustrator 16.0.3, SVG Export Plug-In . SVG Version: 6.00 Build 0)  -->
<!DOCTYPE svg PUBLIC "-//W3C//DTD SVG 1.1//EN" "http://www.w3.org/Graphics/SVG/1.1/DTD/svg11.dtd">
<svg version="1.1"
	 id="svg2" xmlns:dc="http://purl.org/dc/elements/1.1/" xmlns:cc="http://creativecommons.org/ns#" xmlns:rdf="http://www.w3.org/1999/02/22-rdf-syntax-ns#" xmlns:svg="http://www.w3.org/2000/svg"
	 xmlns="http://www.w3.org/2000/svg" xmlns:xlink="http://www.w3.org/1999/xlink" x="0px" y="0px" width="55px" height="55px"
	 viewBox="0 0 55 55" enable-background="new 0 0 55 55" xml:space="preserve">
<g id="ww_49">
	<g id="path6">
		<path d="M27.5,34.854l-3.342-6.684l2.684-1.342l0.658,1.316l0.658-1.316l2.684,1.342L27.5,34.854z M36,19.5H19v-3h17V19.5z"/>
	</g>
	<g id="path8">
		<path d="M45,38.5H10v-3h16.073l-3.25-6.5H10v-3h11.323l-3.25-6.5H10v-3h9.927l4.75,9.5h5.646l4.75-9.5H45v3h-8.073l-3.25,6.5H45v3
			H32.177l-3.25,6.5H45V38.5z M26.177,29l1.323,2.646L28.823,29H26.177z"/>
	</g>
</g>
</svg>
