<?xml version="1.0" encoding="utf-8"?>
<!-- Generator: Adobe Illustrator 16.0.3, SVG Export Plug-In . SVG Version: 6.00 Build 0)  -->
<!DOCTYPE svg PUBLIC "-//W3C//DTD SVG 1.1//EN" "http://www.w3.org/Graphics/SVG/1.1/DTD/svg11.dtd">
<svg version="1.1"
	 id="svg2" xmlns:dc="http://purl.org/dc/elements/1.1/" xmlns:cc="http://creativecommons.org/ns#" xmlns:rdf="http://www.w3.org/1999/02/22-rdf-syntax-ns#" xmlns:svg="http://www.w3.org/2000/svg"
	 xmlns="http://www.w3.org/2000/svg" xmlns:xlink="http://www.w3.org/1999/xlink" x="0px" y="0px" width="55px" height="55px"
	 viewBox="0 0 55 55" enable-background="new 0 0 55 55" xml:space="preserve">
<g>
	<g id="g5" transform="matrix(0.8660254,0.5,-0.5,0.8660254,0,-9.5)">
		<g id="ww_70">
			<g id="ww70arm">
				<path d="M38.569,6.303l0,11"/>
				<path d="M39.318,18.603c-0.22,0.127-0.476,0.2-0.749,0.2c-0.828,0-1.5-0.671-1.5-1.5l0-11c0-0.828,0.672-1.5,1.5-1.5
					c0.829,0,1.5,0.672,1.5,1.5l0,11C40.069,17.859,39.767,18.344,39.318,18.603z"/>
			</g>
			<g id="use9" transform="matrix(0.5,0.8660254,-0.8660254,0.5,0,0)" xlink:href="#ww70arm">
				<g id="ww70arm_1_">
					<path d="M43.332,9.054l-9.526,5.5"/>
					<path d="M44.082,10.353l-9.526,5.5c-0.718,0.414-1.635,0.169-2.049-0.549c-0.414-0.718-0.169-1.635,0.549-2.049l9.526-5.5
						c0.717-0.414,1.635-0.169,2.049,0.549C45.046,9.021,44.799,9.939,44.082,10.353z"/>
				</g>
			</g>
			<g id="use11" transform="matrix(-0.5,0.8660254,-0.8660254,-0.5,0,0)" xlink:href="#ww70arm">
				<g id="ww70arm_2_">
					<path d="M43.332,14.553l-9.526-5.5"/>
					<path d="M44.083,15.852c-0.448,0.259-1.02,0.278-1.501,0l-9.526-5.5c-0.718-0.414-0.963-1.332-0.549-2.049
						c0.416-0.719,1.331-0.964,2.049-0.549l9.526,5.5c0.717,0.414,0.964,1.331,0.549,2.049
						C44.495,15.54,44.304,15.725,44.083,15.852z"/>
				</g>
			</g>
		</g>
	</g>
	<g>
		<g id="ww_70_1_">
			<g id="ww70arm_3_">
				<path d="M40.49,37.007l-9.526-5.5"/>
				<path d="M40.489,38.507c-0.255,0-0.513-0.064-0.749-0.201l-9.526-5.5c-0.718-0.414-0.963-1.331-0.549-2.049
					c0.414-0.719,1.333-0.963,2.049-0.549l9.526,5.5c0.718,0.414,0.963,1.331,0.549,2.049
					C41.512,38.238,41.007,38.507,40.489,38.507z"/>
			</g>
			<g id="use9_1_" transform="matrix(0.5,0.8660254,-0.8660254,0.5,0,0)" xlink:href="#ww70arm">
				<g id="ww70arm_4_">
					<path d="M35.727,39.757v-11"/>
					<path d="M35.727,41.257c-0.828,0-1.5-0.672-1.5-1.5v-11c0-0.829,0.672-1.5,1.5-1.5s1.5,0.671,1.5,1.5v11
						C37.227,40.585,36.555,41.257,35.727,41.257z"/>
				</g>
			</g>
			<g id="use13" transform="matrix(-0.5,0.8660254,-0.8660254,-0.5,8.2272413,4.75)" xlink:href="#ww_70">
				<g id="ww70arm_5_">
					<path d="M30.964,37.007l9.526-5.5"/>
					<path d="M30.965,38.507c-0.518,0-1.022-0.269-1.3-0.75c-0.414-0.718-0.169-1.635,0.549-2.049l9.526-5.5
						c0.717-0.414,1.635-0.17,2.049,0.549c0.414,0.718,0.169,1.635-0.549,2.049l-9.526,5.5
						C31.478,38.442,31.22,38.507,30.965,38.507z"/>
				</g>
			</g>
		</g>
		<g id="ww_73">
			<g id="ww_70_2_">
				<g id="ww70arm_6_">
					<path d="M14.51,37.007l9.526-5.5"/>
					<path d="M14.511,38.507c-0.519,0-1.022-0.269-1.3-0.75c-0.415-0.718-0.168-1.635,0.549-2.049l9.526-5.5
						c0.719-0.415,1.635-0.169,2.049,0.549c0.415,0.718,0.168,1.635-0.549,2.049l-9.526,5.5
						C15.023,38.442,14.766,38.507,14.511,38.507z"/>
				</g>
				<g id="use9_2_" transform="matrix(0.5,0.8660254,-0.8660254,0.5,0,0)" xlink:href="#ww70arm">
					<g id="ww70arm_7_">
						<path d="M14.51,31.507l9.526,5.5"/>
						<path d="M24.035,38.507c-0.254,0-0.512-0.064-0.749-0.201l-9.526-5.5c-0.717-0.414-0.963-1.331-0.549-2.049
							s1.332-0.964,2.049-0.549l9.526,5.5c0.717,0.414,0.963,1.331,0.549,2.049C25.057,38.238,24.553,38.507,24.035,38.507z"/>
					</g>
				</g>
				<g id="use15" transform="matrix(-0.5,-0.8660254,0.8660254,-0.5,-8.2272413,4.75)" xlink:href="#ww_70">
					<g id="ww70arm_8_">
						<path d="M19.273,28.757v11"/>
						<path d="M19.273,41.257c-0.829,0-1.5-0.672-1.5-1.5v-11c0-0.829,0.671-1.5,1.5-1.5s1.5,0.671,1.5,1.5v11
							C20.773,40.585,20.102,41.257,19.273,41.257z"/>
					</g>
				</g>
			</g>
		</g>
	</g>
</g>
</svg>
