<?xml version="1.0" encoding="utf-8"?>
<!-- Generator: Adobe Illustrator 16.0.3, SVG Export Plug-In . SVG Version: 6.00 Build 0)  -->
<!DOCTYPE svg PUBLIC "-//W3C//DTD SVG 1.1//EN" "http://www.w3.org/Graphics/SVG/1.1/DTD/svg11.dtd">
<svg version="1.1"
	 id="svg2" xmlns:dc="http://purl.org/dc/elements/1.1/" xmlns:cc="http://creativecommons.org/ns#" xmlns:rdf="http://www.w3.org/1999/02/22-rdf-syntax-ns#" xmlns:svg="http://www.w3.org/2000/svg"
	 xmlns="http://www.w3.org/2000/svg" xmlns:xlink="http://www.w3.org/1999/xlink" x="0px" y="0px" width="55px" height="55px"
	 viewBox="0 0 55 55" enable-background="new 0 0 55 55" xml:space="preserve">
<path d="M18.499,33.5c-0.278,0-0.559-0.077-0.81-0.238L8.726,27.5l8.963-5.762c0.696-0.449,1.625-0.247,2.073,0.451
	c0.448,0.697,0.246,1.625-0.451,2.073L14.274,27.5l5.037,3.238c0.697,0.448,0.899,1.376,0.451,2.073
	C19.475,33.257,18.992,33.5,18.499,33.5z"/>
<path d="M36.501,33.5c-0.493,0-0.977-0.243-1.263-0.688c-0.448-0.697-0.246-1.625,0.45-2.073l5.038-3.238l-5.038-3.238
	c-0.696-0.448-0.898-1.376-0.45-2.073c0.447-0.697,1.378-0.898,2.073-0.451l8.962,5.762l-8.962,5.762
	C37.061,33.423,36.779,33.5,36.501,33.5z"/>
<rect x="12.5" y="26" width="30" height="3"/>
</svg>
