<?xml version="1.0" encoding="utf-8"?>
<!-- Generator: Adobe Illustrator 16.0.3, SVG Export Plug-In . SVG Version: 6.00 Build 0)  -->
<!DOCTYPE svg PUBLIC "-//W3C//DTD SVG 1.1//EN" "http://www.w3.org/Graphics/SVG/1.1/DTD/svg11.dtd">
<svg version="1.1"
	 id="svg2" xmlns:dc="http://purl.org/dc/elements/1.1/" xmlns:cc="http://creativecommons.org/ns#" xmlns:rdf="http://www.w3.org/1999/02/22-rdf-syntax-ns#" xmlns:svg="http://www.w3.org/2000/svg"
	 xmlns="http://www.w3.org/2000/svg" xmlns:xlink="http://www.w3.org/1999/xlink" x="0px" y="0px" width="55px" height="55px"
	 viewBox="0 0 55 55" enable-background="new 0 0 55 55" xml:space="preserve">
<g id="ww_59">
	<g id="g5" transform="translate(0,-19)">
		<g id="ww_50">
			<g id="circle8">
				<circle cx="27.5" cy="28.15" r="5.5"/>
			</g>
			<g id="path10">
				<path d="M26.501,38.85c-0.465,0-0.923-0.215-1.216-0.62c-0.486-0.671-0.336-1.609,0.335-2.095C28.322,34.179,30,31.119,30,28.15
					c0-0.829,0.672-1.5,1.5-1.5s1.5,0.671,1.5,1.5c0,3.974-2.101,7.867-5.62,10.415C27.114,38.757,26.806,38.85,26.501,38.85z"/>
			</g>
		</g>
	</g>
	<g id="circle12">
		<circle cx="27.5" cy="28.15" r="5.5"/>
	</g>
	<g id="use14" transform="translate(0,14)" xlink:href="#ww_50">
		<g id="ww_50_1_">
			<g id="circle8_1_">
				<circle cx="27.5" cy="42.15" r="5.5"/>
			</g>
			<g id="path10_1_">
				<path d="M26.501,52.85c-0.465,0-0.923-0.215-1.216-0.62c-0.486-0.671-0.336-1.609,0.335-2.095C28.322,48.179,30,45.12,30,42.15
					c0-0.828,0.672-1.5,1.5-1.5s1.5,0.672,1.5,1.5c0,3.974-2.102,7.866-5.621,10.414C27.114,52.757,26.806,52.85,26.501,52.85z"/>
			</g>
		</g>
	</g>
</g>
</svg>
