<?xml version="1.0" encoding="utf-8"?>
<!-- Generator: Adobe Illustrator 16.0.3, SVG Export Plug-In . SVG Version: 6.00 Build 0)  -->
<!DOCTYPE svg PUBLIC "-//W3C//DTD SVG 1.1//EN" "http://www.w3.org/Graphics/SVG/1.1/DTD/svg11.dtd">
<svg version="1.1"
	 id="svg2" xmlns:dc="http://purl.org/dc/elements/1.1/" xmlns:cc="http://creativecommons.org/ns#" xmlns:rdf="http://www.w3.org/1999/02/22-rdf-syntax-ns#" xmlns:svg="http://www.w3.org/2000/svg"
	 xmlns="http://www.w3.org/2000/svg" xmlns:xlink="http://www.w3.org/1999/xlink" x="0px" y="0px" width="55px" height="55px"
	 viewBox="0 0 55 55" enable-background="new 0 0 55 55" xml:space="preserve">
<g id="ww_33">
	<g id="g5">
		<g id="arc">
			<path d="M25,29c-5.79,0-10.5-4.71-10.5-10.5S19.21,8,25,8c5.79,0,10.5,4.71,10.5,10.5h-3c0-4.136-3.364-7.5-7.5-7.5
				s-7.5,3.364-7.5,7.5S20.864,26,25,26V29z"/>
		</g>
		<g id="arc2">
			<path d="M25,47c-5.79,0-10.5-4.71-10.5-10.5h3c0,4.136,3.364,7.5,7.5,7.5s7.5-3.364,7.5-7.5S29.136,29,25,29v-3
				c5.79,0,10.5,4.71,10.5,10.5S30.79,47,25,47z"/>
		</g>
	</g>
	<g id="path9">
		<rect x="45.5" y="7.5" width="3" height="40"/>
	</g>
	<g id="path11">
		<polygon points="36.3,33.9 35.7,33.1 38.767,30.8 8,30.8 8,29.8 40,29.8 40,29.875 43.167,27.5 40,25.125 40,25.2 8,25.2 8,24.2 
			38.767,24.2 35.7,21.9 36.3,21.1 44.833,27.5 		"/>
	</g>
</g>
</svg>
