<?xml version="1.0" encoding="utf-8"?>
<!-- Generator: Adobe Illustrator 16.0.3, SVG Export Plug-In . SVG Version: 6.00 Build 0)  -->
<!DOCTYPE svg PUBLIC "-//W3C//DTD SVG 1.1//EN" "http://www.w3.org/Graphics/SVG/1.1/DTD/svg11.dtd">
<svg version="1.1"
	 id="svg3084" xmlns:dc="http://purl.org/dc/elements/1.1/" xmlns:cc="http://creativecommons.org/ns#" xmlns:rdf="http://www.w3.org/1999/02/22-rdf-syntax-ns#" xmlns:svg="http://www.w3.org/2000/svg"
	 xmlns="http://www.w3.org/2000/svg" xmlns:xlink="http://www.w3.org/1999/xlink" x="0px" y="0px" width="55px" height="55px"
	 viewBox="0 0 55 55" enable-background="new 0 0 55 55" xml:space="preserve">
<circle cx="27.5" cy="9.75" r="5.5"/>
<path d="M22,22.25h11"/>
<path d="M33,23.75H22c-0.829,0-1.5-0.671-1.5-1.5s0.671-1.5,1.5-1.5h11c0.828,0,1.5,0.671,1.5,1.5S33.828,23.75,33,23.75z"/>
<path d="M24.75,17.487l5.5,9.526"/>
<path d="M30.251,28.514c-0.518,0-1.022-0.27-1.3-0.75l-5.5-9.526c-0.415-0.717-0.168-1.635,0.549-2.049
	c0.719-0.415,1.635-0.168,2.049,0.549l5.5,9.526c0.414,0.717,0.169,1.635-0.549,2.049C30.764,28.448,30.506,28.514,30.251,28.514z"
	/>
<path d="M30.25,17.487l-5.5,9.526"/>
<path d="M24.749,28.514c-0.254,0-0.512-0.065-0.749-0.201c-0.717-0.415-0.963-1.332-0.549-2.049l5.5-9.526
	c0.414-0.718,1.332-0.963,2.049-0.549c0.718,0.414,0.963,1.332,0.549,2.049l-5.5,9.526C25.771,28.244,25.267,28.514,24.749,28.514z"
	/>
<path d="M27.5,54.585L16.732,29.25h21.535L27.5,54.585z M21.268,32.25L27.5,46.915l6.232-14.665H21.268z"/>
</svg>
