<?xml version="1.0" encoding="utf-8"?>
<!-- Generator: Adobe Illustrator 16.0.3, SVG Export Plug-In . SVG Version: 6.00 Build 0)  -->
<!DOCTYPE svg PUBLIC "-//W3C//DTD SVG 1.1//EN" "http://www.w3.org/Graphics/SVG/1.1/DTD/svg11.dtd">
<svg version="1.1"
	 id="svg2" xmlns:dc="http://purl.org/dc/elements/1.1/" xmlns:cc="http://creativecommons.org/ns#" xmlns:rdf="http://www.w3.org/1999/02/22-rdf-syntax-ns#" xmlns:svg="http://www.w3.org/2000/svg"
	 xmlns="http://www.w3.org/2000/svg" xmlns:xlink="http://www.w3.org/1999/xlink" x="0px" y="0px" width="55px" height="55px"
	 viewBox="0 0 55 55" enable-background="new 0 0 55 55" xml:space="preserve">
<g id="ww_16">
	<g id="circle6">
		<circle cx="27.5" cy="27.5" r="5.5"/>
	</g>
	<g id="path8">
		<path d="M34.01,47.109l-2.02-2.219c0.555-0.505,1.088-1.038,1.586-1.585c8.714-9.588,8.003-24.48-1.585-33.196l2.018-2.22
			c10.813,9.828,11.614,26.621,1.787,37.434C35.233,45.941,34.633,46.542,34.01,47.109z M20.99,47.109
			c-0.625-0.568-1.225-1.169-1.785-1.785C9.377,34.511,10.178,17.718,20.991,7.89l2.018,2.22
			c-9.589,8.715-10.299,23.607-1.584,33.197c0.497,0.546,1.03,1.079,1.585,1.584L20.99,47.109z"/>
	</g>
</g>
</svg>
