<?xml version="1.0" encoding="utf-8"?>
<!-- Generator: Adobe Illustrator 16.0.3, SVG Export Plug-In . SVG Version: 6.00 Build 0)  -->
<!DOCTYPE svg PUBLIC "-//W3C//DTD SVG 1.1//EN" "http://www.w3.org/Graphics/SVG/1.1/DTD/svg11.dtd">
<svg version="1.1"
	 id="svg3003" xmlns:dc="http://purl.org/dc/elements/1.1/" xmlns:cc="http://creativecommons.org/ns#" xmlns:rdf="http://www.w3.org/1999/02/22-rdf-syntax-ns#" xmlns:svg="http://www.w3.org/2000/svg"
	 xmlns="http://www.w3.org/2000/svg" xmlns:xlink="http://www.w3.org/1999/xlink" x="0px" y="0px" width="55px" height="55px"
	 viewBox="0 0 55 55" enable-background="new 0 0 55 55" xml:space="preserve">
<polygon points="31.061,46.195 28.939,44.074 34.379,38.635 28.164,32.42 35.035,19.135 17.5,19.135 17.5,16.135 39.965,16.135 
	31.836,31.85 38.621,38.635 "/>
<rect x="20" y="17.635" width="3" height="31.5"/>
<path d="M30,46.135h-1v-1L30,46.135z"/>
<polygon points="33.621,47.635 27.5,47.635 27.5,41.514 "/>
<path d="M24.065,9.039h6.871"/>
<path d="M30.936,10.539h-6.871c-0.829,0-1.5-0.671-1.5-1.5s0.671-1.5,1.5-1.5h6.871c0.828,0,1.5,0.671,1.5,1.5
	S31.764,10.539,30.936,10.539z"/>
<path d="M25.782,5.865l3.435,6.348"/>
<path d="M29.218,13.713c-0.532,0-1.049-0.285-1.32-0.787l-3.435-6.348c-0.394-0.729-0.123-1.639,0.605-2.033
	c0.73-0.396,1.639-0.122,2.033,0.605l3.435,6.348c0.395,0.729,0.123,1.639-0.605,2.033C29.704,13.655,29.459,13.713,29.218,13.713z"
	/>
<path d="M29.217,5.865l-3.435,6.348"/>
<path d="M25.781,13.713c-0.241,0-0.485-0.059-0.712-0.181c-0.729-0.395-1-1.305-0.605-2.033l3.435-6.348
	c0.395-0.729,1.306-0.999,2.033-0.605c0.729,0.395,1,1.305,0.605,2.033l-3.435,6.348C26.83,13.428,26.314,13.713,25.781,13.713z"/>
</svg>
