<?xml version="1.0" encoding="utf-8"?>
<!-- Generator: Adobe Illustrator 16.0.3, SVG Export Plug-In . SVG Version: 6.00 Build 0)  -->
<!DOCTYPE svg PUBLIC "-//W3C//DTD SVG 1.1//EN" "http://www.w3.org/Graphics/SVG/1.1/DTD/svg11.dtd">
<svg version="1.1"
	 id="svg2" xmlns:dc="http://purl.org/dc/elements/1.1/" xmlns:cc="http://creativecommons.org/ns#" xmlns:rdf="http://www.w3.org/1999/02/22-rdf-syntax-ns#" xmlns:svg="http://www.w3.org/2000/svg"
	 xmlns="http://www.w3.org/2000/svg" xmlns:xlink="http://www.w3.org/1999/xlink" x="0px" y="0px" width="55px" height="55px"
	 viewBox="0 0 55 55" enable-background="new 0 0 55 55" xml:space="preserve">
<g id="ww_06">
	<g id="path6">
		<path d="M27.5,53C20.056,53,14,46.944,14,39.5h3C17,45.29,21.71,50,27.5,50C33.29,50,38,45.29,38,39.5S33.29,29,27.5,29
			C20.056,29,14,22.944,14,15.5S20.056,2,27.5,2C34.944,2,41,8.056,41,15.5h-3C38,9.71,33.29,5,27.5,5C21.71,5,17,9.71,17,15.5
			S21.71,26,27.5,26C34.944,26,41,32.056,41,39.5S34.944,53,27.5,53z"/>
	</g>
</g>
</svg>
