<?xml version="1.0" encoding="utf-8"?>
<!-- Generator: Adobe Illustrator 16.0.3, SVG Export Plug-In . SVG Version: 6.00 Build 0)  -->
<!DOCTYPE svg PUBLIC "-//W3C//DTD SVG 1.1//EN" "http://www.w3.org/Graphics/SVG/1.1/DTD/svg11.dtd">
<svg version="1.1"
	 id="svg3010" xmlns:dc="http://purl.org/dc/elements/1.1/" xmlns:cc="http://creativecommons.org/ns#" xmlns:rdf="http://www.w3.org/1999/02/22-rdf-syntax-ns#" xmlns:svg="http://www.w3.org/2000/svg"
	 xmlns="http://www.w3.org/2000/svg" xmlns:xlink="http://www.w3.org/1999/xlink" x="0px" y="0px" width="55px" height="55px"
	 viewBox="0 0 55 55" enable-background="new 0 0 55 55" xml:space="preserve">
<path d="M40.016,20.783h11"/>
<path d="M51.016,22.283h-11c-0.828,0-1.5-0.671-1.5-1.5s0.672-1.5,1.5-1.5h11c0.828,0,1.5,0.671,1.5,1.5
	S51.844,22.283,51.016,22.283z"/>
<path d="M42.766,16.02l5.5,9.526"/>
<path d="M48.267,27.046c-0.518,0-1.022-0.269-1.3-0.75l-5.5-9.526c-0.414-0.717-0.169-1.635,0.549-2.049
	c0.716-0.415,1.635-0.169,2.049,0.549l5.5,9.526c0.414,0.717,0.169,1.635-0.549,2.049C48.779,26.981,48.521,27.046,48.267,27.046z"
	/>
<path d="M48.266,16.02l-5.5,9.526"/>
<path d="M42.765,27.046c-0.255,0-0.513-0.065-0.749-0.202c-0.718-0.414-0.963-1.332-0.549-2.049l5.5-9.526
	c0.414-0.718,1.333-0.964,2.049-0.549c0.718,0.414,0.963,1.332,0.549,2.049l-5.5,9.526C43.787,26.777,43.282,27.046,42.765,27.046z"
	/>
<polygon points="26.304,46.479 10.903,31.078 23.941,12.919 2.864,12.919 2.864,9.919 29.788,9.919 14.826,30.758 28.425,44.357 "/>
<rect x="5.364" y="11.419" width="3" height="36.999"/>
<polygon points="35.365,53.418 26.864,53.418 26.864,50.418 32.365,50.418 32.365,7.419 26.864,7.419 26.864,4.419 35.365,4.419 "/>
<path d="M26.364,45.418h1v-1L26.364,45.418z"/>
<polygon points="28.864,46.918 22.743,46.918 28.864,40.797 "/>
<path d="M39.602,7.439h11"/>
<path d="M50.602,8.939h-11c-0.828,0-1.5-0.671-1.5-1.5s0.672-1.5,1.5-1.5h11c0.828,0,1.5,0.671,1.5,1.5S51.43,8.939,50.602,8.939z"
	/>
<path d="M42.352,2.676l5.5,9.526"/>
<path d="M47.853,13.703c-0.518,0-1.022-0.269-1.3-0.75l-5.5-9.526c-0.414-0.717-0.169-1.635,0.549-2.049
	c0.716-0.415,1.635-0.169,2.049,0.549l5.5,9.526c0.414,0.717,0.169,1.635-0.549,2.049C48.365,13.638,48.107,13.703,47.853,13.703z"
	/>
<path d="M47.852,2.676l-5.5,9.526"/>
<path d="M42.351,13.703c-0.255,0-0.513-0.065-0.749-0.202c-0.718-0.414-0.963-1.332-0.549-2.049l5.5-9.526
	c0.414-0.718,1.333-0.964,2.049-0.549c0.718,0.414,0.963,1.332,0.549,2.049l-5.5,9.526C43.373,13.434,42.868,13.703,42.351,13.703z"
	/>
<path d="M52.08,42.582H39.75l6.165-10.68L52.08,42.582z M44.08,40.082h3.67l-1.835-3.18L44.08,40.082z"/>
<rect x="44.671" y="23.026" transform="matrix(0.4327 0.9015 -0.9015 0.4327 52.9339 -24.1685)" width="2" height="13.901"/>
<path d="M52.08,53.973H39.75l6.165-10.68L52.08,53.973z M44.08,51.473h3.67l-1.835-3.18L44.08,51.473z"/>
</svg>
